<?xml version="1.0" encoding="UTF-8" standalone="no"?>
<svg
   xmlns:dc="http://purl.org/dc/elements/1.1/"
   xmlns:cc="http://creativecommons.org/ns#"
   xmlns:rdf="http://www.w3.org/1999/02/22-rdf-syntax-ns#"
   xmlns:svg="http://www.w3.org/2000/svg"
   xmlns="http://www.w3.org/2000/svg"
   viewBox="0 0 1066.6667 1066.6667"
   height="1066.6667"
   width="1066.6667"
   xml:space="preserve"
   opacity="0.1"
   id="svg2"
   version="1.1"><metadata
     id="metadata8"><rdf:RDF><cc:Work
         rdf:about=""><dc:format>image/svg+xml</dc:format><dc:type
           rdf:resource="http://purl.org/dc/dcmitype/StillImage" /></cc:Work></rdf:RDF></metadata><defs
     id="defs6" /><g
     transform="matrix(1.3333333,0,0,-1.3333333,0,1066.6667)"
     id="g10"><g
       transform="scale(0.1)"
       id="g12"><path
         id="path14"
         style="fill:none;stroke:#808080;stroke-width:7.5;stroke-linecap:butt;stroke-linejoin:miter;stroke-miterlimit:10;stroke-dasharray:none;stroke-opacity:1"
         d="m -565.066,7001.15 -315.039,545.67 315.039,545.66 H 65.0117 L 380.051,7546.82 65.0117,7001.15 Z" /><path
         id="path16"
         style="fill:none;stroke:#808080;stroke-width:7.5;stroke-linecap:butt;stroke-linejoin:miter;stroke-miterlimit:10;stroke-dasharray:none;stroke-opacity:1"
         d="M 375.813,7546.82 60.7734,8092.48 375.813,8638.14 h 630.077 l 315.04,-545.66 -315.04,-545.66 z" /><path
         id="path18"
         style="fill:none;stroke:#808080;stroke-width:7.5;stroke-linecap:butt;stroke-linejoin:miter;stroke-miterlimit:10;stroke-dasharray:none;stroke-opacity:1"
         d="M 375.813,6455.49 60.7734,7001.15 375.813,7546.82 h 630.077 l 315.04,-545.67 -315.04,-545.66 z" /><path
         id="path20"
         style="fill:none;stroke:#808080;stroke-width:7.5;stroke-linecap:butt;stroke-linejoin:miter;stroke-miterlimit:10;stroke-dasharray:none;stroke-opacity:1"
         d="M 375.813,5364.16 60.7734,5909.82 375.813,6455.49 h 630.077 l 315.04,-545.67 -315.04,-545.66 z" /><path
         id="path22"
         style="fill:none;stroke:#808080;stroke-width:7.5;stroke-linecap:butt;stroke-linejoin:miter;stroke-miterlimit:10;stroke-dasharray:none;stroke-opacity:1"
         d="M 375.813,4272.83 60.7734,4818.5 375.813,5364.16 h 630.077 l 315.04,-545.66 -315.04,-545.67 z" /><path
         id="path24"
         style="fill:none;stroke:#808080;stroke-width:7.5;stroke-linecap:butt;stroke-linejoin:miter;stroke-miterlimit:10;stroke-dasharray:none;stroke-opacity:1"
         d="M 375.813,3181.5 60.7734,3727.17 375.813,4272.83 h 630.077 l 315.04,-545.66 -315.04,-545.67 z" /><path
         id="path26"
         style="fill:none;stroke:#808080;stroke-width:7.5;stroke-linecap:butt;stroke-linejoin:miter;stroke-miterlimit:10;stroke-dasharray:none;stroke-opacity:1"
         d="M 375.813,2090.18 60.7734,2635.84 375.813,3181.5 h 630.077 l 315.04,-545.66 -315.04,-545.66 z" /><path
         id="path28"
         style="fill:none;stroke:#808080;stroke-width:7.5;stroke-linecap:butt;stroke-linejoin:miter;stroke-miterlimit:10;stroke-dasharray:none;stroke-opacity:1"
         d="M 375.813,998.852 60.7734,1544.51 375.813,2090.18 h 630.077 l 315.04,-545.67 -315.04,-545.658 z" /><path
         id="path30"
         style="fill:none;stroke:#808080;stroke-width:7.5;stroke-linecap:butt;stroke-linejoin:miter;stroke-miterlimit:10;stroke-dasharray:none;stroke-opacity:1"
         d="M 375.813,-92.4805 60.7734,453.18 375.813,998.852 H 1005.89 L 1320.93,453.18 1005.89,-92.4805 Z" /><path
         id="path32"
         style="fill:none;stroke:#808080;stroke-width:7.5;stroke-linecap:butt;stroke-linejoin:miter;stroke-miterlimit:10;stroke-dasharray:none;stroke-opacity:1"
         d="m -565.066,5909.82 -315.039,545.67 315.039,545.66 H 65.0117 L 380.051,6455.49 65.0117,5909.82 Z" /><path
         id="path34"
         style="fill:none;stroke:#808080;stroke-width:7.5;stroke-linecap:butt;stroke-linejoin:miter;stroke-miterlimit:10;stroke-dasharray:none;stroke-opacity:1"
         d="m -565.066,4818.5 -315.039,545.66 315.039,545.66 H 65.0117 L 380.051,5364.16 65.0117,4818.5 Z" /><path
         id="path36"
         style="fill:none;stroke:#808080;stroke-width:7.5;stroke-linecap:butt;stroke-linejoin:miter;stroke-miterlimit:10;stroke-dasharray:none;stroke-opacity:1"
         d="m -565.066,3727.17 -315.039,545.66 315.039,545.67 H 65.0117 L 380.051,4272.83 65.0117,3727.17 Z" /><path
         id="path38"
         style="fill:none;stroke:#808080;stroke-width:7.5;stroke-linecap:butt;stroke-linejoin:miter;stroke-miterlimit:10;stroke-dasharray:none;stroke-opacity:1"
         d="m -565.066,2635.84 -315.039,545.66 315.039,545.67 H 65.0117 L 380.051,3181.5 65.0117,2635.84 Z" /><path
         id="path40"
         style="fill:none;stroke:#808080;stroke-width:7.5;stroke-linecap:butt;stroke-linejoin:miter;stroke-miterlimit:10;stroke-dasharray:none;stroke-opacity:1"
         d="m -565.066,1544.51 -315.039,545.67 315.039,545.66 H 65.0117 L 380.051,2090.18 65.0117,1544.51 Z" /><path
         id="path42"
         style="fill:none;stroke:#808080;stroke-width:7.5;stroke-linecap:butt;stroke-linejoin:miter;stroke-miterlimit:10;stroke-dasharray:none;stroke-opacity:1"
         d="m -565.066,453.18 -315.039,545.672 315.039,545.658 H 65.0117 L 380.051,998.852 65.0117,453.18 Z" /><path
         id="path44"
         style="fill:none;stroke:#808080;stroke-width:7.5;stroke-linecap:butt;stroke-linejoin:miter;stroke-miterlimit:10;stroke-dasharray:none;stroke-opacity:1"
         d="M -565.066,-638.141 -880.105,-92.4805 -565.066,453.18 H 65.0117 L 380.051,-92.4805 65.0117,-638.141 Z" /><path
         id="path46"
         style="fill:none;stroke:#808080;stroke-width:7.5;stroke-linecap:butt;stroke-linejoin:miter;stroke-miterlimit:10;stroke-dasharray:none;stroke-opacity:1"
         d="m 1324.73,7001.15 -315.04,545.67 315.04,545.66 h 630.07 l 315.04,-545.66 -315.04,-545.67 z" /><path
         id="path48"
         style="fill:none;stroke:#808080;stroke-width:7.5;stroke-linecap:butt;stroke-linejoin:miter;stroke-miterlimit:10;stroke-dasharray:none;stroke-opacity:1"
         d="m 2265.61,7546.82 -315.04,545.66 315.04,545.66 h 630.07 l 315.04,-545.66 -315.04,-545.66 z" /><path
         id="path50"
         style="fill:none;stroke:#808080;stroke-width:7.5;stroke-linecap:butt;stroke-linejoin:miter;stroke-miterlimit:10;stroke-dasharray:none;stroke-opacity:1"
         d="m 2265.61,6455.49 -315.04,545.66 315.04,545.67 h 630.07 l 315.04,-545.67 -315.04,-545.66 z" /><path
         id="path52"
         style="fill:none;stroke:#808080;stroke-width:7.5;stroke-linecap:butt;stroke-linejoin:miter;stroke-miterlimit:10;stroke-dasharray:none;stroke-opacity:1"
         d="m 2265.61,5364.16 -315.04,545.66 315.04,545.67 h 630.07 l 315.04,-545.67 -315.04,-545.66 z" /><path
         id="path54"
         style="fill:none;stroke:#808080;stroke-width:7.5;stroke-linecap:butt;stroke-linejoin:miter;stroke-miterlimit:10;stroke-dasharray:none;stroke-opacity:1"
         d="m 2265.61,4272.83 -315.04,545.67 315.04,545.66 h 630.07 l 315.04,-545.66 -315.04,-545.67 z" /><path
         id="path56"
         style="fill:none;stroke:#808080;stroke-width:7.5;stroke-linecap:butt;stroke-linejoin:miter;stroke-miterlimit:10;stroke-dasharray:none;stroke-opacity:1"
         d="m 2265.61,3181.5 -315.04,545.67 315.04,545.66 h 630.07 l 315.04,-545.66 -315.04,-545.67 z" /><path
         id="path58"
         style="fill:none;stroke:#808080;stroke-width:7.5;stroke-linecap:butt;stroke-linejoin:miter;stroke-miterlimit:10;stroke-dasharray:none;stroke-opacity:1"
         d="m 2265.61,2090.18 -315.04,545.66 315.04,545.66 h 630.07 l 315.04,-545.66 -315.04,-545.66 z" /><path
         id="path60"
         style="fill:none;stroke:#808080;stroke-width:7.5;stroke-linecap:butt;stroke-linejoin:miter;stroke-miterlimit:10;stroke-dasharray:none;stroke-opacity:1"
         d="m 2265.61,998.852 -315.04,545.658 315.04,545.67 h 630.07 l 315.04,-545.67 -315.04,-545.658 z" /><path
         id="path62"
         style="fill:none;stroke:#808080;stroke-width:7.5;stroke-linecap:butt;stroke-linejoin:miter;stroke-miterlimit:10;stroke-dasharray:none;stroke-opacity:1"
         d="M 2265.61,-92.4805 1950.57,453.18 2265.61,998.852 h 630.07 L 3210.72,453.18 2895.68,-92.4805 Z" /><path
         id="path64"
         style="fill:none;stroke:#808080;stroke-width:7.5;stroke-linecap:butt;stroke-linejoin:miter;stroke-miterlimit:10;stroke-dasharray:none;stroke-opacity:1"
         d="m 1324.73,5909.82 -315.04,545.67 315.04,545.66 h 630.07 l 315.04,-545.66 -315.04,-545.67 z" /><path
         id="path66"
         style="fill:none;stroke:#808080;stroke-width:7.5;stroke-linecap:butt;stroke-linejoin:miter;stroke-miterlimit:10;stroke-dasharray:none;stroke-opacity:1"
         d="m 1324.73,4818.5 -315.04,545.66 315.04,545.66 H 1954.8 L 2269.84,5364.16 1954.8,4818.5 Z" /><path
         id="path68"
         style="fill:none;stroke:#808080;stroke-width:7.5;stroke-linecap:butt;stroke-linejoin:miter;stroke-miterlimit:10;stroke-dasharray:none;stroke-opacity:1"
         d="m 1324.73,3727.17 -315.04,545.66 315.04,545.67 h 630.07 l 315.04,-545.67 -315.04,-545.66 z" /><path
         id="path70"
         style="fill:none;stroke:#808080;stroke-width:7.5;stroke-linecap:butt;stroke-linejoin:miter;stroke-miterlimit:10;stroke-dasharray:none;stroke-opacity:1"
         d="m 1324.73,2635.84 -315.04,545.66 315.04,545.67 H 1954.8 L 2269.84,3181.5 1954.8,2635.84 Z" /><path
         id="path72"
         style="fill:none;stroke:#808080;stroke-width:7.5;stroke-linecap:butt;stroke-linejoin:miter;stroke-miterlimit:10;stroke-dasharray:none;stroke-opacity:1"
         d="m 1324.73,1544.51 -315.04,545.67 315.04,545.66 h 630.07 l 315.04,-545.66 -315.04,-545.67 z" /><path
         id="path74"
         style="fill:none;stroke:#808080;stroke-width:7.5;stroke-linecap:butt;stroke-linejoin:miter;stroke-miterlimit:10;stroke-dasharray:none;stroke-opacity:1"
         d="m 1324.73,453.18 -315.04,545.672 315.04,545.658 H 1954.8 L 2269.84,998.852 1954.8,453.18 Z" /><path
         id="path76"
         style="fill:none;stroke:#808080;stroke-width:7.5;stroke-linecap:butt;stroke-linejoin:miter;stroke-miterlimit:10;stroke-dasharray:none;stroke-opacity:1"
         d="M 1324.73,-638.141 1009.69,-92.4805 1324.73,453.18 H 1954.8 L 2269.84,-92.4805 1954.8,-638.141 Z" /><path
         id="path78"
         style="fill:none;stroke:#808080;stroke-width:7.5;stroke-linecap:butt;stroke-linejoin:miter;stroke-miterlimit:10;stroke-dasharray:none;stroke-opacity:1"
         d="m 3214.52,7001.15 -315.04,545.67 315.04,545.66 h 630.08 l 315.04,-545.66 -315.04,-545.67 z" /><path
         id="path80"
         style="fill:none;stroke:#808080;stroke-width:7.5;stroke-linecap:butt;stroke-linejoin:miter;stroke-miterlimit:10;stroke-dasharray:none;stroke-opacity:1"
         d="m 4155.4,7546.82 -315.04,545.66 315.04,545.66 h 630.08 l 315.04,-545.66 -315.04,-545.66 z" /><path
         id="path82"
         style="fill:none;stroke:#808080;stroke-width:7.5;stroke-linecap:butt;stroke-linejoin:miter;stroke-miterlimit:10;stroke-dasharray:none;stroke-opacity:1"
         d="m 4155.4,6455.49 -315.04,545.66 315.04,545.67 h 630.08 l 315.04,-545.67 -315.04,-545.66 z" /><path
         id="path84"
         style="fill:none;stroke:#808080;stroke-width:7.5;stroke-linecap:butt;stroke-linejoin:miter;stroke-miterlimit:10;stroke-dasharray:none;stroke-opacity:1"
         d="m 4155.4,5364.16 -315.04,545.66 315.04,545.67 h 630.08 l 315.04,-545.67 -315.04,-545.66 z" /><path
         id="path86"
         style="fill:none;stroke:#808080;stroke-width:7.5;stroke-linecap:butt;stroke-linejoin:miter;stroke-miterlimit:10;stroke-dasharray:none;stroke-opacity:1"
         d="m 4155.4,4272.83 -315.04,545.67 315.04,545.66 h 630.08 l 315.04,-545.66 -315.04,-545.67 z" /><path
         id="path88"
         style="fill:none;stroke:#808080;stroke-width:7.5;stroke-linecap:butt;stroke-linejoin:miter;stroke-miterlimit:10;stroke-dasharray:none;stroke-opacity:1"
         d="m 4155.4,3181.5 -315.04,545.67 315.04,545.66 h 630.08 l 315.04,-545.66 -315.04,-545.67 z" /><path
         id="path90"
         style="fill:none;stroke:#808080;stroke-width:7.5;stroke-linecap:butt;stroke-linejoin:miter;stroke-miterlimit:10;stroke-dasharray:none;stroke-opacity:1"
         d="m 4155.4,2090.18 -315.04,545.66 315.04,545.66 h 630.08 l 315.04,-545.66 -315.04,-545.66 z" /><path
         id="path92"
         style="fill:none;stroke:#808080;stroke-width:7.5;stroke-linecap:butt;stroke-linejoin:miter;stroke-miterlimit:10;stroke-dasharray:none;stroke-opacity:1"
         d="m 4155.4,998.852 -315.04,545.658 315.04,545.67 h 630.08 l 315.04,-545.67 -315.04,-545.658 z" /><path
         id="path94"
         style="fill:none;stroke:#808080;stroke-width:7.5;stroke-linecap:butt;stroke-linejoin:miter;stroke-miterlimit:10;stroke-dasharray:none;stroke-opacity:1"
         d="M 4155.4,-92.4805 3840.36,453.18 4155.4,998.852 h 630.08 L 5100.52,453.18 4785.48,-92.4805 Z" /><path
         id="path96"
         style="fill:none;stroke:#808080;stroke-width:7.5;stroke-linecap:butt;stroke-linejoin:miter;stroke-miterlimit:10;stroke-dasharray:none;stroke-opacity:1"
         d="m 3214.52,5909.82 -315.04,545.67 315.04,545.66 h 630.08 l 315.04,-545.66 -315.04,-545.67 z" /><path
         id="path98"
         style="fill:none;stroke:#808080;stroke-width:7.5;stroke-linecap:butt;stroke-linejoin:miter;stroke-miterlimit:10;stroke-dasharray:none;stroke-opacity:1"
         d="m 3214.52,4818.5 -315.04,545.66 315.04,545.66 H 3844.6 L 4159.64,5364.16 3844.6,4818.5 Z" /><path
         id="path100"
         style="fill:none;stroke:#808080;stroke-width:7.5;stroke-linecap:butt;stroke-linejoin:miter;stroke-miterlimit:10;stroke-dasharray:none;stroke-opacity:1"
         d="m 3214.52,3727.17 -315.04,545.66 315.04,545.67 h 630.08 l 315.04,-545.67 -315.04,-545.66 z" /><path
         id="path102"
         style="fill:none;stroke:#808080;stroke-width:7.5;stroke-linecap:butt;stroke-linejoin:miter;stroke-miterlimit:10;stroke-dasharray:none;stroke-opacity:1"
         d="m 3214.52,2635.84 -315.04,545.66 315.04,545.67 H 3844.6 L 4159.64,3181.5 3844.6,2635.84 Z" /><path
         id="path104"
         style="fill:none;stroke:#808080;stroke-width:7.5;stroke-linecap:butt;stroke-linejoin:miter;stroke-miterlimit:10;stroke-dasharray:none;stroke-opacity:1"
         d="m 3214.52,1544.51 -315.04,545.67 315.04,545.66 h 630.08 l 315.04,-545.66 -315.04,-545.67 z" /><path
         id="path106"
         style="fill:none;stroke:#808080;stroke-width:7.5;stroke-linecap:butt;stroke-linejoin:miter;stroke-miterlimit:10;stroke-dasharray:none;stroke-opacity:1"
         d="m 3214.52,453.18 -315.04,545.672 315.04,545.658 H 3844.6 L 4159.64,998.852 3844.6,453.18 Z" /><path
         id="path108"
         style="fill:none;stroke:#808080;stroke-width:7.5;stroke-linecap:butt;stroke-linejoin:miter;stroke-miterlimit:10;stroke-dasharray:none;stroke-opacity:1"
         d="M 3214.52,-638.141 2899.48,-92.4805 3214.52,453.18 H 3844.6 L 4159.64,-92.4805 3844.6,-638.141 Z" /><path
         id="path110"
         style="fill:none;stroke:#808080;stroke-width:7.5;stroke-linecap:butt;stroke-linejoin:miter;stroke-miterlimit:10;stroke-dasharray:none;stroke-opacity:1"
         d="m 5104.32,7001.15 -315.04,545.67 315.04,545.66 h 630.07 l 315.04,-545.66 -315.04,-545.67 z" /><path
         id="path112"
         style="fill:none;stroke:#808080;stroke-width:7.5;stroke-linecap:butt;stroke-linejoin:miter;stroke-miterlimit:10;stroke-dasharray:none;stroke-opacity:1"
         d="m 6045.2,7546.82 -315.04,545.66 315.04,545.66 h 630.07 l 315.04,-545.66 -315.04,-545.66 z" /><path
         id="path114"
         style="fill:none;stroke:#808080;stroke-width:7.5;stroke-linecap:butt;stroke-linejoin:miter;stroke-miterlimit:10;stroke-dasharray:none;stroke-opacity:1"
         d="m 6045.2,6455.49 -315.04,545.66 315.04,545.67 h 630.07 l 315.04,-545.67 -315.04,-545.66 z" /><path
         id="path116"
         style="fill:none;stroke:#808080;stroke-width:7.5;stroke-linecap:butt;stroke-linejoin:miter;stroke-miterlimit:10;stroke-dasharray:none;stroke-opacity:1"
         d="m 6045.2,5364.16 -315.04,545.66 315.04,545.67 h 630.07 l 315.04,-545.67 -315.04,-545.66 z" /><path
         id="path118"
         style="fill:none;stroke:#808080;stroke-width:7.5;stroke-linecap:butt;stroke-linejoin:miter;stroke-miterlimit:10;stroke-dasharray:none;stroke-opacity:1"
         d="m 6045.2,4272.83 -315.04,545.67 315.04,545.66 h 630.07 l 315.04,-545.66 -315.04,-545.67 z" /><path
         id="path120"
         style="fill:none;stroke:#808080;stroke-width:7.5;stroke-linecap:butt;stroke-linejoin:miter;stroke-miterlimit:10;stroke-dasharray:none;stroke-opacity:1"
         d="m 6045.2,3181.5 -315.04,545.67 315.04,545.66 h 630.07 l 315.04,-545.66 -315.04,-545.67 z" /><path
         id="path122"
         style="fill:none;stroke:#808080;stroke-width:7.5;stroke-linecap:butt;stroke-linejoin:miter;stroke-miterlimit:10;stroke-dasharray:none;stroke-opacity:1"
         d="m 6045.2,2090.18 -315.04,545.66 315.04,545.66 h 630.07 l 315.04,-545.66 -315.04,-545.66 z" /><path
         id="path124"
         style="fill:none;stroke:#808080;stroke-width:7.5;stroke-linecap:butt;stroke-linejoin:miter;stroke-miterlimit:10;stroke-dasharray:none;stroke-opacity:1"
         d="m 6045.2,998.852 -315.04,545.658 315.04,545.67 h 630.07 l 315.04,-545.67 -315.04,-545.658 z" /><path
         id="path126"
         style="fill:none;stroke:#808080;stroke-width:7.5;stroke-linecap:butt;stroke-linejoin:miter;stroke-miterlimit:10;stroke-dasharray:none;stroke-opacity:1"
         d="M 6045.2,-92.4805 5730.16,453.18 6045.2,998.852 h 630.07 L 6990.31,453.18 6675.27,-92.4805 Z" /><path
         id="path128"
         style="fill:none;stroke:#808080;stroke-width:7.5;stroke-linecap:butt;stroke-linejoin:miter;stroke-miterlimit:10;stroke-dasharray:none;stroke-opacity:1"
         d="m 5104.32,5909.82 -315.04,545.67 315.04,545.66 h 630.07 l 315.04,-545.66 -315.04,-545.67 z" /><path
         id="path130"
         style="fill:none;stroke:#808080;stroke-width:7.5;stroke-linecap:butt;stroke-linejoin:miter;stroke-miterlimit:10;stroke-dasharray:none;stroke-opacity:1"
         d="m 5104.32,4818.5 -315.04,545.66 315.04,545.66 h 630.07 l 315.04,-545.66 -315.04,-545.66 z" /><path
         id="path132"
         style="fill:none;stroke:#808080;stroke-width:7.5;stroke-linecap:butt;stroke-linejoin:miter;stroke-miterlimit:10;stroke-dasharray:none;stroke-opacity:1"
         d="m 5104.32,3727.17 -315.04,545.66 315.04,545.67 h 630.07 l 315.04,-545.67 -315.04,-545.66 z" /><path
         id="path134"
         style="fill:none;stroke:#808080;stroke-width:7.5;stroke-linecap:butt;stroke-linejoin:miter;stroke-miterlimit:10;stroke-dasharray:none;stroke-opacity:1"
         d="m 5104.32,2635.84 -315.04,545.66 315.04,545.67 h 630.07 l 315.04,-545.67 -315.04,-545.66 z" /><path
         id="path136"
         style="fill:none;stroke:#808080;stroke-width:7.5;stroke-linecap:butt;stroke-linejoin:miter;stroke-miterlimit:10;stroke-dasharray:none;stroke-opacity:1"
         d="m 5104.32,1544.51 -315.04,545.67 315.04,545.66 h 630.07 l 315.04,-545.66 -315.04,-545.67 z" /><path
         id="path138"
         style="fill:none;stroke:#808080;stroke-width:7.5;stroke-linecap:butt;stroke-linejoin:miter;stroke-miterlimit:10;stroke-dasharray:none;stroke-opacity:1"
         d="m 5104.32,453.18 -315.04,545.672 315.04,545.658 h 630.07 L 6049.43,998.852 5734.39,453.18 Z" /><path
         id="path140"
         style="fill:none;stroke:#808080;stroke-width:7.5;stroke-linecap:butt;stroke-linejoin:miter;stroke-miterlimit:10;stroke-dasharray:none;stroke-opacity:1"
         d="M 5104.32,-638.141 4789.28,-92.4805 5104.32,453.18 h 630.07 L 6049.43,-92.4805 5734.39,-638.141 Z" /><path
         id="path142"
         style="fill:none;stroke:#808080;stroke-width:7.5;stroke-linecap:butt;stroke-linejoin:miter;stroke-miterlimit:10;stroke-dasharray:none;stroke-opacity:1"
         d="m 6994.11,7001.15 -315.04,545.67 315.04,545.66 h 630.08 l 315.04,-545.66 -315.04,-545.67 z" /><path
         id="path144"
         style="fill:none;stroke:#808080;stroke-width:7.5;stroke-linecap:butt;stroke-linejoin:miter;stroke-miterlimit:10;stroke-dasharray:none;stroke-opacity:1"
         d="m 7934.99,7546.82 -315.04,545.66 315.04,545.66 h 630.08 l 315.04,-545.66 -315.04,-545.66 z" /><path
         id="path146"
         style="fill:none;stroke:#808080;stroke-width:7.5;stroke-linecap:butt;stroke-linejoin:miter;stroke-miterlimit:10;stroke-dasharray:none;stroke-opacity:1"
         d="m 7934.99,6455.49 -315.04,545.66 315.04,545.67 h 630.08 l 315.04,-545.67 -315.04,-545.66 z" /><path
         id="path148"
         style="fill:none;stroke:#808080;stroke-width:7.5;stroke-linecap:butt;stroke-linejoin:miter;stroke-miterlimit:10;stroke-dasharray:none;stroke-opacity:1"
         d="m 7934.99,5364.16 -315.04,545.66 315.04,545.67 h 630.08 l 315.04,-545.67 -315.04,-545.66 z" /><path
         id="path150"
         style="fill:none;stroke:#808080;stroke-width:7.5;stroke-linecap:butt;stroke-linejoin:miter;stroke-miterlimit:10;stroke-dasharray:none;stroke-opacity:1"
         d="m 7934.99,4272.83 -315.04,545.67 315.04,545.66 h 630.08 l 315.04,-545.66 -315.04,-545.67 z" /><path
         id="path152"
         style="fill:none;stroke:#808080;stroke-width:7.5;stroke-linecap:butt;stroke-linejoin:miter;stroke-miterlimit:10;stroke-dasharray:none;stroke-opacity:1"
         d="m 7934.99,3181.5 -315.04,545.67 315.04,545.66 h 630.08 l 315.04,-545.66 -315.04,-545.67 z" /><path
         id="path154"
         style="fill:none;stroke:#808080;stroke-width:7.5;stroke-linecap:butt;stroke-linejoin:miter;stroke-miterlimit:10;stroke-dasharray:none;stroke-opacity:1"
         d="m 7934.99,2090.18 -315.04,545.66 315.04,545.66 h 630.08 l 315.04,-545.66 -315.04,-545.66 z" /><path
         id="path156"
         style="fill:none;stroke:#808080;stroke-width:7.5;stroke-linecap:butt;stroke-linejoin:miter;stroke-miterlimit:10;stroke-dasharray:none;stroke-opacity:1"
         d="m 7934.99,998.852 -315.04,545.658 315.04,545.67 h 630.08 l 315.04,-545.67 -315.04,-545.658 z" /><path
         id="path158"
         style="fill:none;stroke:#808080;stroke-width:7.5;stroke-linecap:butt;stroke-linejoin:miter;stroke-miterlimit:10;stroke-dasharray:none;stroke-opacity:1"
         d="M 7934.99,-92.4805 7619.95,453.18 7934.99,998.852 h 630.08 L 8880.11,453.18 8565.07,-92.4805 Z" /><path
         id="path160"
         style="fill:none;stroke:#808080;stroke-width:7.5;stroke-linecap:butt;stroke-linejoin:miter;stroke-miterlimit:10;stroke-dasharray:none;stroke-opacity:1"
         d="m 6994.11,5909.82 -315.04,545.67 315.04,545.66 h 630.08 l 315.04,-545.66 -315.04,-545.67 z" /><path
         id="path162"
         style="fill:none;stroke:#808080;stroke-width:7.5;stroke-linecap:butt;stroke-linejoin:miter;stroke-miterlimit:10;stroke-dasharray:none;stroke-opacity:1"
         d="m 6994.11,4818.5 -315.04,545.66 315.04,545.66 h 630.08 l 315.04,-545.66 -315.04,-545.66 z" /><path
         id="path164"
         style="fill:none;stroke:#808080;stroke-width:7.5;stroke-linecap:butt;stroke-linejoin:miter;stroke-miterlimit:10;stroke-dasharray:none;stroke-opacity:1"
         d="m 6994.11,3727.17 -315.04,545.66 315.04,545.67 h 630.08 l 315.04,-545.67 -315.04,-545.66 z" /><path
         id="path166"
         style="fill:none;stroke:#808080;stroke-width:7.5;stroke-linecap:butt;stroke-linejoin:miter;stroke-miterlimit:10;stroke-dasharray:none;stroke-opacity:1"
         d="m 6994.11,2635.84 -315.04,545.66 315.04,545.67 h 630.08 l 315.04,-545.67 -315.04,-545.66 z" /><path
         id="path168"
         style="fill:none;stroke:#808080;stroke-width:7.5;stroke-linecap:butt;stroke-linejoin:miter;stroke-miterlimit:10;stroke-dasharray:none;stroke-opacity:1"
         d="m 6994.11,1544.51 -315.04,545.67 315.04,545.66 h 630.08 l 315.04,-545.66 -315.04,-545.67 z" /><path
         id="path170"
         style="fill:none;stroke:#808080;stroke-width:7.5;stroke-linecap:butt;stroke-linejoin:miter;stroke-miterlimit:10;stroke-dasharray:none;stroke-opacity:1"
         d="m 6994.11,453.18 -315.04,545.672 315.04,545.658 h 630.08 L 7939.23,998.852 7624.19,453.18 Z" /><path
         id="path172"
         style="fill:none;stroke:#808080;stroke-width:7.5;stroke-linecap:butt;stroke-linejoin:miter;stroke-miterlimit:10;stroke-dasharray:none;stroke-opacity:1"
         d="M 6994.11,-638.141 6679.07,-92.4805 6994.11,453.18 h 630.08 L 7939.23,-92.4805 7624.19,-638.141 Z" /><path
         id="path174"
         style="fill:none;stroke:#cccccc;stroke-width:7.5;stroke-linecap:butt;stroke-linejoin:miter;stroke-miterlimit:10;stroke-dasharray:none;stroke-opacity:1"
         d="m -884.348,7546.82 -315.032,545.66 315.032,545.66 H -254.27 L 60.7734,8092.48 -254.27,7546.82 Z" /><path
         id="path176"
         style="fill:none;stroke:#cccccc;stroke-width:7.5;stroke-linecap:butt;stroke-linejoin:miter;stroke-miterlimit:10;stroke-dasharray:none;stroke-opacity:1"
         d="m -884.348,6455.49 -315.032,545.66 315.032,545.67 H -254.27 L 60.7734,7001.15 -254.27,6455.49 Z" /><path
         id="path178"
         style="fill:none;stroke:#cccccc;stroke-width:7.5;stroke-linecap:butt;stroke-linejoin:miter;stroke-miterlimit:10;stroke-dasharray:none;stroke-opacity:1"
         d="m -884.348,5364.16 -315.032,545.66 315.032,545.67 H -254.27 L 60.7734,5909.82 -254.27,5364.16 Z" /><path
         id="path180"
         style="fill:none;stroke:#cccccc;stroke-width:7.5;stroke-linecap:butt;stroke-linejoin:miter;stroke-miterlimit:10;stroke-dasharray:none;stroke-opacity:1"
         d="m -884.348,4272.83 -315.032,545.67 315.032,545.66 H -254.27 L 60.7734,4818.5 -254.27,4272.83 Z" /><path
         id="path182"
         style="fill:none;stroke:#cccccc;stroke-width:7.5;stroke-linecap:butt;stroke-linejoin:miter;stroke-miterlimit:10;stroke-dasharray:none;stroke-opacity:1"
         d="m -884.348,3181.5 -315.032,545.67 315.032,545.66 H -254.27 L 60.7734,3727.17 -254.27,3181.5 Z" /><path
         id="path184"
         style="fill:none;stroke:#cccccc;stroke-width:7.5;stroke-linecap:butt;stroke-linejoin:miter;stroke-miterlimit:10;stroke-dasharray:none;stroke-opacity:1"
         d="m -884.348,2090.18 -315.032,545.66 315.032,545.66 H -254.27 L 60.7734,2635.84 -254.27,2090.18 Z" /><path
         id="path186"
         style="fill:none;stroke:#cccccc;stroke-width:7.5;stroke-linecap:butt;stroke-linejoin:miter;stroke-miterlimit:10;stroke-dasharray:none;stroke-opacity:1"
         d="m -884.348,998.852 -315.032,545.658 315.032,545.67 H -254.27 L 60.7734,1544.51 -254.27,998.852 Z" /><path
         id="path188"
         style="fill:none;stroke:#cccccc;stroke-width:7.5;stroke-linecap:butt;stroke-linejoin:miter;stroke-miterlimit:10;stroke-dasharray:none;stroke-opacity:1"
         d="M -884.348,-92.4805 -1199.38,453.18 -884.348,998.852 H -254.27 L 60.7734,453.18 -254.27,-92.4805 Z" /><path
         id="path190"
         style="fill:none;stroke:#cccccc;stroke-width:7.5;stroke-linecap:butt;stroke-linejoin:miter;stroke-miterlimit:10;stroke-dasharray:none;stroke-opacity:1"
         d="M 64.5703,7001.15 -250.469,7546.82 64.5703,8092.48 H 694.648 L 1009.69,7546.82 694.648,7001.15 Z" /><path
         id="path192"
         style="fill:none;stroke:#cccccc;stroke-width:7.5;stroke-linecap:butt;stroke-linejoin:miter;stroke-miterlimit:10;stroke-dasharray:none;stroke-opacity:1"
         d="m 1005.45,7546.82 -315.04,545.66 315.04,545.66 h 630.08 l 315.04,-545.66 -315.04,-545.66 z" /><path
         id="path194"
         style="fill:none;stroke:#cccccc;stroke-width:7.5;stroke-linecap:butt;stroke-linejoin:miter;stroke-miterlimit:10;stroke-dasharray:none;stroke-opacity:1"
         d="m 1005.45,6455.49 -315.04,545.66 315.04,545.67 h 630.08 l 315.04,-545.67 -315.04,-545.66 z" /><path
         id="path196"
         style="fill:none;stroke:#cccccc;stroke-width:7.5;stroke-linecap:butt;stroke-linejoin:miter;stroke-miterlimit:10;stroke-dasharray:none;stroke-opacity:1"
         d="m 1005.45,5364.16 -315.04,545.66 315.04,545.67 h 630.08 l 315.04,-545.67 -315.04,-545.66 z" /><path
         id="path198"
         style="fill:none;stroke:#cccccc;stroke-width:7.5;stroke-linecap:butt;stroke-linejoin:miter;stroke-miterlimit:10;stroke-dasharray:none;stroke-opacity:1"
         d="m 1005.45,4272.83 -315.04,545.67 315.04,545.66 h 630.08 l 315.04,-545.66 -315.04,-545.67 z" /><path
         id="path200"
         style="fill:none;stroke:#cccccc;stroke-width:7.5;stroke-linecap:butt;stroke-linejoin:miter;stroke-miterlimit:10;stroke-dasharray:none;stroke-opacity:1"
         d="m 1005.45,3181.5 -315.04,545.67 315.04,545.66 h 630.08 l 315.04,-545.66 -315.04,-545.67 z" /><path
         id="path202"
         style="fill:none;stroke:#cccccc;stroke-width:7.5;stroke-linecap:butt;stroke-linejoin:miter;stroke-miterlimit:10;stroke-dasharray:none;stroke-opacity:1"
         d="m 1005.45,2090.18 -315.04,545.66 315.04,545.66 h 630.08 l 315.04,-545.66 -315.04,-545.66 z" /><path
         id="path204"
         style="fill:none;stroke:#cccccc;stroke-width:7.5;stroke-linecap:butt;stroke-linejoin:miter;stroke-miterlimit:10;stroke-dasharray:none;stroke-opacity:1"
         d="m 1005.45,998.852 -315.04,545.658 315.04,545.67 h 630.08 l 315.04,-545.67 -315.04,-545.658 z" /><path
         id="path206"
         style="fill:none;stroke:#cccccc;stroke-width:7.5;stroke-linecap:butt;stroke-linejoin:miter;stroke-miterlimit:10;stroke-dasharray:none;stroke-opacity:1"
         d="M 1005.45,-92.4805 690.41,453.18 1005.45,998.852 h 630.08 L 1950.57,453.18 1635.53,-92.4805 Z" /><path
         id="path208"
         style="fill:none;stroke:#cccccc;stroke-width:7.5;stroke-linecap:butt;stroke-linejoin:miter;stroke-miterlimit:10;stroke-dasharray:none;stroke-opacity:1"
         d="M 64.5703,5909.82 -250.469,6455.49 64.5703,7001.15 H 694.648 L 1009.69,6455.49 694.648,5909.82 Z" /><path
         id="path210"
         style="fill:none;stroke:#cccccc;stroke-width:7.5;stroke-linecap:butt;stroke-linejoin:miter;stroke-miterlimit:10;stroke-dasharray:none;stroke-opacity:1"
         d="M 64.5703,4818.5 -250.469,5364.16 64.5703,5909.82 H 694.648 L 1009.69,5364.16 694.648,4818.5 Z" /><path
         id="path212"
         style="fill:none;stroke:#cccccc;stroke-width:7.5;stroke-linecap:butt;stroke-linejoin:miter;stroke-miterlimit:10;stroke-dasharray:none;stroke-opacity:1"
         d="M 64.5703,3727.17 -250.469,4272.83 64.5703,4818.5 H 694.648 L 1009.69,4272.83 694.648,3727.17 Z" /><path
         id="path214"
         style="fill:none;stroke:#cccccc;stroke-width:7.5;stroke-linecap:butt;stroke-linejoin:miter;stroke-miterlimit:10;stroke-dasharray:none;stroke-opacity:1"
         d="M 64.5703,2635.84 -250.469,3181.5 64.5703,3727.17 H 694.648 L 1009.69,3181.5 694.648,2635.84 Z" /><path
         id="path216"
         style="fill:none;stroke:#cccccc;stroke-width:7.5;stroke-linecap:butt;stroke-linejoin:miter;stroke-miterlimit:10;stroke-dasharray:none;stroke-opacity:1"
         d="M 64.5703,1544.51 -250.469,2090.18 64.5703,2635.84 H 694.648 L 1009.69,2090.18 694.648,1544.51 Z" /><path
         id="path218"
         style="fill:none;stroke:#cccccc;stroke-width:7.5;stroke-linecap:butt;stroke-linejoin:miter;stroke-miterlimit:10;stroke-dasharray:none;stroke-opacity:1"
         d="M 64.5703,453.18 -250.469,998.852 64.5703,1544.51 H 694.648 L 1009.69,998.852 694.648,453.18 Z" /><path
         id="path220"
         style="fill:none;stroke:#cccccc;stroke-width:7.5;stroke-linecap:butt;stroke-linejoin:miter;stroke-miterlimit:10;stroke-dasharray:none;stroke-opacity:1"
         d="M 64.5703,-638.141 -250.469,-92.4805 64.5703,453.18 H 694.648 L 1009.69,-92.4805 694.648,-638.141 Z" /><path
         id="path222"
         style="fill:none;stroke:#cccccc;stroke-width:7.5;stroke-linecap:butt;stroke-linejoin:miter;stroke-miterlimit:10;stroke-dasharray:none;stroke-opacity:1"
         d="m 1954.37,7001.15 -315.04,545.67 315.04,545.66 h 630.07 l 315.04,-545.66 -315.04,-545.67 z" /><path
         id="path224"
         style="fill:none;stroke:#cccccc;stroke-width:7.5;stroke-linecap:butt;stroke-linejoin:miter;stroke-miterlimit:10;stroke-dasharray:none;stroke-opacity:1"
         d="m 2895.24,7546.82 -315.03,545.66 315.03,545.66 h 630.08 l 315.04,-545.66 -315.04,-545.66 z" /><path
         id="path226"
         style="fill:none;stroke:#cccccc;stroke-width:7.5;stroke-linecap:butt;stroke-linejoin:miter;stroke-miterlimit:10;stroke-dasharray:none;stroke-opacity:1"
         d="m 2895.24,6455.49 -315.03,545.66 315.03,545.67 h 630.08 l 315.04,-545.67 -315.04,-545.66 z" /><path
         id="path228"
         style="fill:none;stroke:#cccccc;stroke-width:7.5;stroke-linecap:butt;stroke-linejoin:miter;stroke-miterlimit:10;stroke-dasharray:none;stroke-opacity:1"
         d="m 2895.24,5364.16 -315.03,545.66 315.03,545.67 h 630.08 l 315.04,-545.67 -315.04,-545.66 z" /><path
         id="path230"
         style="fill:none;stroke:#cccccc;stroke-width:7.5;stroke-linecap:butt;stroke-linejoin:miter;stroke-miterlimit:10;stroke-dasharray:none;stroke-opacity:1"
         d="m 2895.24,4272.83 -315.03,545.67 315.03,545.66 h 630.08 l 315.04,-545.66 -315.04,-545.67 z" /><path
         id="path232"
         style="fill:none;stroke:#cccccc;stroke-width:7.5;stroke-linecap:butt;stroke-linejoin:miter;stroke-miterlimit:10;stroke-dasharray:none;stroke-opacity:1"
         d="m 2895.24,3181.5 -315.03,545.67 315.03,545.66 h 630.08 l 315.04,-545.66 -315.04,-545.67 z" /><path
         id="path234"
         style="fill:none;stroke:#cccccc;stroke-width:7.5;stroke-linecap:butt;stroke-linejoin:miter;stroke-miterlimit:10;stroke-dasharray:none;stroke-opacity:1"
         d="m 2895.24,2090.18 -315.03,545.66 315.03,545.66 h 630.08 l 315.04,-545.66 -315.04,-545.66 z" /><path
         id="path236"
         style="fill:none;stroke:#cccccc;stroke-width:7.5;stroke-linecap:butt;stroke-linejoin:miter;stroke-miterlimit:10;stroke-dasharray:none;stroke-opacity:1"
         d="m 2895.24,998.852 -315.03,545.658 315.03,545.67 h 630.08 l 315.04,-545.67 -315.04,-545.658 z" /><path
         id="path238"
         style="fill:none;stroke:#cccccc;stroke-width:7.5;stroke-linecap:butt;stroke-linejoin:miter;stroke-miterlimit:10;stroke-dasharray:none;stroke-opacity:1"
         d="M 2895.24,-92.4805 2580.21,453.18 2895.24,998.852 h 630.08 L 3840.36,453.18 3525.32,-92.4805 Z" /><path
         id="path240"
         style="fill:none;stroke:#cccccc;stroke-width:7.5;stroke-linecap:butt;stroke-linejoin:miter;stroke-miterlimit:10;stroke-dasharray:none;stroke-opacity:1"
         d="m 1954.37,5909.82 -315.04,545.67 315.04,545.66 h 630.07 l 315.04,-545.66 -315.04,-545.67 z" /><path
         id="path242"
         style="fill:none;stroke:#cccccc;stroke-width:7.5;stroke-linecap:butt;stroke-linejoin:miter;stroke-miterlimit:10;stroke-dasharray:none;stroke-opacity:1"
         d="m 1954.37,4818.5 -315.04,545.66 315.04,545.66 h 630.07 l 315.04,-545.66 -315.04,-545.66 z" /><path
         id="path244"
         style="fill:none;stroke:#cccccc;stroke-width:7.5;stroke-linecap:butt;stroke-linejoin:miter;stroke-miterlimit:10;stroke-dasharray:none;stroke-opacity:1"
         d="m 1954.37,3727.17 -315.04,545.66 315.04,545.67 h 630.07 l 315.04,-545.67 -315.04,-545.66 z" /><path
         id="path246"
         style="fill:none;stroke:#cccccc;stroke-width:7.5;stroke-linecap:butt;stroke-linejoin:miter;stroke-miterlimit:10;stroke-dasharray:none;stroke-opacity:1"
         d="m 1954.37,2635.84 -315.04,545.66 315.04,545.67 h 630.07 l 315.04,-545.67 -315.04,-545.66 z" /><path
         id="path248"
         style="fill:none;stroke:#cccccc;stroke-width:7.5;stroke-linecap:butt;stroke-linejoin:miter;stroke-miterlimit:10;stroke-dasharray:none;stroke-opacity:1"
         d="m 1954.37,1544.51 -315.04,545.67 315.04,545.66 h 630.07 l 315.04,-545.66 -315.04,-545.67 z" /><path
         id="path250"
         style="fill:none;stroke:#cccccc;stroke-width:7.5;stroke-linecap:butt;stroke-linejoin:miter;stroke-miterlimit:10;stroke-dasharray:none;stroke-opacity:1"
         d="m 1954.37,453.18 -315.04,545.672 315.04,545.658 h 630.07 L 2899.48,998.852 2584.44,453.18 Z" /><path
         id="path252"
         style="fill:none;stroke:#cccccc;stroke-width:7.5;stroke-linecap:butt;stroke-linejoin:miter;stroke-miterlimit:10;stroke-dasharray:none;stroke-opacity:1"
         d="M 1954.37,-638.141 1639.33,-92.4805 1954.37,453.18 h 630.07 L 2899.48,-92.4805 2584.44,-638.141 Z" /><path
         id="path254"
         style="fill:none;stroke:#cccccc;stroke-width:7.5;stroke-linecap:butt;stroke-linejoin:miter;stroke-miterlimit:10;stroke-dasharray:none;stroke-opacity:1"
         d="m 3844.16,7001.15 -315.04,545.67 315.04,545.66 h 630.08 l 315.04,-545.66 -315.04,-545.67 z" /><path
         id="path256"
         style="fill:none;stroke:#cccccc;stroke-width:7.5;stroke-linecap:butt;stroke-linejoin:miter;stroke-miterlimit:10;stroke-dasharray:none;stroke-opacity:1"
         d="m 4785.04,7546.82 -315.04,545.66 315.04,545.66 h 630.08 l 315.04,-545.66 -315.04,-545.66 z" /><path
         id="path258"
         style="fill:none;stroke:#cccccc;stroke-width:7.5;stroke-linecap:butt;stroke-linejoin:miter;stroke-miterlimit:10;stroke-dasharray:none;stroke-opacity:1"
         d="m 4785.04,6455.49 -315.04,545.66 315.04,545.67 h 630.08 l 315.04,-545.67 -315.04,-545.66 z" /><path
         id="path260"
         style="fill:none;stroke:#cccccc;stroke-width:7.5;stroke-linecap:butt;stroke-linejoin:miter;stroke-miterlimit:10;stroke-dasharray:none;stroke-opacity:1"
         d="m 4785.04,5364.16 -315.04,545.66 315.04,545.67 h 630.08 l 315.04,-545.67 -315.04,-545.66 z" /><path
         id="path262"
         style="fill:none;stroke:#cccccc;stroke-width:7.5;stroke-linecap:butt;stroke-linejoin:miter;stroke-miterlimit:10;stroke-dasharray:none;stroke-opacity:1"
         d="M 4785.04,4272.83 4470,4818.5 l 315.04,545.66 h 630.08 l 315.04,-545.66 -315.04,-545.67 z" /><path
         id="path264"
         style="fill:none;stroke:#cccccc;stroke-width:7.5;stroke-linecap:butt;stroke-linejoin:miter;stroke-miterlimit:10;stroke-dasharray:none;stroke-opacity:1"
         d="m 4785.04,3181.5 -315.04,545.67 315.04,545.66 h 630.08 l 315.04,-545.66 -315.04,-545.67 z" /><path
         id="path266"
         style="fill:none;stroke:#cccccc;stroke-width:7.5;stroke-linecap:butt;stroke-linejoin:miter;stroke-miterlimit:10;stroke-dasharray:none;stroke-opacity:1"
         d="M 4785.04,2090.18 4470,2635.84 4785.04,3181.5 h 630.08 l 315.04,-545.66 -315.04,-545.66 z" /><path
         id="path268"
         style="fill:none;stroke:#cccccc;stroke-width:7.5;stroke-linecap:butt;stroke-linejoin:miter;stroke-miterlimit:10;stroke-dasharray:none;stroke-opacity:1"
         d="M 4785.04,998.852 4470,1544.51 l 315.04,545.67 h 630.08 l 315.04,-545.67 -315.04,-545.658 z" /><path
         id="path270"
         style="fill:none;stroke:#cccccc;stroke-width:7.5;stroke-linecap:butt;stroke-linejoin:miter;stroke-miterlimit:10;stroke-dasharray:none;stroke-opacity:1"
         d="M 4785.04,-92.4805 4470,453.18 4785.04,998.852 h 630.08 L 5730.16,453.18 5415.12,-92.4805 Z" /><path
         id="path272"
         style="fill:none;stroke:#cccccc;stroke-width:7.5;stroke-linecap:butt;stroke-linejoin:miter;stroke-miterlimit:10;stroke-dasharray:none;stroke-opacity:1"
         d="m 3844.16,5909.82 -315.04,545.67 315.04,545.66 h 630.08 l 315.04,-545.66 -315.04,-545.67 z" /><path
         id="path274"
         style="fill:none;stroke:#cccccc;stroke-width:7.5;stroke-linecap:butt;stroke-linejoin:miter;stroke-miterlimit:10;stroke-dasharray:none;stroke-opacity:1"
         d="m 3844.16,4818.5 -315.04,545.66 315.04,545.66 h 630.08 l 315.04,-545.66 -315.04,-545.66 z" /><path
         id="path276"
         style="fill:none;stroke:#cccccc;stroke-width:7.5;stroke-linecap:butt;stroke-linejoin:miter;stroke-miterlimit:10;stroke-dasharray:none;stroke-opacity:1"
         d="m 3844.16,3727.17 -315.04,545.66 315.04,545.67 h 630.08 l 315.04,-545.67 -315.04,-545.66 z" /><path
         id="path278"
         style="fill:none;stroke:#cccccc;stroke-width:7.5;stroke-linecap:butt;stroke-linejoin:miter;stroke-miterlimit:10;stroke-dasharray:none;stroke-opacity:1"
         d="m 3844.16,2635.84 -315.04,545.66 315.04,545.67 h 630.08 l 315.04,-545.67 -315.04,-545.66 z" /><path
         id="path280"
         style="fill:none;stroke:#cccccc;stroke-width:7.5;stroke-linecap:butt;stroke-linejoin:miter;stroke-miterlimit:10;stroke-dasharray:none;stroke-opacity:1"
         d="m 3844.16,1544.51 -315.04,545.67 315.04,545.66 h 630.08 l 315.04,-545.66 -315.04,-545.67 z" /><path
         id="path282"
         style="fill:none;stroke:#cccccc;stroke-width:7.5;stroke-linecap:butt;stroke-linejoin:miter;stroke-miterlimit:10;stroke-dasharray:none;stroke-opacity:1"
         d="m 3844.16,453.18 -315.04,545.672 315.04,545.658 h 630.08 L 4789.28,998.852 4474.24,453.18 Z" /><path
         id="path284"
         style="fill:none;stroke:#cccccc;stroke-width:7.5;stroke-linecap:butt;stroke-linejoin:miter;stroke-miterlimit:10;stroke-dasharray:none;stroke-opacity:1"
         d="M 3844.16,-638.141 3529.12,-92.4805 3844.16,453.18 h 630.08 L 4789.28,-92.4805 4474.24,-638.141 Z" /><path
         id="path286"
         style="fill:none;stroke:#cccccc;stroke-width:7.5;stroke-linecap:butt;stroke-linejoin:miter;stroke-miterlimit:10;stroke-dasharray:none;stroke-opacity:1"
         d="m 5733.96,7001.15 -315.04,545.67 315.04,545.66 h 630.07 l 315.04,-545.66 -315.04,-545.67 z" /><path
         id="path288"
         style="fill:none;stroke:#cccccc;stroke-width:7.5;stroke-linecap:butt;stroke-linejoin:miter;stroke-miterlimit:10;stroke-dasharray:none;stroke-opacity:1"
         d="m 6674.83,7546.82 -315.04,545.66 315.04,545.66 h 630.08 l 315.04,-545.66 -315.04,-545.66 z" /><path
         id="path290"
         style="fill:none;stroke:#cccccc;stroke-width:7.5;stroke-linecap:butt;stroke-linejoin:miter;stroke-miterlimit:10;stroke-dasharray:none;stroke-opacity:1"
         d="m 6674.83,6455.49 -315.04,545.66 315.04,545.67 h 630.08 l 315.04,-545.67 -315.04,-545.66 z" /><path
         id="path292"
         style="fill:none;stroke:#cccccc;stroke-width:7.5;stroke-linecap:butt;stroke-linejoin:miter;stroke-miterlimit:10;stroke-dasharray:none;stroke-opacity:1"
         d="m 6674.83,5364.16 -315.04,545.66 315.04,545.67 h 630.08 l 315.04,-545.67 -315.04,-545.66 z" /><path
         id="path294"
         style="fill:none;stroke:#cccccc;stroke-width:7.5;stroke-linecap:butt;stroke-linejoin:miter;stroke-miterlimit:10;stroke-dasharray:none;stroke-opacity:1"
         d="m 6674.83,4272.83 -315.04,545.67 315.04,545.66 h 630.08 l 315.04,-545.66 -315.04,-545.67 z" /><path
         id="path296"
         style="fill:none;stroke:#cccccc;stroke-width:7.5;stroke-linecap:butt;stroke-linejoin:miter;stroke-miterlimit:10;stroke-dasharray:none;stroke-opacity:1"
         d="m 6674.83,3181.5 -315.04,545.67 315.04,545.66 h 630.08 l 315.04,-545.66 -315.04,-545.67 z" /><path
         id="path298"
         style="fill:none;stroke:#cccccc;stroke-width:7.5;stroke-linecap:butt;stroke-linejoin:miter;stroke-miterlimit:10;stroke-dasharray:none;stroke-opacity:1"
         d="m 6674.83,2090.18 -315.04,545.66 315.04,545.66 h 630.08 l 315.04,-545.66 -315.04,-545.66 z" /><path
         id="path300"
         style="fill:none;stroke:#cccccc;stroke-width:7.5;stroke-linecap:butt;stroke-linejoin:miter;stroke-miterlimit:10;stroke-dasharray:none;stroke-opacity:1"
         d="m 6674.83,998.852 -315.04,545.658 315.04,545.67 h 630.08 l 315.04,-545.67 -315.04,-545.658 z" /><path
         id="path302"
         style="fill:none;stroke:#cccccc;stroke-width:7.5;stroke-linecap:butt;stroke-linejoin:miter;stroke-miterlimit:10;stroke-dasharray:none;stroke-opacity:1"
         d="M 6674.83,-92.4805 6359.79,453.18 6674.83,998.852 h 630.08 L 7619.95,453.18 7304.91,-92.4805 Z" /><path
         id="path304"
         style="fill:none;stroke:#cccccc;stroke-width:7.5;stroke-linecap:butt;stroke-linejoin:miter;stroke-miterlimit:10;stroke-dasharray:none;stroke-opacity:1"
         d="m 5733.96,5909.82 -315.04,545.67 315.04,545.66 h 630.07 l 315.04,-545.66 -315.04,-545.67 z" /><path
         id="path306"
         style="fill:none;stroke:#cccccc;stroke-width:7.5;stroke-linecap:butt;stroke-linejoin:miter;stroke-miterlimit:10;stroke-dasharray:none;stroke-opacity:1"
         d="m 5733.96,4818.5 -315.04,545.66 315.04,545.66 h 630.07 l 315.04,-545.66 -315.04,-545.66 z" /><path
         id="path308"
         style="fill:none;stroke:#cccccc;stroke-width:7.5;stroke-linecap:butt;stroke-linejoin:miter;stroke-miterlimit:10;stroke-dasharray:none;stroke-opacity:1"
         d="m 5733.96,3727.17 -315.04,545.66 315.04,545.67 h 630.07 l 315.04,-545.67 -315.04,-545.66 z" /><path
         id="path310"
         style="fill:none;stroke:#cccccc;stroke-width:7.5;stroke-linecap:butt;stroke-linejoin:miter;stroke-miterlimit:10;stroke-dasharray:none;stroke-opacity:1"
         d="m 5733.96,2635.84 -315.04,545.66 315.04,545.67 h 630.07 l 315.04,-545.67 -315.04,-545.66 z" /><path
         id="path312"
         style="fill:none;stroke:#cccccc;stroke-width:7.5;stroke-linecap:butt;stroke-linejoin:miter;stroke-miterlimit:10;stroke-dasharray:none;stroke-opacity:1"
         d="m 5733.96,1544.51 -315.04,545.67 315.04,545.66 h 630.07 l 315.04,-545.66 -315.04,-545.67 z" /><path
         id="path314"
         style="fill:none;stroke:#cccccc;stroke-width:7.5;stroke-linecap:butt;stroke-linejoin:miter;stroke-miterlimit:10;stroke-dasharray:none;stroke-opacity:1"
         d="m 5733.96,453.18 -315.04,545.672 315.04,545.658 h 630.07 L 6679.07,998.852 6364.03,453.18 Z" /><path
         id="path316"
         style="fill:none;stroke:#cccccc;stroke-width:7.5;stroke-linecap:butt;stroke-linejoin:miter;stroke-miterlimit:10;stroke-dasharray:none;stroke-opacity:1"
         d="M 5733.96,-638.141 5418.92,-92.4805 5733.96,453.18 h 630.07 L 6679.07,-92.4805 6364.03,-638.141 Z" /><path
         id="path318"
         style="fill:#999999;fill-opacity:1;fill-rule:nonzero;stroke:none"
         d="m 380.051,7590.1 c -23.867,0 -43.289,-19.42 -43.289,-43.28 0,-23.87 19.422,-43.29 43.289,-43.29 23.867,0 43.285,19.42 43.285,43.29 0,23.86 -19.418,43.28 -43.285,43.28 z m 0,-10 c 18.383,0 33.285,-14.9 33.285,-33.28 0,-18.39 -14.902,-33.29 -33.285,-33.29 -18.387,0 -33.289,14.9 -33.289,33.29 0,18.38 14.902,33.28 33.289,33.28" /><path
         id="path320"
         style="fill:#999999;fill-opacity:1;fill-rule:nonzero;stroke:none"
         d="m 1009.69,7590.1 c -23.87,0 -43.288,-19.42 -43.288,-43.28 0,-23.87 19.418,-43.29 43.288,-43.29 23.86,0 43.28,19.42 43.28,43.29 0,23.86 -19.42,43.28 -43.28,43.28 z m 0,-10 c 18.38,0 33.28,-14.9 33.28,-33.28 0,-18.39 -14.9,-33.29 -33.28,-33.29 -18.385,0 -33.288,14.9 -33.288,33.29 0,18.38 14.903,33.28 33.288,33.28" /><path
         id="path322"
         style="fill:#999999;fill-opacity:1;fill-rule:nonzero;stroke:none"
         d="m 2265.83,7590.1 c -23.87,0 -43.29,-19.42 -43.29,-43.28 0,-23.87 19.42,-43.29 43.29,-43.29 23.86,0 43.28,19.42 43.28,43.29 0,23.86 -19.42,43.28 -43.28,43.28 z m 0,-10 c 18.38,0 33.28,-14.9 33.28,-33.28 0,-18.39 -14.9,-33.29 -33.28,-33.29 -18.39,0 -33.29,14.9 -33.29,33.29 0,18.38 14.9,33.28 33.29,33.28" /><path
         id="path324"
         style="fill:#999999;fill-opacity:1;fill-rule:nonzero;stroke:none"
         d="m 2895.46,7590.1 c -23.86,0 -43.28,-19.42 -43.28,-43.28 0,-23.87 19.42,-43.29 43.28,-43.29 23.87,0 43.29,19.42 43.29,43.29 0,23.86 -19.42,43.28 -43.29,43.28 z m 0,-10 c 18.39,0 33.29,-14.9 33.29,-33.28 0,-18.39 -14.9,-33.29 -33.29,-33.29 -18.38,0 -33.28,14.9 -33.28,33.29 0,18.38 14.9,33.28 33.28,33.28" /><path
         id="path326"
         style="fill:#999999;fill-opacity:1;fill-rule:nonzero;stroke:none"
         d="m 4151.6,7590.1 c -23.87,0 -43.28,-19.42 -43.28,-43.28 0,-23.87 19.41,-43.29 43.28,-43.29 23.87,0 43.28,19.42 43.28,43.29 0,23.86 -19.41,43.28 -43.28,43.28 z m 0,-10 c 18.38,0 33.28,-14.9 33.28,-33.28 0,-18.39 -14.9,-33.29 -33.28,-33.29 -18.38,0 -33.28,14.9 -33.28,33.29 0,18.38 14.9,33.28 33.28,33.28" /><path
         id="path328"
         style="fill:#999999;fill-opacity:1;fill-rule:nonzero;stroke:none"
         d="m 4781.24,7590.1 c -23.87,0 -43.29,-19.42 -43.29,-43.28 0,-23.87 19.42,-43.29 43.29,-43.29 23.87,0 43.29,19.42 43.29,43.29 0,23.86 -19.42,43.28 -43.29,43.28 z m 0,-10 c 18.39,0 33.29,-14.9 33.29,-33.28 0,-18.39 -14.9,-33.29 -33.29,-33.29 -18.39,0 -33.29,14.9 -33.29,33.29 0,18.38 14.9,33.28 33.29,33.28" /><path
         id="path330"
         style="fill:#999999;fill-opacity:1;fill-rule:nonzero;stroke:none"
         d="m 6037.38,7590.1 c -23.86,0 -43.28,-19.42 -43.28,-43.28 0,-23.87 19.42,-43.29 43.28,-43.29 23.87,0 43.28,19.42 43.28,43.29 0,23.86 -19.41,43.28 -43.28,43.28 z m 0,-10 c 18.38,0 33.28,-14.9 33.28,-33.28 0,-18.39 -14.9,-33.29 -33.28,-33.29 -18.38,0 -33.28,14.9 -33.28,33.29 0,18.38 14.9,33.28 33.28,33.28" /><path
         id="path332"
         style="fill:#999999;fill-opacity:1;fill-rule:nonzero;stroke:none"
         d="m 6667.01,7590.1 c -23.87,0 -43.28,-19.42 -43.28,-43.28 0,-23.87 19.41,-43.29 43.28,-43.29 23.88,0 43.3,19.42 43.3,43.29 0,23.86 -19.42,43.28 -43.3,43.28 z m 0,-10 c 18.4,0 33.3,-14.9 33.3,-33.28 0,-18.39 -14.9,-33.29 -33.3,-33.29 -18.38,0 -33.28,14.9 -33.28,33.29 0,18.38 14.9,33.28 33.28,33.28" /><path
         id="path334"
         style="fill:#999999;fill-opacity:1;fill-rule:nonzero;stroke:none"
         d="m 7923.16,7590.1 c -23.86,0 -43.28,-19.42 -43.28,-43.28 0,-23.87 19.42,-43.29 43.28,-43.29 23.87,0 43.29,19.42 43.29,43.29 0,23.86 -19.42,43.28 -43.29,43.28 z m 0,-10 c 18.38,0 33.29,-14.9 33.29,-33.28 0,-18.39 -14.91,-33.29 -33.29,-33.29 -18.37,0 -33.28,14.9 -33.28,33.29 0,18.38 14.91,33.28 33.28,33.28" /><path
         id="path336"
         style="fill:#999999;fill-opacity:1;fill-rule:nonzero;stroke:none"
         d="m 72.8242,7044.44 c -23.8672,0 -43.289,-19.42 -43.289,-43.29 0,-23.86 19.4218,-43.28 43.289,-43.28 23.8672,0 43.2848,19.42 43.2848,43.28 0,23.87 -19.4176,43.29 -43.2848,43.29 z m 0,-10 c 18.3828,0 33.2848,-14.9 33.2848,-33.29 0,-18.38 -14.902,-33.28 -33.2848,-33.28 -18.3867,0 -33.289,14.9 -33.289,33.28 0,18.39 14.9023,33.29 33.289,33.29" /><path
         id="path338"
         style="fill:#999999;fill-opacity:1;fill-rule:nonzero;stroke:none"
         d="m 1328.96,7044.44 c -23.87,0 -43.29,-19.42 -43.29,-43.29 0,-23.86 19.42,-43.28 43.29,-43.28 23.87,0 43.29,19.42 43.29,43.28 0,23.87 -19.42,43.29 -43.29,43.29 z m 0,-10 c 18.38,0 33.29,-14.9 33.29,-33.29 0,-18.38 -14.91,-33.28 -33.29,-33.28 -18.38,0 -33.29,14.9 -33.29,33.28 0,18.39 14.91,33.29 33.29,33.29" /><path
         id="path340"
         style="fill:#999999;fill-opacity:1;fill-rule:nonzero;stroke:none"
         d="m 1958.6,7044.44 c -23.87,0 -43.29,-19.42 -43.29,-43.29 0,-23.86 19.42,-43.28 43.29,-43.28 23.87,0 43.28,19.42 43.28,43.28 0,23.87 -19.41,43.29 -43.28,43.29 z m 0,-10 c 18.38,0 33.28,-14.9 33.28,-33.29 0,-18.38 -14.9,-33.28 -33.28,-33.28 -18.39,0 -33.29,14.9 -33.29,33.28 0,18.39 14.9,33.29 33.29,33.29" /><path
         id="path342"
         style="fill:#999999;fill-opacity:1;fill-rule:nonzero;stroke:none"
         d="m 3214.74,7044.44 c -23.87,0 -43.28,-19.42 -43.28,-43.29 0,-23.86 19.41,-43.28 43.28,-43.28 23.86,0 43.28,19.42 43.28,43.28 0,23.87 -19.42,43.29 -43.28,43.29 z m 0,-10 c 18.38,0 33.28,-14.9 33.28,-33.29 0,-18.38 -14.9,-33.28 -33.28,-33.28 -18.38,0 -33.28,14.9 -33.28,33.28 0,18.39 14.9,33.29 33.28,33.29" /><path
         id="path344"
         style="fill:#999999;fill-opacity:1;fill-rule:nonzero;stroke:none"
         d="m 3844.38,7044.44 c -23.88,0 -43.3,-19.42 -43.3,-43.29 0,-23.86 19.42,-43.28 43.3,-43.28 23.87,0 43.29,19.42 43.29,43.28 0,23.87 -19.42,43.29 -43.29,43.29 z m 0,-10 c 18.38,0 33.29,-14.9 33.29,-33.29 0,-18.38 -14.91,-33.28 -33.29,-33.28 -18.39,0 -33.3,14.9 -33.3,33.28 0,18.39 14.91,33.29 33.3,33.29" /><path
         id="path346"
         style="fill:#999999;fill-opacity:1;fill-rule:nonzero;stroke:none"
         d="m 5100.52,7044.44 c -23.87,0 -43.28,-19.42 -43.28,-43.29 0,-23.86 19.41,-43.28 43.28,-43.28 23.86,0 43.28,19.42 43.28,43.28 0,23.87 -19.42,43.29 -43.28,43.29 z m 0,-10 c 18.38,0 33.28,-14.9 33.28,-33.29 0,-18.38 -14.9,-33.28 -33.28,-33.28 -18.38,0 -33.28,14.9 -33.28,33.28 0,18.39 14.9,33.29 33.28,33.29" /><path
         id="path348"
         style="fill:#999999;fill-opacity:1;fill-rule:nonzero;stroke:none"
         d="m 5730.15,7044.44 c -23.87,0 -43.28,-19.42 -43.28,-43.29 0,-23.86 19.41,-43.28 43.28,-43.28 23.87,0 43.3,19.42 43.3,43.28 0,23.87 -19.43,43.29 -43.3,43.29 z m 0,-10 c 18.39,0 33.3,-14.9 33.3,-33.29 0,-18.38 -14.91,-33.28 -33.3,-33.28 -18.38,0 -33.28,14.9 -33.28,33.28 0,18.39 14.9,33.29 33.28,33.29" /><path
         id="path350"
         style="fill:#999999;fill-opacity:1;fill-rule:nonzero;stroke:none"
         d="m 6986.3,7044.44 c -23.87,0 -43.28,-19.42 -43.28,-43.29 0,-23.86 19.41,-43.28 43.28,-43.28 23.87,0 43.28,19.42 43.28,43.28 0,23.87 -19.41,43.29 -43.28,43.29 z m 0,-10 c 18.38,0 33.28,-14.9 33.28,-33.29 0,-18.38 -14.9,-33.28 -33.28,-33.28 -18.38,0 -33.28,14.9 -33.28,33.28 0,18.39 14.9,33.29 33.28,33.29" /><path
         id="path352"
         style="fill:#999999;fill-opacity:1;fill-rule:nonzero;stroke:none"
         d="m 7615.93,7044.44 c -23.87,0 -43.28,-19.42 -43.28,-43.29 0,-23.86 19.41,-43.28 43.28,-43.28 23.87,0 43.3,19.42 43.3,43.28 0,23.87 -19.43,43.29 -43.3,43.29 z m 0,-10 c 18.4,0 33.3,-14.9 33.3,-33.29 0,-18.38 -14.9,-33.28 -33.3,-33.28 -18.38,0 -33.28,14.9 -33.28,33.28 0,18.39 14.9,33.29 33.28,33.29" /><path
         id="path354"
         style="fill:#999999;fill-opacity:1;fill-rule:nonzero;stroke:none"
         d="m 380.051,6495.49 c -23.867,0 -43.289,-19.42 -43.289,-43.29 0,-23.87 19.422,-43.28 43.289,-43.28 23.867,0 43.285,19.41 43.285,43.28 0,23.87 -19.418,43.29 -43.285,43.29 z m 0,-10 c 18.383,0 33.285,-14.9 33.285,-33.29 0,-18.38 -14.902,-33.28 -33.285,-33.28 -18.387,0 -33.289,14.9 -33.289,33.28 0,18.39 14.902,33.29 33.289,33.29" /><path
         id="path356"
         style="fill:#999999;fill-opacity:1;fill-rule:nonzero;stroke:none"
         d="m 1009.69,6495.49 c -23.87,0 -43.288,-19.42 -43.288,-43.29 0,-23.87 19.418,-43.28 43.288,-43.28 23.86,0 43.28,19.41 43.28,43.28 0,23.87 -19.42,43.29 -43.28,43.29 z m 0,-10 c 18.38,0 33.28,-14.9 33.28,-33.29 0,-18.38 -14.9,-33.28 -33.28,-33.28 -18.385,0 -33.288,14.9 -33.288,33.28 0,18.39 14.903,33.29 33.288,33.29" /><path
         id="path358"
         style="fill:#999999;fill-opacity:1;fill-rule:nonzero;stroke:none"
         d="m 2265.83,6495.49 c -23.87,0 -43.29,-19.42 -43.29,-43.29 0,-23.87 19.42,-43.28 43.29,-43.28 23.86,0 43.28,19.41 43.28,43.28 0,23.87 -19.42,43.29 -43.28,43.29 z m 0,-10 c 18.38,0 33.28,-14.9 33.28,-33.29 0,-18.38 -14.9,-33.28 -33.28,-33.28 -18.39,0 -33.29,14.9 -33.29,33.28 0,18.39 14.9,33.29 33.29,33.29" /><path
         id="path360"
         style="fill:#999999;fill-opacity:1;fill-rule:nonzero;stroke:none"
         d="m 2895.46,6495.49 c -23.86,0 -43.28,-19.42 -43.28,-43.29 0,-23.87 19.42,-43.28 43.28,-43.28 23.87,0 43.29,19.41 43.29,43.28 0,23.87 -19.42,43.29 -43.29,43.29 z m 0,-10 c 18.39,0 33.29,-14.9 33.29,-33.29 0,-18.38 -14.9,-33.28 -33.29,-33.28 -18.38,0 -33.28,14.9 -33.28,33.28 0,18.39 14.9,33.29 33.28,33.29" /><path
         id="path362"
         style="fill:#999999;fill-opacity:1;fill-rule:nonzero;stroke:none"
         d="m 4151.6,6495.49 c -23.87,0 -43.28,-19.42 -43.28,-43.29 0,-23.87 19.41,-43.28 43.28,-43.28 23.87,0 43.28,19.41 43.28,43.28 0,23.87 -19.41,43.29 -43.28,43.29 z m 0,-10 c 18.38,0 33.28,-14.9 33.28,-33.29 0,-18.38 -14.9,-33.28 -33.28,-33.28 -18.38,0 -33.28,14.9 -33.28,33.28 0,18.39 14.9,33.29 33.28,33.29" /><path
         id="path364"
         style="fill:#999999;fill-opacity:1;fill-rule:nonzero;stroke:none"
         d="m 4781.24,6495.49 c -23.87,0 -43.29,-19.42 -43.29,-43.29 0,-23.87 19.42,-43.28 43.29,-43.28 23.87,0 43.29,19.41 43.29,43.28 0,23.87 -19.42,43.29 -43.29,43.29 z m 0,-10 c 18.39,0 33.29,-14.9 33.29,-33.29 0,-18.38 -14.9,-33.28 -33.29,-33.28 -18.39,0 -33.29,14.9 -33.29,33.28 0,18.39 14.9,33.29 33.29,33.29" /><path
         id="path366"
         style="fill:#999999;fill-opacity:1;fill-rule:nonzero;stroke:none"
         d="m 6037.38,6495.49 c -23.86,0 -43.28,-19.42 -43.28,-43.29 0,-23.87 19.42,-43.28 43.28,-43.28 23.87,0 43.28,19.41 43.28,43.28 0,23.87 -19.41,43.29 -43.28,43.29 z m 0,-10 c 18.38,0 33.28,-14.9 33.28,-33.29 0,-18.38 -14.9,-33.28 -33.28,-33.28 -18.38,0 -33.28,14.9 -33.28,33.28 0,18.39 14.9,33.29 33.28,33.29" /><path
         id="path368"
         style="fill:#999999;fill-opacity:1;fill-rule:nonzero;stroke:none"
         d="m 6667.01,6495.49 c -23.87,0 -43.28,-19.42 -43.28,-43.29 0,-23.87 19.41,-43.28 43.28,-43.28 23.88,0 43.3,19.41 43.3,43.28 0,23.87 -19.42,43.29 -43.3,43.29 z m 0,-10 c 18.4,0 33.3,-14.9 33.3,-33.29 0,-18.38 -14.9,-33.28 -33.3,-33.28 -18.38,0 -33.28,14.9 -33.28,33.28 0,18.39 14.9,33.29 33.28,33.29" /><path
         id="path370"
         style="fill:#999999;fill-opacity:1;fill-rule:nonzero;stroke:none"
         d="m 7923.16,6495.49 c -23.86,0 -43.28,-19.42 -43.28,-43.29 0,-23.87 19.42,-43.28 43.28,-43.28 23.87,0 43.29,19.41 43.29,43.28 0,23.87 -19.42,43.29 -43.29,43.29 z m 0,-10 c 18.38,0 33.29,-14.9 33.29,-33.29 0,-18.38 -14.91,-33.28 -33.29,-33.28 -18.37,0 -33.28,14.9 -33.28,33.28 0,18.39 14.91,33.29 33.28,33.29" /><path
         id="path372"
         style="fill:#999999;fill-opacity:1;fill-rule:nonzero;stroke:none"
         d="m 72.8242,5949.82 c -23.8672,0 -43.289,-19.41 -43.289,-43.28 0,-23.87 19.4218,-43.29 43.289,-43.29 23.8672,0 43.2848,19.42 43.2848,43.29 0,23.87 -19.4176,43.28 -43.2848,43.28 z m 0,-10 c 18.3828,0 33.2848,-14.9 33.2848,-33.28 0,-18.39 -14.902,-33.29 -33.2848,-33.29 -18.3867,0 -33.289,14.9 -33.289,33.29 0,18.38 14.9023,33.28 33.289,33.28" /><path
         id="path374"
         style="fill:#999999;fill-opacity:1;fill-rule:nonzero;stroke:none"
         d="m 1328.96,5949.82 c -23.87,0 -43.29,-19.41 -43.29,-43.28 0,-23.87 19.42,-43.29 43.29,-43.29 23.87,0 43.29,19.42 43.29,43.29 0,23.87 -19.42,43.28 -43.29,43.28 z m 0,-10 c 18.38,0 33.29,-14.9 33.29,-33.28 0,-18.39 -14.91,-33.29 -33.29,-33.29 -18.38,0 -33.29,14.9 -33.29,33.29 0,18.38 14.91,33.28 33.29,33.28" /><path
         id="path376"
         style="fill:#999999;fill-opacity:1;fill-rule:nonzero;stroke:none"
         d="m 1958.6,5949.82 c -23.87,0 -43.29,-19.41 -43.29,-43.28 0,-23.87 19.42,-43.29 43.29,-43.29 23.87,0 43.28,19.42 43.28,43.29 0,23.87 -19.41,43.28 -43.28,43.28 z m 0,-10 c 18.38,0 33.28,-14.9 33.28,-33.28 0,-18.39 -14.9,-33.29 -33.28,-33.29 -18.39,0 -33.29,14.9 -33.29,33.29 0,18.38 14.9,33.28 33.29,33.28" /><path
         id="path378"
         style="fill:#999999;fill-opacity:1;fill-rule:nonzero;stroke:none"
         d="m 3214.74,5949.82 c -23.87,0 -43.28,-19.41 -43.28,-43.28 0,-23.87 19.41,-43.29 43.28,-43.29 23.86,0 43.28,19.42 43.28,43.29 0,23.87 -19.42,43.28 -43.28,43.28 z m 0,-10 c 18.38,0 33.28,-14.9 33.28,-33.28 0,-18.39 -14.9,-33.29 -33.28,-33.29 -18.38,0 -33.28,14.9 -33.28,33.29 0,18.38 14.9,33.28 33.28,33.28" /><path
         id="path380"
         style="fill:#999999;fill-opacity:1;fill-rule:nonzero;stroke:none"
         d="m 3844.38,5949.82 c -23.88,0 -43.3,-19.41 -43.3,-43.28 0,-23.87 19.42,-43.29 43.3,-43.29 23.87,0 43.29,19.42 43.29,43.29 0,23.87 -19.42,43.28 -43.29,43.28 z m 0,-10 c 18.38,0 33.29,-14.9 33.29,-33.28 0,-18.39 -14.91,-33.29 -33.29,-33.29 -18.39,0 -33.3,14.9 -33.3,33.29 0,18.38 14.91,33.28 33.3,33.28" /><path
         id="path382"
         style="fill:#999999;fill-opacity:1;fill-rule:nonzero;stroke:none"
         d="m 5100.52,5949.82 c -23.87,0 -43.28,-19.41 -43.28,-43.28 0,-23.87 19.41,-43.29 43.28,-43.29 23.86,0 43.28,19.42 43.28,43.29 0,23.87 -19.42,43.28 -43.28,43.28 z m 0,-10 c 18.38,0 33.28,-14.9 33.28,-33.28 0,-18.39 -14.9,-33.29 -33.28,-33.29 -18.38,0 -33.28,14.9 -33.28,33.29 0,18.38 14.9,33.28 33.28,33.28" /><path
         id="path384"
         style="fill:#999999;fill-opacity:1;fill-rule:nonzero;stroke:none"
         d="m 5730.15,5949.82 c -23.87,0 -43.28,-19.41 -43.28,-43.28 0,-23.87 19.41,-43.29 43.28,-43.29 23.87,0 43.3,19.42 43.3,43.29 0,23.87 -19.43,43.28 -43.3,43.28 z m 0,-10 c 18.39,0 33.3,-14.9 33.3,-33.28 0,-18.39 -14.91,-33.29 -33.3,-33.29 -18.38,0 -33.28,14.9 -33.28,33.29 0,18.38 14.9,33.28 33.28,33.28" /><path
         id="path386"
         style="fill:#999999;fill-opacity:1;fill-rule:nonzero;stroke:none"
         d="m 6986.3,5949.82 c -23.87,0 -43.28,-19.41 -43.28,-43.28 0,-23.87 19.41,-43.29 43.28,-43.29 23.87,0 43.28,19.42 43.28,43.29 0,23.87 -19.41,43.28 -43.28,43.28 z m 0,-10 c 18.38,0 33.28,-14.9 33.28,-33.28 0,-18.39 -14.9,-33.29 -33.28,-33.29 -18.38,0 -33.28,14.9 -33.28,33.29 0,18.38 14.9,33.28 33.28,33.28" /><path
         id="path388"
         style="fill:#999999;fill-opacity:1;fill-rule:nonzero;stroke:none"
         d="m 7615.93,5949.82 c -23.87,0 -43.28,-19.41 -43.28,-43.28 0,-23.87 19.41,-43.29 43.28,-43.29 23.87,0 43.3,19.42 43.3,43.29 0,23.87 -19.43,43.28 -43.3,43.28 z m 0,-10 c 18.4,0 33.3,-14.9 33.3,-33.28 0,-18.39 -14.9,-33.29 -33.3,-33.29 -18.38,0 -33.28,14.9 -33.28,33.29 0,18.38 14.9,33.28 33.28,33.28" /><path
         id="path390"
         style="fill:#999999;fill-opacity:1;fill-rule:nonzero;stroke:none"
         d="m 380.051,5410.49 c -23.867,0 -43.289,-19.42 -43.289,-43.29 0,-23.87 19.422,-43.28 43.289,-43.28 23.867,0 43.285,19.41 43.285,43.28 0,23.87 -19.418,43.29 -43.285,43.29 z m 0,-10 c 18.383,0 33.285,-14.9 33.285,-33.29 0,-18.38 -14.902,-33.28 -33.285,-33.28 -18.387,0 -33.289,14.9 -33.289,33.28 0,18.39 14.902,33.29 33.289,33.29" /><path
         id="path392"
         style="fill:#999999;fill-opacity:1;fill-rule:nonzero;stroke:none"
         d="m 1009.69,5410.49 c -23.87,0 -43.288,-19.42 -43.288,-43.29 0,-23.87 19.418,-43.28 43.288,-43.28 23.86,0 43.28,19.41 43.28,43.28 0,23.87 -19.42,43.29 -43.28,43.29 z m 0,-10 c 18.38,0 33.28,-14.9 33.28,-33.29 0,-18.38 -14.9,-33.28 -33.28,-33.28 -18.385,0 -33.288,14.9 -33.288,33.28 0,18.39 14.903,33.29 33.288,33.29" /><path
         id="path394"
         style="fill:#999999;fill-opacity:1;fill-rule:nonzero;stroke:none"
         d="m 2265.83,5410.49 c -23.87,0 -43.29,-19.42 -43.29,-43.29 0,-23.87 19.42,-43.28 43.29,-43.28 23.86,0 43.28,19.41 43.28,43.28 0,23.87 -19.42,43.29 -43.28,43.29 z m 0,-10 c 18.38,0 33.28,-14.9 33.28,-33.29 0,-18.38 -14.9,-33.28 -33.28,-33.28 -18.39,0 -33.29,14.9 -33.29,33.28 0,18.39 14.9,33.29 33.29,33.29" /><path
         id="path396"
         style="fill:#999999;fill-opacity:1;fill-rule:nonzero;stroke:none"
         d="m 2895.46,5410.49 c -23.86,0 -43.28,-19.42 -43.28,-43.29 0,-23.87 19.42,-43.28 43.28,-43.28 23.87,0 43.29,19.41 43.29,43.28 0,23.87 -19.42,43.29 -43.29,43.29 z m 0,-10 c 18.39,0 33.29,-14.9 33.29,-33.29 0,-18.38 -14.9,-33.28 -33.29,-33.28 -18.38,0 -33.28,14.9 -33.28,33.28 0,18.39 14.9,33.29 33.28,33.29" /><path
         id="path398"
         style="fill:#999999;fill-opacity:1;fill-rule:nonzero;stroke:none"
         d="m 4151.6,5410.49 c -23.87,0 -43.28,-19.42 -43.28,-43.29 0,-23.87 19.41,-43.28 43.28,-43.28 23.87,0 43.28,19.41 43.28,43.28 0,23.87 -19.41,43.29 -43.28,43.29 z m 0,-10 c 18.38,0 33.28,-14.9 33.28,-33.29 0,-18.38 -14.9,-33.28 -33.28,-33.28 -18.38,0 -33.28,14.9 -33.28,33.28 0,18.39 14.9,33.29 33.28,33.29" /><path
         id="path400"
         style="fill:#999999;fill-opacity:1;fill-rule:nonzero;stroke:none"
         d="m 4781.24,5410.49 c -23.87,0 -43.29,-19.42 -43.29,-43.29 0,-23.87 19.42,-43.28 43.29,-43.28 23.87,0 43.29,19.41 43.29,43.28 0,23.87 -19.42,43.29 -43.29,43.29 z m 0,-10 c 18.39,0 33.29,-14.9 33.29,-33.29 0,-18.38 -14.9,-33.28 -33.29,-33.28 -18.39,0 -33.29,14.9 -33.29,33.28 0,18.39 14.9,33.29 33.29,33.29" /><path
         id="path402"
         style="fill:#999999;fill-opacity:1;fill-rule:nonzero;stroke:none"
         d="m 6037.38,5410.49 c -23.86,0 -43.28,-19.42 -43.28,-43.29 0,-23.87 19.42,-43.28 43.28,-43.28 23.87,0 43.28,19.41 43.28,43.28 0,23.87 -19.41,43.29 -43.28,43.29 z m 0,-10 c 18.38,0 33.28,-14.9 33.28,-33.29 0,-18.38 -14.9,-33.28 -33.28,-33.28 -18.38,0 -33.28,14.9 -33.28,33.28 0,18.39 14.9,33.29 33.28,33.29" /><path
         id="path404"
         style="fill:#999999;fill-opacity:1;fill-rule:nonzero;stroke:none"
         d="m 6667.01,5410.49 c -23.87,0 -43.28,-19.42 -43.28,-43.29 0,-23.87 19.41,-43.28 43.28,-43.28 23.88,0 43.3,19.41 43.3,43.28 0,23.87 -19.42,43.29 -43.3,43.29 z m 0,-10 c 18.4,0 33.3,-14.9 33.3,-33.29 0,-18.38 -14.9,-33.28 -33.3,-33.28 -18.38,0 -33.28,14.9 -33.28,33.28 0,18.39 14.9,33.29 33.28,33.29" /><path
         id="path406"
         style="fill:#999999;fill-opacity:1;fill-rule:nonzero;stroke:none"
         d="m 7923.16,5410.49 c -23.86,0 -43.28,-19.42 -43.28,-43.29 0,-23.87 19.42,-43.28 43.28,-43.28 23.87,0 43.29,19.41 43.29,43.28 0,23.87 -19.42,43.29 -43.29,43.29 z m 0,-10 c 18.38,0 33.29,-14.9 33.29,-33.29 0,-18.38 -14.91,-33.28 -33.29,-33.28 -18.37,0 -33.28,14.9 -33.28,33.28 0,18.39 14.91,33.29 33.28,33.29" /><path
         id="path408"
         style="fill:#999999;fill-opacity:1;fill-rule:nonzero;stroke:none"
         d="m 72.8242,4864.82 c -23.8672,0 -43.289,-19.41 -43.289,-43.28 0,-23.87 19.4218,-43.29 43.289,-43.29 23.8672,0 43.2848,19.42 43.2848,43.29 0,23.87 -19.4176,43.28 -43.2848,43.28 z m 0,-10 c 18.3828,0 33.2848,-14.9 33.2848,-33.28 0,-18.39 -14.902,-33.29 -33.2848,-33.29 -18.3867,0 -33.289,14.9 -33.289,33.29 0,18.38 14.9023,33.28 33.289,33.28" /><path
         id="path410"
         style="fill:#999999;fill-opacity:1;fill-rule:nonzero;stroke:none"
         d="m 1328.96,4864.82 c -23.87,0 -43.29,-19.41 -43.29,-43.28 0,-23.87 19.42,-43.29 43.29,-43.29 23.87,0 43.29,19.42 43.29,43.29 0,23.87 -19.42,43.28 -43.29,43.28 z m 0,-10 c 18.38,0 33.29,-14.9 33.29,-33.28 0,-18.39 -14.91,-33.29 -33.29,-33.29 -18.38,0 -33.29,14.9 -33.29,33.29 0,18.38 14.91,33.28 33.29,33.28" /><path
         id="path412"
         style="fill:#999999;fill-opacity:1;fill-rule:nonzero;stroke:none"
         d="m 1958.6,4864.82 c -23.87,0 -43.29,-19.41 -43.29,-43.28 0,-23.87 19.42,-43.29 43.29,-43.29 23.87,0 43.28,19.42 43.28,43.29 0,23.87 -19.41,43.28 -43.28,43.28 z m 0,-10 c 18.38,0 33.28,-14.9 33.28,-33.28 0,-18.39 -14.9,-33.29 -33.28,-33.29 -18.39,0 -33.29,14.9 -33.29,33.29 0,18.38 14.9,33.28 33.29,33.28" /><path
         id="path414"
         style="fill:#999999;fill-opacity:1;fill-rule:nonzero;stroke:none"
         d="m 3214.74,4864.82 c -23.87,0 -43.28,-19.41 -43.28,-43.28 0,-23.87 19.41,-43.29 43.28,-43.29 23.86,0 43.28,19.42 43.28,43.29 0,23.87 -19.42,43.28 -43.28,43.28 z m 0,-10 c 18.38,0 33.28,-14.9 33.28,-33.28 0,-18.39 -14.9,-33.29 -33.28,-33.29 -18.38,0 -33.28,14.9 -33.28,33.29 0,18.38 14.9,33.28 33.28,33.28" /><path
         id="path416"
         style="fill:#999999;fill-opacity:1;fill-rule:nonzero;stroke:none"
         d="m 3844.38,4864.82 c -23.88,0 -43.3,-19.41 -43.3,-43.28 0,-23.87 19.42,-43.29 43.3,-43.29 23.87,0 43.29,19.42 43.29,43.29 0,23.87 -19.42,43.28 -43.29,43.28 z m 0,-10 c 18.38,0 33.29,-14.9 33.29,-33.28 0,-18.39 -14.91,-33.29 -33.29,-33.29 -18.39,0 -33.3,14.9 -33.3,33.29 0,18.38 14.91,33.28 33.3,33.28" /><path
         id="path418"
         style="fill:#999999;fill-opacity:1;fill-rule:nonzero;stroke:none"
         d="m 5100.52,4864.82 c -23.87,0 -43.28,-19.41 -43.28,-43.28 0,-23.87 19.41,-43.29 43.28,-43.29 23.86,0 43.28,19.42 43.28,43.29 0,23.87 -19.42,43.28 -43.28,43.28 z m 0,-10 c 18.38,0 33.28,-14.9 33.28,-33.28 0,-18.39 -14.9,-33.29 -33.28,-33.29 -18.38,0 -33.28,14.9 -33.28,33.29 0,18.38 14.9,33.28 33.28,33.28" /><path
         id="path420"
         style="fill:#999999;fill-opacity:1;fill-rule:nonzero;stroke:none"
         d="m 5730.15,4864.82 c -23.87,0 -43.28,-19.41 -43.28,-43.28 0,-23.87 19.41,-43.29 43.28,-43.29 23.87,0 43.3,19.42 43.3,43.29 0,23.87 -19.43,43.28 -43.3,43.28 z m 0,-10 c 18.39,0 33.3,-14.9 33.3,-33.28 0,-18.39 -14.91,-33.29 -33.3,-33.29 -18.38,0 -33.28,14.9 -33.28,33.29 0,18.38 14.9,33.28 33.28,33.28" /><path
         id="path422"
         style="fill:#999999;fill-opacity:1;fill-rule:nonzero;stroke:none"
         d="m 6986.3,4864.82 c -23.87,0 -43.28,-19.41 -43.28,-43.28 0,-23.87 19.41,-43.29 43.28,-43.29 23.87,0 43.28,19.42 43.28,43.29 0,23.87 -19.41,43.28 -43.28,43.28 z m 0,-10 c 18.38,0 33.28,-14.9 33.28,-33.28 0,-18.39 -14.9,-33.29 -33.28,-33.29 -18.38,0 -33.28,14.9 -33.28,33.29 0,18.38 14.9,33.28 33.28,33.28" /><path
         id="path424"
         style="fill:#999999;fill-opacity:1;fill-rule:nonzero;stroke:none"
         d="m 7615.93,4864.82 c -23.87,0 -43.28,-19.41 -43.28,-43.28 0,-23.87 19.41,-43.29 43.28,-43.29 23.87,0 43.3,19.42 43.3,43.29 0,23.87 -19.43,43.28 -43.3,43.28 z m 0,-10 c 18.4,0 33.3,-14.9 33.3,-33.28 0,-18.39 -14.9,-33.29 -33.3,-33.29 -18.38,0 -33.28,14.9 -33.28,33.29 0,18.38 14.9,33.28 33.28,33.28" /><path
         id="path426"
         style="fill:#999999;fill-opacity:1;fill-rule:nonzero;stroke:none"
         d="m 380.051,4325.49 c -23.867,0 -43.289,-19.42 -43.289,-43.29 0,-23.87 19.422,-43.28 43.289,-43.28 23.867,0 43.285,19.41 43.285,43.28 0,23.87 -19.418,43.29 -43.285,43.29 z m 0,-10 c 18.383,0 33.285,-14.9 33.285,-33.29 0,-18.38 -14.902,-33.28 -33.285,-33.28 -18.387,0 -33.289,14.9 -33.289,33.28 0,18.39 14.902,33.29 33.289,33.29" /><path
         id="path428"
         style="fill:#999999;fill-opacity:1;fill-rule:nonzero;stroke:none"
         d="m 1009.69,4325.49 c -23.87,0 -43.288,-19.42 -43.288,-43.29 0,-23.87 19.418,-43.28 43.288,-43.28 23.86,0 43.28,19.41 43.28,43.28 0,23.87 -19.42,43.29 -43.28,43.29 z m 0,-10 c 18.38,0 33.28,-14.9 33.28,-33.29 0,-18.38 -14.9,-33.28 -33.28,-33.28 -18.385,0 -33.288,14.9 -33.288,33.28 0,18.39 14.903,33.29 33.288,33.29" /><path
         id="path430"
         style="fill:#999999;fill-opacity:1;fill-rule:nonzero;stroke:none"
         d="m 2265.83,4325.49 c -23.87,0 -43.29,-19.42 -43.29,-43.29 0,-23.87 19.42,-43.28 43.29,-43.28 23.86,0 43.28,19.41 43.28,43.28 0,23.87 -19.42,43.29 -43.28,43.29 z m 0,-10 c 18.38,0 33.28,-14.9 33.28,-33.29 0,-18.38 -14.9,-33.28 -33.28,-33.28 -18.39,0 -33.29,14.9 -33.29,33.28 0,18.39 14.9,33.29 33.29,33.29" /><path
         id="path432"
         style="fill:#999999;fill-opacity:1;fill-rule:nonzero;stroke:none"
         d="m 2895.46,4325.49 c -23.86,0 -43.28,-19.42 -43.28,-43.29 0,-23.87 19.42,-43.28 43.28,-43.28 23.87,0 43.29,19.41 43.29,43.28 0,23.87 -19.42,43.29 -43.29,43.29 z m 0,-10 c 18.39,0 33.29,-14.9 33.29,-33.29 0,-18.38 -14.9,-33.28 -33.29,-33.28 -18.38,0 -33.28,14.9 -33.28,33.28 0,18.39 14.9,33.29 33.28,33.29" /><path
         id="path434"
         style="fill:#999999;fill-opacity:1;fill-rule:nonzero;stroke:none"
         d="m 4151.6,4325.49 c -23.87,0 -43.28,-19.42 -43.28,-43.29 0,-23.87 19.41,-43.28 43.28,-43.28 23.87,0 43.28,19.41 43.28,43.28 0,23.87 -19.41,43.29 -43.28,43.29 z m 0,-10 c 18.38,0 33.28,-14.9 33.28,-33.29 0,-18.38 -14.9,-33.28 -33.28,-33.28 -18.38,0 -33.28,14.9 -33.28,33.28 0,18.39 14.9,33.29 33.28,33.29" /><path
         id="path436"
         style="fill:#999999;fill-opacity:1;fill-rule:nonzero;stroke:none"
         d="m 4781.24,4325.49 c -23.87,0 -43.29,-19.42 -43.29,-43.29 0,-23.87 19.42,-43.28 43.29,-43.28 23.87,0 43.29,19.41 43.29,43.28 0,23.87 -19.42,43.29 -43.29,43.29 z m 0,-10 c 18.39,0 33.29,-14.9 33.29,-33.29 0,-18.38 -14.9,-33.28 -33.29,-33.28 -18.39,0 -33.29,14.9 -33.29,33.28 0,18.39 14.9,33.29 33.29,33.29" /><path
         id="path438"
         style="fill:#999999;fill-opacity:1;fill-rule:nonzero;stroke:none"
         d="m 6037.38,4325.49 c -23.86,0 -43.28,-19.42 -43.28,-43.29 0,-23.87 19.42,-43.28 43.28,-43.28 23.87,0 43.28,19.41 43.28,43.28 0,23.87 -19.41,43.29 -43.28,43.29 z m 0,-10 c 18.38,0 33.28,-14.9 33.28,-33.29 0,-18.38 -14.9,-33.28 -33.28,-33.28 -18.38,0 -33.28,14.9 -33.28,33.28 0,18.39 14.9,33.29 33.28,33.29" /><path
         id="path440"
         style="fill:#999999;fill-opacity:1;fill-rule:nonzero;stroke:none"
         d="m 6667.01,4325.49 c -23.87,0 -43.28,-19.42 -43.28,-43.29 0,-23.87 19.41,-43.28 43.28,-43.28 23.88,0 43.3,19.41 43.3,43.28 0,23.87 -19.42,43.29 -43.3,43.29 z m 0,-10 c 18.4,0 33.3,-14.9 33.3,-33.29 0,-18.38 -14.9,-33.28 -33.3,-33.28 -18.38,0 -33.28,14.9 -33.28,33.28 0,18.39 14.9,33.29 33.28,33.29" /><path
         id="path442"
         style="fill:#999999;fill-opacity:1;fill-rule:nonzero;stroke:none"
         d="m 7923.16,4325.49 c -23.86,0 -43.28,-19.42 -43.28,-43.29 0,-23.87 19.42,-43.28 43.28,-43.28 23.87,0 43.29,19.41 43.29,43.28 0,23.87 -19.42,43.29 -43.29,43.29 z m 0,-10 c 18.38,0 33.29,-14.9 33.29,-33.29 0,-18.38 -14.91,-33.28 -33.29,-33.28 -18.37,0 -33.28,14.9 -33.28,33.28 0,18.39 14.91,33.29 33.28,33.29" /><path
         id="path444"
         style="fill:#999999;fill-opacity:1;fill-rule:nonzero;stroke:none"
         d="m 72.8242,3779.82 c -23.8672,0 -43.289,-19.41 -43.289,-43.28 0,-23.86 19.4218,-43.29 43.289,-43.29 23.8672,0 43.2848,19.43 43.2848,43.29 0,23.87 -19.4176,43.28 -43.2848,43.28 z m 0,-10 c 18.3828,0 33.2848,-14.9 33.2848,-33.28 0,-18.39 -14.902,-33.29 -33.2848,-33.29 -18.3867,0 -33.289,14.9 -33.289,33.29 0,18.38 14.9023,33.28 33.289,33.28" /><path
         id="path446"
         style="fill:#999999;fill-opacity:1;fill-rule:nonzero;stroke:none"
         d="m 1328.96,3779.82 c -23.87,0 -43.29,-19.41 -43.29,-43.28 0,-23.86 19.42,-43.29 43.29,-43.29 23.87,0 43.29,19.43 43.29,43.29 0,23.87 -19.42,43.28 -43.29,43.28 z m 0,-10 c 18.38,0 33.29,-14.9 33.29,-33.28 0,-18.39 -14.91,-33.29 -33.29,-33.29 -18.38,0 -33.29,14.9 -33.29,33.29 0,18.38 14.91,33.28 33.29,33.28" /><path
         id="path448"
         style="fill:#999999;fill-opacity:1;fill-rule:nonzero;stroke:none"
         d="m 1958.6,3779.82 c -23.87,0 -43.29,-19.41 -43.29,-43.28 0,-23.86 19.42,-43.29 43.29,-43.29 23.87,0 43.28,19.43 43.28,43.29 0,23.87 -19.41,43.28 -43.28,43.28 z m 0,-10 c 18.38,0 33.28,-14.9 33.28,-33.28 0,-18.39 -14.9,-33.29 -33.28,-33.29 -18.39,0 -33.29,14.9 -33.29,33.29 0,18.38 14.9,33.28 33.29,33.28" /><path
         id="path450"
         style="fill:#999999;fill-opacity:1;fill-rule:nonzero;stroke:none"
         d="m 3214.74,3779.82 c -23.87,0 -43.28,-19.41 -43.28,-43.28 0,-23.86 19.41,-43.29 43.28,-43.29 23.86,0 43.28,19.43 43.28,43.29 0,23.87 -19.42,43.28 -43.28,43.28 z m 0,-10 c 18.38,0 33.28,-14.9 33.28,-33.28 0,-18.39 -14.9,-33.29 -33.28,-33.29 -18.38,0 -33.28,14.9 -33.28,33.29 0,18.38 14.9,33.28 33.28,33.28" /><path
         id="path452"
         style="fill:#999999;fill-opacity:1;fill-rule:nonzero;stroke:none"
         d="m 3844.38,3779.82 c -23.88,0 -43.3,-19.41 -43.3,-43.28 0,-23.86 19.42,-43.29 43.3,-43.29 23.87,0 43.29,19.43 43.29,43.29 0,23.87 -19.42,43.28 -43.29,43.28 z m 0,-10 c 18.38,0 33.29,-14.9 33.29,-33.28 0,-18.39 -14.91,-33.29 -33.29,-33.29 -18.39,0 -33.3,14.9 -33.3,33.29 0,18.38 14.91,33.28 33.3,33.28" /><path
         id="path454"
         style="fill:#999999;fill-opacity:1;fill-rule:nonzero;stroke:none"
         d="m 5100.52,3779.82 c -23.87,0 -43.28,-19.41 -43.28,-43.28 0,-23.86 19.41,-43.29 43.28,-43.29 23.86,0 43.28,19.43 43.28,43.29 0,23.87 -19.42,43.28 -43.28,43.28 z m 0,-10 c 18.38,0 33.28,-14.9 33.28,-33.28 0,-18.39 -14.9,-33.29 -33.28,-33.29 -18.38,0 -33.28,14.9 -33.28,33.29 0,18.38 14.9,33.28 33.28,33.28" /><path
         id="path456"
         style="fill:#999999;fill-opacity:1;fill-rule:nonzero;stroke:none"
         d="m 5730.15,3779.82 c -23.87,0 -43.28,-19.41 -43.28,-43.28 0,-23.86 19.41,-43.29 43.28,-43.29 23.87,0 43.3,19.43 43.3,43.29 0,23.87 -19.43,43.28 -43.3,43.28 z m 0,-10 c 18.39,0 33.3,-14.9 33.3,-33.28 0,-18.39 -14.91,-33.29 -33.3,-33.29 -18.38,0 -33.28,14.9 -33.28,33.29 0,18.38 14.9,33.28 33.28,33.28" /><path
         id="path458"
         style="fill:#999999;fill-opacity:1;fill-rule:nonzero;stroke:none"
         d="m 6986.3,3779.82 c -23.87,0 -43.28,-19.41 -43.28,-43.28 0,-23.86 19.41,-43.29 43.28,-43.29 23.87,0 43.28,19.43 43.28,43.29 0,23.87 -19.41,43.28 -43.28,43.28 z m 0,-10 c 18.38,0 33.28,-14.9 33.28,-33.28 0,-18.39 -14.9,-33.29 -33.28,-33.29 -18.38,0 -33.28,14.9 -33.28,33.29 0,18.38 14.9,33.28 33.28,33.28" /><path
         id="path460"
         style="fill:#999999;fill-opacity:1;fill-rule:nonzero;stroke:none"
         d="m 7615.93,3779.82 c -23.87,0 -43.28,-19.41 -43.28,-43.28 0,-23.86 19.41,-43.29 43.28,-43.29 23.87,0 43.3,19.43 43.3,43.29 0,23.87 -19.43,43.28 -43.3,43.28 z m 0,-10 c 18.4,0 33.3,-14.9 33.3,-33.28 0,-18.39 -14.9,-33.29 -33.3,-33.29 -18.38,0 -33.28,14.9 -33.28,33.29 0,18.38 14.9,33.28 33.28,33.28" /><path
         id="path462"
         style="fill:#999999;fill-opacity:1;fill-rule:nonzero;stroke:none"
         d="m 380.051,3240.49 c -23.867,0 -43.289,-19.42 -43.289,-43.28 0,-23.87 19.422,-43.29 43.289,-43.29 23.867,0 43.285,19.42 43.285,43.29 0,23.86 -19.418,43.28 -43.285,43.28 z m 0,-10 c 18.383,0 33.285,-14.9 33.285,-33.28 0,-18.39 -14.902,-33.29 -33.285,-33.29 -18.387,0 -33.289,14.9 -33.289,33.29 0,18.38 14.902,33.28 33.289,33.28" /><path
         id="path464"
         style="fill:#999999;fill-opacity:1;fill-rule:nonzero;stroke:none"
         d="m 1009.69,3240.49 c -23.87,0 -43.288,-19.42 -43.288,-43.28 0,-23.87 19.418,-43.29 43.288,-43.29 23.86,0 43.28,19.42 43.28,43.29 0,23.86 -19.42,43.28 -43.28,43.28 z m 0,-10 c 18.38,0 33.28,-14.9 33.28,-33.28 0,-18.39 -14.9,-33.29 -33.28,-33.29 -18.385,0 -33.288,14.9 -33.288,33.29 0,18.38 14.903,33.28 33.288,33.28" /><path
         id="path466"
         style="fill:#999999;fill-opacity:1;fill-rule:nonzero;stroke:none"
         d="m 2265.83,3240.49 c -23.87,0 -43.29,-19.42 -43.29,-43.28 0,-23.87 19.42,-43.29 43.29,-43.29 23.86,0 43.28,19.42 43.28,43.29 0,23.86 -19.42,43.28 -43.28,43.28 z m 0,-10 c 18.38,0 33.28,-14.9 33.28,-33.28 0,-18.39 -14.9,-33.29 -33.28,-33.29 -18.39,0 -33.29,14.9 -33.29,33.29 0,18.38 14.9,33.28 33.29,33.28" /><path
         id="path468"
         style="fill:#999999;fill-opacity:1;fill-rule:nonzero;stroke:none"
         d="m 2895.46,3240.49 c -23.86,0 -43.28,-19.42 -43.28,-43.28 0,-23.87 19.42,-43.29 43.28,-43.29 23.87,0 43.29,19.42 43.29,43.29 0,23.86 -19.42,43.28 -43.29,43.28 z m 0,-10 c 18.39,0 33.29,-14.9 33.29,-33.28 0,-18.39 -14.9,-33.29 -33.29,-33.29 -18.38,0 -33.28,14.9 -33.28,33.29 0,18.38 14.9,33.28 33.28,33.28" /><path
         id="path470"
         style="fill:#999999;fill-opacity:1;fill-rule:nonzero;stroke:none"
         d="m 4151.6,3240.49 c -23.87,0 -43.28,-19.42 -43.28,-43.28 0,-23.87 19.41,-43.29 43.28,-43.29 23.87,0 43.28,19.42 43.28,43.29 0,23.86 -19.41,43.28 -43.28,43.28 z m 0,-10 c 18.38,0 33.28,-14.9 33.28,-33.28 0,-18.39 -14.9,-33.29 -33.28,-33.29 -18.38,0 -33.28,14.9 -33.28,33.29 0,18.38 14.9,33.28 33.28,33.28" /><path
         id="path472"
         style="fill:#999999;fill-opacity:1;fill-rule:nonzero;stroke:none"
         d="m 4781.24,3240.49 c -23.87,0 -43.29,-19.42 -43.29,-43.28 0,-23.87 19.42,-43.29 43.29,-43.29 23.87,0 43.29,19.42 43.29,43.29 0,23.86 -19.42,43.28 -43.29,43.28 z m 0,-10 c 18.39,0 33.29,-14.9 33.29,-33.28 0,-18.39 -14.9,-33.29 -33.29,-33.29 -18.39,0 -33.29,14.9 -33.29,33.29 0,18.38 14.9,33.28 33.29,33.28" /><path
         id="path474"
         style="fill:#999999;fill-opacity:1;fill-rule:nonzero;stroke:none"
         d="m 6037.38,3240.49 c -23.86,0 -43.28,-19.42 -43.28,-43.28 0,-23.87 19.42,-43.29 43.28,-43.29 23.87,0 43.28,19.42 43.28,43.29 0,23.86 -19.41,43.28 -43.28,43.28 z m 0,-10 c 18.38,0 33.28,-14.9 33.28,-33.28 0,-18.39 -14.9,-33.29 -33.28,-33.29 -18.38,0 -33.28,14.9 -33.28,33.29 0,18.38 14.9,33.28 33.28,33.28" /><path
         id="path476"
         style="fill:#999999;fill-opacity:1;fill-rule:nonzero;stroke:none"
         d="m 6667.01,3240.49 c -23.87,0 -43.28,-19.42 -43.28,-43.28 0,-23.87 19.41,-43.29 43.28,-43.29 23.88,0 43.3,19.42 43.3,43.29 0,23.86 -19.42,43.28 -43.3,43.28 z m 0,-10 c 18.4,0 33.3,-14.9 33.3,-33.28 0,-18.39 -14.9,-33.29 -33.3,-33.29 -18.38,0 -33.28,14.9 -33.28,33.29 0,18.38 14.9,33.28 33.28,33.28" /><path
         id="path478"
         style="fill:#999999;fill-opacity:1;fill-rule:nonzero;stroke:none"
         d="m 7923.16,3240.49 c -23.86,0 -43.28,-19.42 -43.28,-43.28 0,-23.87 19.42,-43.29 43.28,-43.29 23.87,0 43.29,19.42 43.29,43.29 0,23.86 -19.42,43.28 -43.29,43.28 z m 0,-10 c 18.38,0 33.29,-14.9 33.29,-33.28 0,-18.39 -14.91,-33.29 -33.29,-33.29 -18.37,0 -33.28,14.9 -33.28,33.29 0,18.38 14.91,33.28 33.28,33.28" /><path
         id="path480"
         style="fill:#999999;fill-opacity:1;fill-rule:nonzero;stroke:none"
         d="m 72.8242,2694.82 c -23.8672,0 -43.289,-19.41 -43.289,-43.28 0,-23.86 19.4218,-43.29 43.289,-43.29 23.8672,0 43.2848,19.43 43.2848,43.29 0,23.87 -19.4176,43.28 -43.2848,43.28 z m 0,-10 c 18.3828,0 33.2848,-14.9 33.2848,-33.28 0,-18.39 -14.902,-33.29 -33.2848,-33.29 -18.3867,0 -33.289,14.9 -33.289,33.29 0,18.38 14.9023,33.28 33.289,33.28" /><path
         id="path482"
         style="fill:#999999;fill-opacity:1;fill-rule:nonzero;stroke:none"
         d="m 1328.96,2694.82 c -23.87,0 -43.29,-19.41 -43.29,-43.28 0,-23.86 19.42,-43.29 43.29,-43.29 23.87,0 43.29,19.43 43.29,43.29 0,23.87 -19.42,43.28 -43.29,43.28 z m 0,-10 c 18.38,0 33.29,-14.9 33.29,-33.28 0,-18.39 -14.91,-33.29 -33.29,-33.29 -18.38,0 -33.29,14.9 -33.29,33.29 0,18.38 14.91,33.28 33.29,33.28" /><path
         id="path484"
         style="fill:#999999;fill-opacity:1;fill-rule:nonzero;stroke:none"
         d="m 1958.6,2694.82 c -23.87,0 -43.29,-19.41 -43.29,-43.28 0,-23.86 19.42,-43.29 43.29,-43.29 23.87,0 43.28,19.43 43.28,43.29 0,23.87 -19.41,43.28 -43.28,43.28 z m 0,-10 c 18.38,0 33.28,-14.9 33.28,-33.28 0,-18.39 -14.9,-33.29 -33.28,-33.29 -18.39,0 -33.29,14.9 -33.29,33.29 0,18.38 14.9,33.28 33.29,33.28" /><path
         id="path486"
         style="fill:#999999;fill-opacity:1;fill-rule:nonzero;stroke:none"
         d="m 3214.74,2694.82 c -23.87,0 -43.28,-19.41 -43.28,-43.28 0,-23.86 19.41,-43.29 43.28,-43.29 23.86,0 43.28,19.43 43.28,43.29 0,23.87 -19.42,43.28 -43.28,43.28 z m 0,-10 c 18.38,0 33.28,-14.9 33.28,-33.28 0,-18.39 -14.9,-33.29 -33.28,-33.29 -18.38,0 -33.28,14.9 -33.28,33.29 0,18.38 14.9,33.28 33.28,33.28" /><path
         id="path488"
         style="fill:#999999;fill-opacity:1;fill-rule:nonzero;stroke:none"
         d="m 3844.38,2694.82 c -23.88,0 -43.3,-19.41 -43.3,-43.28 0,-23.86 19.42,-43.29 43.3,-43.29 23.87,0 43.29,19.43 43.29,43.29 0,23.87 -19.42,43.28 -43.29,43.28 z m 0,-10 c 18.38,0 33.29,-14.9 33.29,-33.28 0,-18.39 -14.91,-33.29 -33.29,-33.29 -18.39,0 -33.3,14.9 -33.3,33.29 0,18.38 14.91,33.28 33.3,33.28" /><path
         id="path490"
         style="fill:#999999;fill-opacity:1;fill-rule:nonzero;stroke:none"
         d="m 5100.52,2694.82 c -23.87,0 -43.28,-19.41 -43.28,-43.28 0,-23.86 19.41,-43.29 43.28,-43.29 23.86,0 43.28,19.43 43.28,43.29 0,23.87 -19.42,43.28 -43.28,43.28 z m 0,-10 c 18.38,0 33.28,-14.9 33.28,-33.28 0,-18.39 -14.9,-33.29 -33.28,-33.29 -18.38,0 -33.28,14.9 -33.28,33.29 0,18.38 14.9,33.28 33.28,33.28" /><path
         id="path492"
         style="fill:#999999;fill-opacity:1;fill-rule:nonzero;stroke:none"
         d="m 5730.15,2694.82 c -23.87,0 -43.28,-19.41 -43.28,-43.28 0,-23.86 19.41,-43.29 43.28,-43.29 23.87,0 43.3,19.43 43.3,43.29 0,23.87 -19.43,43.28 -43.3,43.28 z m 0,-10 c 18.39,0 33.3,-14.9 33.3,-33.28 0,-18.39 -14.91,-33.29 -33.3,-33.29 -18.38,0 -33.28,14.9 -33.28,33.29 0,18.38 14.9,33.28 33.28,33.28" /><path
         id="path494"
         style="fill:#999999;fill-opacity:1;fill-rule:nonzero;stroke:none"
         d="m 6986.3,2694.82 c -23.87,0 -43.28,-19.41 -43.28,-43.28 0,-23.86 19.41,-43.29 43.28,-43.29 23.87,0 43.28,19.43 43.28,43.29 0,23.87 -19.41,43.28 -43.28,43.28 z m 0,-10 c 18.38,0 33.28,-14.9 33.28,-33.28 0,-18.39 -14.9,-33.29 -33.28,-33.29 -18.38,0 -33.28,14.9 -33.28,33.29 0,18.38 14.9,33.28 33.28,33.28" /><path
         id="path496"
         style="fill:#999999;fill-opacity:1;fill-rule:nonzero;stroke:none"
         d="m 7615.93,2694.82 c -23.87,0 -43.28,-19.41 -43.28,-43.28 0,-23.86 19.41,-43.29 43.28,-43.29 23.87,0 43.3,19.43 43.3,43.29 0,23.87 -19.43,43.28 -43.3,43.28 z m 0,-10 c 18.4,0 33.3,-14.9 33.3,-33.28 0,-18.39 -14.9,-33.29 -33.3,-33.29 -18.38,0 -33.28,14.9 -33.28,33.29 0,18.38 14.9,33.28 33.28,33.28" /><path
         id="path498"
         style="fill:#999999;fill-opacity:1;fill-rule:nonzero;stroke:none"
         d="m 380.051,2155.49 c -23.867,0 -43.289,-19.42 -43.289,-43.28 0,-23.87 19.422,-43.29 43.289,-43.29 23.867,0 43.285,19.42 43.285,43.29 0,23.86 -19.418,43.28 -43.285,43.28 z m 0,-10 c 18.383,0 33.285,-14.9 33.285,-33.28 0,-18.39 -14.902,-33.29 -33.285,-33.29 -18.387,0 -33.289,14.9 -33.289,33.29 0,18.38 14.902,33.28 33.289,33.28" /><path
         id="path500"
         style="fill:#999999;fill-opacity:1;fill-rule:nonzero;stroke:none"
         d="m 1009.69,2155.49 c -23.87,0 -43.288,-19.42 -43.288,-43.28 0,-23.87 19.418,-43.29 43.288,-43.29 23.86,0 43.28,19.42 43.28,43.29 0,23.86 -19.42,43.28 -43.28,43.28 z m 0,-10 c 18.38,0 33.28,-14.9 33.28,-33.28 0,-18.39 -14.9,-33.29 -33.28,-33.29 -18.385,0 -33.288,14.9 -33.288,33.29 0,18.38 14.903,33.28 33.288,33.28" /><path
         id="path502"
         style="fill:#999999;fill-opacity:1;fill-rule:nonzero;stroke:none"
         d="m 2265.83,2155.49 c -23.87,0 -43.29,-19.42 -43.29,-43.28 0,-23.87 19.42,-43.29 43.29,-43.29 23.86,0 43.28,19.42 43.28,43.29 0,23.86 -19.42,43.28 -43.28,43.28 z m 0,-10 c 18.38,0 33.28,-14.9 33.28,-33.28 0,-18.39 -14.9,-33.29 -33.28,-33.29 -18.39,0 -33.29,14.9 -33.29,33.29 0,18.38 14.9,33.28 33.29,33.28" /><path
         id="path504"
         style="fill:#999999;fill-opacity:1;fill-rule:nonzero;stroke:none"
         d="m 2895.46,2155.49 c -23.86,0 -43.28,-19.42 -43.28,-43.28 0,-23.87 19.42,-43.29 43.28,-43.29 23.87,0 43.29,19.42 43.29,43.29 0,23.86 -19.42,43.28 -43.29,43.28 z m 0,-10 c 18.39,0 33.29,-14.9 33.29,-33.28 0,-18.39 -14.9,-33.29 -33.29,-33.29 -18.38,0 -33.28,14.9 -33.28,33.29 0,18.38 14.9,33.28 33.28,33.28" /><path
         id="path506"
         style="fill:#999999;fill-opacity:1;fill-rule:nonzero;stroke:none"
         d="m 4151.6,2155.49 c -23.87,0 -43.28,-19.42 -43.28,-43.28 0,-23.87 19.41,-43.29 43.28,-43.29 23.87,0 43.28,19.42 43.28,43.29 0,23.86 -19.41,43.28 -43.28,43.28 z m 0,-10 c 18.38,0 33.28,-14.9 33.28,-33.28 0,-18.39 -14.9,-33.29 -33.28,-33.29 -18.38,0 -33.28,14.9 -33.28,33.29 0,18.38 14.9,33.28 33.28,33.28" /><path
         id="path508"
         style="fill:#999999;fill-opacity:1;fill-rule:nonzero;stroke:none"
         d="m 4781.24,2155.49 c -23.87,0 -43.29,-19.42 -43.29,-43.28 0,-23.87 19.42,-43.29 43.29,-43.29 23.87,0 43.29,19.42 43.29,43.29 0,23.86 -19.42,43.28 -43.29,43.28 z m 0,-10 c 18.39,0 33.29,-14.9 33.29,-33.28 0,-18.39 -14.9,-33.29 -33.29,-33.29 -18.39,0 -33.29,14.9 -33.29,33.29 0,18.38 14.9,33.28 33.29,33.28" /><path
         id="path510"
         style="fill:#999999;fill-opacity:1;fill-rule:nonzero;stroke:none"
         d="m 6037.38,2155.49 c -23.86,0 -43.28,-19.42 -43.28,-43.28 0,-23.87 19.42,-43.29 43.28,-43.29 23.87,0 43.28,19.42 43.28,43.29 0,23.86 -19.41,43.28 -43.28,43.28 z m 0,-10 c 18.38,0 33.28,-14.9 33.28,-33.28 0,-18.39 -14.9,-33.29 -33.28,-33.29 -18.38,0 -33.28,14.9 -33.28,33.29 0,18.38 14.9,33.28 33.28,33.28" /><path
         id="path512"
         style="fill:#999999;fill-opacity:1;fill-rule:nonzero;stroke:none"
         d="m 6667.01,2155.49 c -23.87,0 -43.28,-19.42 -43.28,-43.28 0,-23.87 19.41,-43.29 43.28,-43.29 23.88,0 43.3,19.42 43.3,43.29 0,23.86 -19.42,43.28 -43.3,43.28 z m 0,-10 c 18.4,0 33.3,-14.9 33.3,-33.28 0,-18.39 -14.9,-33.29 -33.3,-33.29 -18.38,0 -33.28,14.9 -33.28,33.29 0,18.38 14.9,33.28 33.28,33.28" /><path
         id="path514"
         style="fill:#999999;fill-opacity:1;fill-rule:nonzero;stroke:none"
         d="m 7923.16,2155.49 c -23.86,0 -43.28,-19.42 -43.28,-43.28 0,-23.87 19.42,-43.29 43.28,-43.29 23.87,0 43.29,19.42 43.29,43.29 0,23.86 -19.42,43.28 -43.29,43.28 z m 0,-10 c 18.38,0 33.29,-14.9 33.29,-33.28 0,-18.39 -14.91,-33.29 -33.29,-33.29 -18.37,0 -33.28,14.9 -33.28,33.29 0,18.38 14.91,33.28 33.28,33.28" /><path
         id="path516"
         style="fill:#999999;fill-opacity:1;fill-rule:nonzero;stroke:none"
         d="m 72.8242,1609.82 c -23.8672,0 -43.289,-19.41 -43.289,-43.28 0,-23.86 19.4218,-43.29 43.289,-43.29 23.8672,0 43.2848,19.43 43.2848,43.29 0,23.87 -19.4176,43.28 -43.2848,43.28 z m 0,-10 c 18.3828,0 33.2848,-14.9 33.2848,-33.28 0,-18.39 -14.902,-33.29 -33.2848,-33.29 -18.3867,0 -33.289,14.9 -33.289,33.29 0,18.38 14.9023,33.28 33.289,33.28" /><path
         id="path518"
         style="fill:#999999;fill-opacity:1;fill-rule:nonzero;stroke:none"
         d="m 1328.96,1609.82 c -23.87,0 -43.29,-19.41 -43.29,-43.28 0,-23.86 19.42,-43.29 43.29,-43.29 23.87,0 43.29,19.43 43.29,43.29 0,23.87 -19.42,43.28 -43.29,43.28 z m 0,-10 c 18.38,0 33.29,-14.9 33.29,-33.28 0,-18.39 -14.91,-33.29 -33.29,-33.29 -18.38,0 -33.29,14.9 -33.29,33.29 0,18.38 14.91,33.28 33.29,33.28" /><path
         id="path520"
         style="fill:#999999;fill-opacity:1;fill-rule:nonzero;stroke:none"
         d="m 1958.6,1609.82 c -23.87,0 -43.29,-19.41 -43.29,-43.28 0,-23.86 19.42,-43.29 43.29,-43.29 23.87,0 43.28,19.43 43.28,43.29 0,23.87 -19.41,43.28 -43.28,43.28 z m 0,-10 c 18.38,0 33.28,-14.9 33.28,-33.28 0,-18.39 -14.9,-33.29 -33.28,-33.29 -18.39,0 -33.29,14.9 -33.29,33.29 0,18.38 14.9,33.28 33.29,33.28" /><path
         id="path522"
         style="fill:#999999;fill-opacity:1;fill-rule:nonzero;stroke:none"
         d="m 3214.74,1609.82 c -23.87,0 -43.28,-19.41 -43.28,-43.28 0,-23.86 19.41,-43.29 43.28,-43.29 23.86,0 43.28,19.43 43.28,43.29 0,23.87 -19.42,43.28 -43.28,43.28 z m 0,-10 c 18.38,0 33.28,-14.9 33.28,-33.28 0,-18.39 -14.9,-33.29 -33.28,-33.29 -18.38,0 -33.28,14.9 -33.28,33.29 0,18.38 14.9,33.28 33.28,33.28" /><path
         id="path524"
         style="fill:#999999;fill-opacity:1;fill-rule:nonzero;stroke:none"
         d="m 3844.38,1609.82 c -23.88,0 -43.3,-19.41 -43.3,-43.28 0,-23.86 19.42,-43.29 43.3,-43.29 23.87,0 43.29,19.43 43.29,43.29 0,23.87 -19.42,43.28 -43.29,43.28 z m 0,-10 c 18.38,0 33.29,-14.9 33.29,-33.28 0,-18.39 -14.91,-33.29 -33.29,-33.29 -18.39,0 -33.3,14.9 -33.3,33.29 0,18.38 14.91,33.28 33.3,33.28" /><path
         id="path526"
         style="fill:#999999;fill-opacity:1;fill-rule:nonzero;stroke:none"
         d="m 5100.52,1609.82 c -23.87,0 -43.28,-19.41 -43.28,-43.28 0,-23.86 19.41,-43.29 43.28,-43.29 23.86,0 43.28,19.43 43.28,43.29 0,23.87 -19.42,43.28 -43.28,43.28 z m 0,-10 c 18.38,0 33.28,-14.9 33.28,-33.28 0,-18.39 -14.9,-33.29 -33.28,-33.29 -18.38,0 -33.28,14.9 -33.28,33.29 0,18.38 14.9,33.28 33.28,33.28" /><path
         id="path528"
         style="fill:#999999;fill-opacity:1;fill-rule:nonzero;stroke:none"
         d="m 5730.15,1609.82 c -23.87,0 -43.28,-19.41 -43.28,-43.28 0,-23.86 19.41,-43.29 43.28,-43.29 23.87,0 43.3,19.43 43.3,43.29 0,23.87 -19.43,43.28 -43.3,43.28 z m 0,-10 c 18.39,0 33.3,-14.9 33.3,-33.28 0,-18.39 -14.91,-33.29 -33.3,-33.29 -18.38,0 -33.28,14.9 -33.28,33.29 0,18.38 14.9,33.28 33.28,33.28" /><path
         id="path530"
         style="fill:#999999;fill-opacity:1;fill-rule:nonzero;stroke:none"
         d="m 6986.3,1609.82 c -23.87,0 -43.28,-19.41 -43.28,-43.28 0,-23.86 19.41,-43.29 43.28,-43.29 23.87,0 43.28,19.43 43.28,43.29 0,23.87 -19.41,43.28 -43.28,43.28 z m 0,-10 c 18.38,0 33.28,-14.9 33.28,-33.28 0,-18.39 -14.9,-33.29 -33.28,-33.29 -18.38,0 -33.28,14.9 -33.28,33.29 0,18.38 14.9,33.28 33.28,33.28" /><path
         id="path532"
         style="fill:#999999;fill-opacity:1;fill-rule:nonzero;stroke:none"
         d="m 7615.93,1609.82 c -23.87,0 -43.28,-19.41 -43.28,-43.28 0,-23.86 19.41,-43.29 43.28,-43.29 23.87,0 43.3,19.43 43.3,43.29 0,23.87 -19.43,43.28 -43.3,43.28 z m 0,-10 c 18.4,0 33.3,-14.9 33.3,-33.28 0,-18.39 -14.9,-33.29 -33.3,-33.29 -18.38,0 -33.28,14.9 -33.28,33.29 0,18.38 14.9,33.28 33.28,33.28" /><path
         id="path534"
         style="fill:#999999;fill-opacity:1;fill-rule:nonzero;stroke:none"
         d="m 380.051,1070.49 c -23.867,0 -43.289,-19.42 -43.289,-43.28 0,-23.87 19.422,-43.288 43.289,-43.288 23.867,0 43.285,19.418 43.285,43.288 0,23.86 -19.418,43.28 -43.285,43.28 z m 0,-10 c 18.383,0 33.285,-14.9 33.285,-33.28 0,-18.39 -14.902,-33.288 -33.285,-33.288 -18.387,0 -33.289,14.898 -33.289,33.288 0,18.38 14.902,33.28 33.289,33.28" /><path
         id="path536"
         style="fill:#999999;fill-opacity:1;fill-rule:nonzero;stroke:none"
         d="m 1009.69,1070.49 c -23.87,0 -43.288,-19.42 -43.288,-43.28 0,-23.87 19.418,-43.288 43.288,-43.288 23.86,0 43.28,19.418 43.28,43.288 0,23.86 -19.42,43.28 -43.28,43.28 z m 0,-10 c 18.38,0 33.28,-14.9 33.28,-33.28 0,-18.39 -14.9,-33.288 -33.28,-33.288 -18.385,0 -33.288,14.898 -33.288,33.288 0,18.38 14.903,33.28 33.288,33.28" /><path
         id="path538"
         style="fill:#999999;fill-opacity:1;fill-rule:nonzero;stroke:none"
         d="m 2265.83,1070.49 c -23.87,0 -43.29,-19.42 -43.29,-43.28 0,-23.87 19.42,-43.288 43.29,-43.288 23.86,0 43.28,19.418 43.28,43.288 0,23.86 -19.42,43.28 -43.28,43.28 z m 0,-10 c 18.38,0 33.28,-14.9 33.28,-33.28 0,-18.39 -14.9,-33.288 -33.28,-33.288 -18.39,0 -33.29,14.898 -33.29,33.288 0,18.38 14.9,33.28 33.29,33.28" /><path
         id="path540"
         style="fill:#999999;fill-opacity:1;fill-rule:nonzero;stroke:none"
         d="m 2895.46,1070.49 c -23.86,0 -43.28,-19.42 -43.28,-43.28 0,-23.87 19.42,-43.288 43.28,-43.288 23.87,0 43.29,19.418 43.29,43.288 0,23.86 -19.42,43.28 -43.29,43.28 z m 0,-10 c 18.39,0 33.29,-14.9 33.29,-33.28 0,-18.39 -14.9,-33.288 -33.29,-33.288 -18.38,0 -33.28,14.898 -33.28,33.288 0,18.38 14.9,33.28 33.28,33.28" /><path
         id="path542"
         style="fill:#999999;fill-opacity:1;fill-rule:nonzero;stroke:none"
         d="m 4151.6,1070.49 c -23.87,0 -43.28,-19.42 -43.28,-43.28 0,-23.87 19.41,-43.288 43.28,-43.288 23.87,0 43.28,19.418 43.28,43.288 0,23.86 -19.41,43.28 -43.28,43.28 z m 0,-10 c 18.38,0 33.28,-14.9 33.28,-33.28 0,-18.39 -14.9,-33.288 -33.28,-33.288 -18.38,0 -33.28,14.898 -33.28,33.288 0,18.38 14.9,33.28 33.28,33.28" /><path
         id="path544"
         style="fill:#999999;fill-opacity:1;fill-rule:nonzero;stroke:none"
         d="m 4781.24,1070.49 c -23.87,0 -43.29,-19.42 -43.29,-43.28 0,-23.87 19.42,-43.288 43.29,-43.288 23.87,0 43.29,19.418 43.29,43.288 0,23.86 -19.42,43.28 -43.29,43.28 z m 0,-10 c 18.39,0 33.29,-14.9 33.29,-33.28 0,-18.39 -14.9,-33.288 -33.29,-33.288 -18.39,0 -33.29,14.898 -33.29,33.288 0,18.38 14.9,33.28 33.29,33.28" /><path
         id="path546"
         style="fill:#999999;fill-opacity:1;fill-rule:nonzero;stroke:none"
         d="m 6037.38,1070.49 c -23.86,0 -43.28,-19.42 -43.28,-43.28 0,-23.87 19.42,-43.288 43.28,-43.288 23.87,0 43.28,19.418 43.28,43.288 0,23.86 -19.41,43.28 -43.28,43.28 z m 0,-10 c 18.38,0 33.28,-14.9 33.28,-33.28 0,-18.39 -14.9,-33.288 -33.28,-33.288 -18.38,0 -33.28,14.898 -33.28,33.288 0,18.38 14.9,33.28 33.28,33.28" /><path
         id="path548"
         style="fill:#999999;fill-opacity:1;fill-rule:nonzero;stroke:none"
         d="m 6667.01,1070.49 c -23.87,0 -43.28,-19.42 -43.28,-43.28 0,-23.87 19.41,-43.288 43.28,-43.288 23.88,0 43.3,19.418 43.3,43.288 0,23.86 -19.42,43.28 -43.3,43.28 z m 0,-10 c 18.4,0 33.3,-14.9 33.3,-33.28 0,-18.39 -14.9,-33.288 -33.3,-33.288 -18.38,0 -33.28,14.898 -33.28,33.288 0,18.38 14.9,33.28 33.28,33.28" /><path
         id="path550"
         style="fill:#999999;fill-opacity:1;fill-rule:nonzero;stroke:none"
         d="m 7923.16,1070.49 c -23.86,0 -43.28,-19.42 -43.28,-43.28 0,-23.87 19.42,-43.288 43.28,-43.288 23.87,0 43.29,19.418 43.29,43.288 0,23.86 -19.42,43.28 -43.29,43.28 z m 0,-10 c 18.38,0 33.29,-14.9 33.29,-33.28 0,-18.39 -14.91,-33.288 -33.29,-33.288 -18.37,0 -33.28,14.898 -33.28,33.288 0,18.38 14.91,33.28 33.28,33.28" /><path
         id="path552"
         style="fill:#999999;fill-opacity:1;fill-rule:nonzero;stroke:none"
         d="m 72.8242,524.82 c -23.8672,0 -43.289,-19.41 -43.289,-43.281 0,-23.859 19.4218,-43.289 43.289,-43.289 23.8672,0 43.2848,19.43 43.2848,43.289 0,23.871 -19.4176,43.281 -43.2848,43.281 z m 0,-10 c 18.3828,0 33.2848,-14.898 33.2848,-33.281 0,-18.391 -14.902,-33.289 -33.2848,-33.289 -18.3867,0 -33.289,14.898 -33.289,33.289 0,18.383 14.9023,33.281 33.289,33.281" /><path
         id="path554"
         style="fill:#999999;fill-opacity:1;fill-rule:nonzero;stroke:none"
         d="m 1328.96,524.82 c -23.87,0 -43.29,-19.41 -43.29,-43.281 0,-23.859 19.42,-43.289 43.29,-43.289 23.87,0 43.29,19.43 43.29,43.289 0,23.871 -19.42,43.281 -43.29,43.281 z m 0,-10 c 18.38,0 33.29,-14.898 33.29,-33.281 0,-18.391 -14.91,-33.289 -33.29,-33.289 -18.38,0 -33.29,14.898 -33.29,33.289 0,18.383 14.91,33.281 33.29,33.281" /><path
         id="path556"
         style="fill:#999999;fill-opacity:1;fill-rule:nonzero;stroke:none"
         d="m 1958.6,524.82 c -23.87,0 -43.29,-19.41 -43.29,-43.281 0,-23.859 19.42,-43.289 43.29,-43.289 23.87,0 43.28,19.43 43.28,43.289 0,23.871 -19.41,43.281 -43.28,43.281 z m 0,-10 c 18.38,0 33.28,-14.898 33.28,-33.281 0,-18.391 -14.9,-33.289 -33.28,-33.289 -18.39,0 -33.29,14.898 -33.29,33.289 0,18.383 14.9,33.281 33.29,33.281" /><path
         id="path558"
         style="fill:#999999;fill-opacity:1;fill-rule:nonzero;stroke:none"
         d="m 3214.74,524.82 c -23.87,0 -43.28,-19.41 -43.28,-43.281 0,-23.859 19.41,-43.289 43.28,-43.289 23.86,0 43.28,19.43 43.28,43.289 0,23.871 -19.42,43.281 -43.28,43.281 z m 0,-10 c 18.38,0 33.28,-14.898 33.28,-33.281 0,-18.391 -14.9,-33.289 -33.28,-33.289 -18.38,0 -33.28,14.898 -33.28,33.289 0,18.383 14.9,33.281 33.28,33.281" /><path
         id="path560"
         style="fill:#999999;fill-opacity:1;fill-rule:nonzero;stroke:none"
         d="m 3844.38,524.82 c -23.88,0 -43.3,-19.41 -43.3,-43.281 0,-23.859 19.42,-43.289 43.3,-43.289 23.87,0 43.29,19.43 43.29,43.289 0,23.871 -19.42,43.281 -43.29,43.281 z m 0,-10 c 18.38,0 33.29,-14.898 33.29,-33.281 0,-18.391 -14.91,-33.289 -33.29,-33.289 -18.39,0 -33.3,14.898 -33.3,33.289 0,18.383 14.91,33.281 33.3,33.281" /><path
         id="path562"
         style="fill:#999999;fill-opacity:1;fill-rule:nonzero;stroke:none"
         d="m 5100.52,524.82 c -23.87,0 -43.28,-19.41 -43.28,-43.281 0,-23.859 19.41,-43.289 43.28,-43.289 23.86,0 43.28,19.43 43.28,43.289 0,23.871 -19.42,43.281 -43.28,43.281 z m 0,-10 c 18.38,0 33.28,-14.898 33.28,-33.281 0,-18.391 -14.9,-33.289 -33.28,-33.289 -18.38,0 -33.28,14.898 -33.28,33.289 0,18.383 14.9,33.281 33.28,33.281" /><path
         id="path564"
         style="fill:#999999;fill-opacity:1;fill-rule:nonzero;stroke:none"
         d="m 5730.15,524.82 c -23.87,0 -43.28,-19.41 -43.28,-43.281 0,-23.859 19.41,-43.289 43.28,-43.289 23.87,0 43.3,19.43 43.3,43.289 0,23.871 -19.43,43.281 -43.3,43.281 z m 0,-10 c 18.39,0 33.3,-14.898 33.3,-33.281 0,-18.391 -14.91,-33.289 -33.3,-33.289 -18.38,0 -33.28,14.898 -33.28,33.289 0,18.383 14.9,33.281 33.28,33.281" /><path
         id="path566"
         style="fill:#999999;fill-opacity:1;fill-rule:nonzero;stroke:none"
         d="m 6986.3,524.82 c -23.87,0 -43.28,-19.41 -43.28,-43.281 0,-23.859 19.41,-43.289 43.28,-43.289 23.87,0 43.28,19.43 43.28,43.289 0,23.871 -19.41,43.281 -43.28,43.281 z m 0,-10 c 18.38,0 33.28,-14.898 33.28,-33.281 0,-18.391 -14.9,-33.289 -33.28,-33.289 -18.38,0 -33.28,14.898 -33.28,33.289 0,18.383 14.9,33.281 33.28,33.281" /><path
         id="path568"
         style="fill:#999999;fill-opacity:1;fill-rule:nonzero;stroke:none"
         d="m 7615.93,524.82 c -23.87,0 -43.28,-19.41 -43.28,-43.281 0,-23.859 19.41,-43.289 43.28,-43.289 23.87,0 43.3,19.43 43.3,43.289 0,23.871 -19.43,43.281 -43.3,43.281 z m 0,-10 c 18.4,0 33.3,-14.898 33.3,-33.281 0,-18.391 -14.9,-33.289 -33.3,-33.289 -18.38,0 -33.28,14.898 -33.28,33.289 0,18.383 14.9,33.281 33.28,33.281" /></g></g></svg>