<svg width="420" height="370" xmlns="http://www.w3.org/2000/svg">
 <metadata id="metadata8">image/svg+xml</metadata>
 <defs>
  <clipPath clipPathUnits="userSpaceOnUse" id="clipPath294">
   <path d="m4085.6,7152.91l1182.67,0c503.28,0 911.27,-498.48 911.27,-1001.74l0,-229.02c0,-503.28 -407.99,-1001.74 -911.27,-1001.74l-40.56,0c-47.88,0 -86.67,-38.81 -86.67,-86.66l0,-252.129c0,-47.871 -38.78,-86.68 -86.66,-86.68c-17.98,0 -34.68,5.489 -48.53,14.86l-0.01,0.019c-3.29,2.231 -6.36,4.75 -9.31,7.391l-507.15,403.199l-403.78,0c-503.28,0 -911.57,498.46 -911.57,1001.74l0,229.02c0,503.26 408.29,1001.74 911.57,1001.74z" id="path292"/>
  </clipPath>
  <clipPath clipPathUnits="userSpaceOnUse" id="clipPath310">
   <path d="m4085.6,7152.91l919.22,0c34.91,-102.11 53.55,-209.26 53.55,-319.75c0,-695.04 -735.33,-1258.49 -1642.41,-1258.49c-61.22,0 -121.63,2.65 -181.13,7.65c-39.23,109.05 -60.8,224.3 -60.8,339.83l0,229.02c0,503.26 408.29,1001.74 911.57,1001.74z" id="path308"/>
  </clipPath>
  <clipPath clipPathUnits="userSpaceOnUse" id="clipPath328">
   <path d="m3174.77,6186.21c0.06,1.93 0.12,3.87 0.21,5.8c0.52,11.74 1.22,23.46 2.18,35.16l0.19,2.32c2.1,25.06 5.15,50.06 9.15,74.92c112.69,49.71 237.19,77.37 368.13,77.37c377.79,0 702.2,-229.69 842.82,-557.76c-273.83,-156.62 -613.52,-249.35 -981.49,-249.35c-61.22,0 -121.63,2.65 -181.13,7.65l-0.05,0.18c-14.67,40.78 -26.87,82.44 -36.39,124.65l-0.05,0.23c-3.04,13.46 -5.75,26.98 -8.23,40.53c-0.2,1.09 -0.41,2.17 -0.61,3.26c-2.32,12.99 -4.39,26.02 -6.2,39.08c-0.22,1.61 -0.44,3.19 -0.65,4.79c-1.72,12.83 -3.19,25.68 -4.4,38.57c-0.15,1.68 -0.29,3.36 -0.45,5.02c-1.14,12.99 -2.07,26 -2.68,39.01c-0.06,1.27 -0.09,2.54 -0.15,3.81c-0.59,13.55 -0.94,27.12 -0.94,40.7l0,229.02c0,11.68 0.3,23.38 0.74,35.04z" id="path326"/>
  </clipPath>
  <clipPath clipPathUnits="userSpaceOnUse" id="clipPath344">
   <path d="m4483.11,7152.91l785.16,0c503.28,0 911.27,-498.48 911.27,-1001.74l0,-229.02c0,-16.54 -0.47,-33.09 -1.35,-49.61c-173.3,-100.67 -376.27,-158.61 -593.28,-158.61c-338.53,0 -642.97,140.91 -853.79,365.29" id="path342"/>
  </clipPath>
  <clipPath clipPathUnits="userSpaceOnUse" id="clipPath360">
   <path d="m4622.45,6079.24c185.51,197.44 298.54,459.49 298.54,747.03c0,113.67 -17.7,223.34 -50.52,326.64l-521.72,0c-34.9,-102.11 -53.54,-209.26 -53.54,-319.75c0,-282.79 121.73,-543.79 327.24,-753.92z" id="path358"/>
  </clipPath>
  <clipPath clipPathUnits="userSpaceOnUse" id="clipPath376">
   <path d="m3660.4,5045.64c197.97,255.06 488.18,416.1 811.64,416.1c371.27,0 698.75,-212.11 893.18,-535.1c-31.85,-4.08 -64.19,-6.23 -96.95,-6.23l-40.56,0c-47.88,0 -86.67,-38.81 -86.67,-86.66l0,-252.129c0,-47.871 -38.78,-86.68 -86.66,-86.68c-17.98,0 -34.68,5.489 -48.53,14.86l-0.01,0.019c-3.29,2.231 -6.36,4.75 -9.31,7.391l-507.15,403.199l-403.78,0c-153.56,0 -298.23,46.46 -425.2,125.23z" id="path374"/>
  </clipPath>
  <clipPath clipPathUnits="userSpaceOnUse" id="clipPath392">
   <path d="m4050.91,4921.29c-6.12,0.27 -12.22,0.6 -18.3,1.03c-3.07,0.22 -6.12,0.45 -9.16,0.71c-5.98,0.49 -11.94,1.05 -17.88,1.68c-2.81,0.29 -5.62,0.58 -8.42,0.9c-7.08,0.84 -14.13,1.77 -21.16,2.79c-1.53,0.21 -3.07,0.41 -4.59,0.64c-8.83,1.33 -17.64,2.82 -26.39,4.46c-0.94,0.17 -1.86,0.39 -2.79,0.56c-7.68,1.47 -15.34,3.05 -22.94,4.75c-2.05,0.45 -4.09,0.94 -6.15,1.4c-6.69,1.55 -13.35,3.17 -19.99,4.89c-2,0.52 -3.99,1.03 -5.98,1.58c-7.28,1.93 -14.52,3.98 -21.74,6.13c-1.09,0.33 -2.21,0.63 -3.31,0.96c-17.45,5.29 -34.72,11.15 -51.75,17.6l-0.43,0.15c-8.22,3.11 -16.39,6.37 -24.51,9.75l-2.39,1c-7.88,3.3 -15.72,6.71 -23.49,10.25l-1.17,0.53c-33.66,15.39 -66.37,32.99 -97.97,52.59c197.96,255.06 488.16,416.08 811.61,416.1l0.03,-2.62c0,-201.09 -64,-387.13 -172.6,-538.71l-213.84,0c-8.85,0 -17.66,0.2 -26.45,0.49c-2.75,0.1 -5.49,0.25 -8.24,0.39z" id="path390"/>
  </clipPath>
  <linearGradient x1="1" y1="0.500002" x2="0" y2="0.500002" spreadMethod="pad" id="linearGradient300">
   <stop stop-color="#44c2e1" offset="0" id="stop296"/>
   <stop stop-color="#11a7e8" offset="1" id="stop298"/>
  </linearGradient>
  <linearGradient x1="1" y1="0.5" x2="0" y2="0.5" spreadMethod="pad" id="linearGradient316">
   <stop stop-color="#20b7e4" offset="0" id="stop312"/>
   <stop stop-color="#3d48a5" offset="1" id="stop314"/>
  </linearGradient>
  <linearGradient x1="-0.37029" y1="-0.201608" x2="2.703053" y2="2.635675" spreadMethod="pad" id="linearGradient334">
   <stop stop-color="#11a7e8" offset="0" id="stop330"/>
   <stop stop-color="#90dbea" offset="1" id="stop332"/>
  </linearGradient>
  <linearGradient x1="-0.044983" y1="1.130259" x2="1.145753" y2="-0.217918" spreadMethod="pad" id="linearGradient350">
   <stop stop-color="#5969bb" offset="0" id="stop346"/>
   <stop stop-color="#20b7e4" offset="1" id="stop348"/>
  </linearGradient>
  <linearGradient x1="0.483061" y1="-0.427524" x2="0.507021" y2="1.165069" spreadMethod="pad" id="linearGradient366">
   <stop stop-color="#5969bb" offset="0" id="stop362"/>
   <stop stop-color="#20b7e4" offset="1" id="stop364"/>
  </linearGradient>
  <linearGradient x1="1.163026" y1="-0.760055" x2="0.224505" y2="1.060395" spreadMethod="pad" id="linearGradient382">
   <stop stop-color="#5969bb" offset="0" id="stop378"/>
   <stop stop-color="#20b7e4" offset="1" id="stop380"/>
  </linearGradient>
  <linearGradient x1="-0.007294" y1="-0.643619" x2="1.163182" y2="1.573162" spreadMethod="pad" id="linearGradient398">
   <stop stop-color="#3d48a5" offset="0" id="stop394"/>
   <stop stop-color="#3d48a5" offset="1" id="stop396"/>
  </linearGradient>
 </defs>
 <g>
  <title>background</title>
  <rect fill="none" id="canvas_background" height="372" width="422" y="-1" x="-1"/>
 </g>
 <g>
  <title>Layer 1</title>
  <g id="g10" transform="matrix(1.3333333,0,0,-1.3333333,0,1066.6667) ">
   <g id="g12" transform="translate(-311.25,78) scale(0.10000000149011612) ">
    <g id="g288">
     <g id="g290" clip-path="url(#clipPath294)">
      <path fill="url(#linearGradient300)" fill-rule="nonzero" d="m4085.6,7152.91l1182.67,0c503.28,0 911.27,-498.48 911.27,-1001.74l0,-229.02c0,-503.28 -407.99,-1001.74 -911.27,-1001.74l-40.56,0c-47.88,0 -86.67,-38.81 -86.67,-86.66l0,-252.129c0,-47.871 -38.78,-86.68 -86.66,-86.68c-17.98,0 -34.68,5.489 -48.53,14.86l-0.01,0.019c-3.29,2.231 -6.36,4.75 -9.31,7.391l-507.15,403.199l-403.78,0c-503.28,0 -911.57,498.46 -911.57,1001.74l0,229.02c0,503.26 408.29,1001.74 911.57,1001.74" id="path302"/>
     </g>
    </g>
    <g id="g304">
     <g id="g306" clip-path="url(#clipPath310)">
      <path fill="url(#linearGradient316)" fill-rule="nonzero" d="m4085.6,7152.91l919.22,0c34.91,-102.11 53.55,-209.26 53.55,-319.75c0,-695.04 -735.33,-1258.49 -1642.41,-1258.49c-61.22,0 -121.63,2.65 -181.13,7.65c-39.23,109.05 -60.8,224.3 -60.8,339.83l0,229.02c0,503.26 408.29,1001.74 911.57,1001.74" id="path318"/>
     </g>
    </g>
    <path fill="#3068bb" fill-rule="nonzero" d="m4397.5,5824.04c47.97,-111.93 74.54,-235.29 74.54,-364.92c0,-201.09 -64,-387.13 -172.6,-538.71l-213.84,0c-503.28,0 -911.57,498.46 -911.57,1001.74l0,229.02c0,51.31 4.32,102.56 12.47,153.24" id="path320"/>
    <g id="g322">
     <g id="g324" clip-path="url(#clipPath328)">
      <path fill="url(#linearGradient334)" fill-rule="nonzero" d="m3174.77,6186.21c0.06,1.93 0.12,3.87 0.21,5.8c0.52,11.74 1.22,23.46 2.18,35.16l0.19,2.32c2.1,25.06 5.15,50.06 9.15,74.92c112.69,49.71 237.19,77.37 368.13,77.37c377.79,0 702.2,-229.69 842.82,-557.76c-273.83,-156.62 -613.52,-249.35 -981.49,-249.35c-61.22,0 -121.63,2.65 -181.13,7.65l-0.05,0.18c-14.67,40.78 -26.87,82.44 -36.39,124.65l-0.05,0.23c-3.04,13.46 -5.75,26.98 -8.23,40.53c-0.2,1.09 -0.41,2.17 -0.61,3.26c-2.32,12.99 -4.39,26.02 -6.2,39.08c-0.22,1.61 -0.44,3.19 -0.65,4.79c-1.72,12.83 -3.19,25.68 -4.4,38.57c-0.15,1.68 -0.29,3.36 -0.45,5.02c-1.14,12.99 -2.07,26 -2.68,39.01c-0.06,1.27 -0.09,2.54 -0.15,3.81c-0.59,13.55 -0.94,27.12 -0.94,40.7l0,229.02c0,11.68 0.3,23.38 0.74,35.04" id="path336"/>
     </g>
    </g>
    <g id="g338">
     <g id="g340" clip-path="url(#clipPath344)">
      <path fill="url(#linearGradient350)" fill-rule="nonzero" d="m4483.11,7152.91l785.16,0c503.28,0 911.27,-498.48 911.27,-1001.74l0,-229.02c0,-16.54 -0.47,-33.09 -1.35,-49.61c-173.3,-100.67 -376.27,-158.61 -593.28,-158.61c-338.53,0 -642.97,140.91 -853.79,365.29" id="path352"/>
     </g>
    </g>
    <g id="g354">
     <g id="g356" clip-path="url(#clipPath360)">
      <path fill="url(#linearGradient366)" fill-rule="nonzero" d="m4622.45,6079.24c185.51,197.44 298.54,459.49 298.54,747.03c0,113.67 -17.7,223.34 -50.52,326.64l-521.72,0c-34.9,-102.11 -53.54,-209.26 -53.54,-319.75c0,-282.79 121.73,-543.79 327.24,-753.92" id="path368"/>
     </g>
    </g>
    <g id="g370">
     <g id="g372" clip-path="url(#clipPath376)">
      <path fill="url(#linearGradient382)" fill-rule="nonzero" d="m3660.4,5045.64c197.97,255.06 488.18,416.1 811.64,416.1c371.27,0 698.75,-212.11 893.18,-535.1c-31.85,-4.08 -64.19,-6.23 -96.95,-6.23l-40.56,0c-47.88,0 -86.67,-38.81 -86.67,-86.66l0,-252.129c0,-47.871 -38.78,-86.68 -86.66,-86.68c-17.98,0 -34.68,5.489 -48.53,14.86l-0.01,0.019c-3.29,2.231 -6.36,4.75 -9.31,7.391l-507.15,403.199l-403.78,0c-153.56,0 -298.23,46.46 -425.2,125.23" id="path384"/>
     </g>
    </g>
    <g id="g386">
     <g id="g388" clip-path="url(#clipPath392)">
      <path fill="url(#linearGradient398)" fill-rule="nonzero" d="m4050.91,4921.29c-6.12,0.27 -12.22,0.6 -18.3,1.03c-3.07,0.22 -6.12,0.45 -9.16,0.71c-5.98,0.49 -11.94,1.05 -17.88,1.68c-2.81,0.29 -5.62,0.58 -8.42,0.9c-7.08,0.84 -14.13,1.77 -21.16,2.79c-1.53,0.21 -3.07,0.41 -4.59,0.64c-8.83,1.33 -17.64,2.82 -26.39,4.46c-0.94,0.17 -1.86,0.39 -2.79,0.56c-7.68,1.47 -15.34,3.05 -22.94,4.75c-2.05,0.45 -4.09,0.94 -6.15,1.4c-6.69,1.55 -13.35,3.17 -19.99,4.89c-2,0.52 -3.99,1.03 -5.98,1.58c-7.28,1.93 -14.52,3.98 -21.74,6.13c-1.09,0.33 -2.21,0.63 -3.31,0.96c-17.45,5.29 -34.72,11.15 -51.75,17.6l-0.43,0.15c-8.22,3.11 -16.39,6.37 -24.51,9.75l-2.39,1c-7.88,3.3 -15.72,6.71 -23.49,10.25l-1.17,0.53c-33.66,15.39 -66.37,32.99 -97.97,52.59c197.96,255.06 488.16,416.08 811.61,416.1l0.03,-2.62c0,-201.09 -64,-387.13 -172.6,-538.71l-213.84,0c-8.85,0 -17.66,0.2 -26.45,0.49c-2.75,0.1 -5.49,0.25 -8.24,0.39" id="path400"/>
     </g>
    </g>
   </g>
  </g>
 </g>
</svg>