<svg width="252" height="160" xmlns="http://www.w3.org/2000/svg">
 <metadata id="metadata8">image/svg+xml</metadata>
 <defs>
  <clipPath clipPathUnits="userSpaceOnUse" id="clipPath22">
   <path d="m131.402,3009.46l2635.2,0l0,121.543l-2635.2,0l0,-121.543z" id="path20" stroke="null"/>
  </clipPath>
  <clipPath clipPathUnits="userSpaceOnUse" id="clipPath34">
   <path d="m131.402,1321.66l0,0l0,1687.8l2635.198,0l0,-1199.86l-2635.198,0l0,-487.94" id="path32" stroke="null"/>
  </clipPath>
  <clipPath clipPathUnits="userSpaceOnUse" id="clipPath46">
   <path d="m1934.1,892.5l-2635.198,0l0,129.461l2635.198,0l0,-129.461" id="path44" stroke="null"/>
  </clipPath>
  <clipPath clipPathUnits="userSpaceOnUse" id="clipPath58">
   <path d="m2766.6,129.461l-2635.198,0l0,1192.199l2635.198,0l0,487.94l0,-1680.139" id="path56" stroke="null"/>
  </clipPath>
  <clipPath clipPathUnits="userSpaceOnUse" id="clipPath70">
   <path d="m2766.6,1321.66l-2635.198,0l0,487.94l2635.198,0l0,-487.94" id="path68" stroke="null"/>
  </clipPath>
 </defs>
 <g stroke="null">
  <title>background</title>
  <rect fill="none" id="canvas_background" height="162" width="254" y="-1" x="-1" stroke="null"/>
 </g>
 <g stroke="null">
  <title>Layer 1</title>
  <g id="svg_1">
   <path fill="#1e90ff" fill-rule="nonzero" d="m252.605214,-1.306729l-47.13732,114.86128c0,0 -11.02828,24.97524 -53.12991,24.97524l157.38385,0l-57.11662,-0.04079" id="path78" stroke="null"/>
   <path fill="#5865aa" fill-rule="nonzero" d="m252.554664,12.693341l-42.92533,97.61173c0,0 -9.264,21.22453 -32.292,21.22453l75.21733,0l0,-118.83626" id="path80" stroke="null"/>
   <path fill="#192745" fill-rule="nonzero" d="m-5.030266,131.529601l0,28.57187l257.69427,0l0,-28.57187l-0.10934,0l0,-64.52426l-42.92533,52.99973c0,0 -9.264,11.52453 -32.292,11.52453l-182.3676,0" id="path82" stroke="null"/>
   <path fill="#1e90ff" fill-rule="nonzero" d="m-5.031196,160.286941l257.69333,0l0,-4.82708l-257.69333,0l0,4.82708z" id="path312" stroke="null"/>
  </g>
 </g>
</svg>