<svg width="1333.3333" height="1333.3333" xmlns="http://www.w3.org/2000/svg">
 <metadata id="metadata8">image/svg+xml</metadata>
 <defs>
  <linearGradient y2="0" x2="1" y1="0" x1="0" id="svg_13">
   <stop offset="0" stop-color="transparent"/>
   <stop offset="1" stop-color="transparent"/>
  </linearGradient>
  <linearGradient y2="0.09375" x2="0.96875" y1="0.820313" x1="0.179688" id="svg_23">
   <stop offset="0" stop-color="#90d0e8"/>
   <stop offset="0.672656" stop-color="#50b7e4"/>
  </linearGradient>
 </defs>
 <g>
  <title>background</title>
  <rect fill="none" id="canvas_background" height="402" width="582" y="-1" x="-1"/>
 </g>
 <g>
  <title>Layer 1</title>
  <path transform="rotate(-90 1261.0246582031252,668.3978881835939) " stroke="url(#svg_13)" id="svg_11" d="m567.017169,64.502296l1388.01476,-402.596959l0,2012.985056l-1388.01476,0l0,-1610.388097z" stroke-width="null" fill="url(#svg_23)"/>
  <g opacity="0.05" id="svg_19">
   <g id="svg_16">
    <path fill="#ffffff" fill-rule="nonzero" d="m480.999995,699.999973l19,-19l19,19l-19,19l-19,-19" id="path314"/>
    <path fill="#c4c4c4" fill-rule="nonzero" d="m547.666661,699.999973l19,-19l19,19l-19,19l-19,-19" id="path354"/>
    <path fill="#c5c5c5" fill-rule="nonzero" d="m546.399994,766.666639l20.266666,-20.266666l20.266666,20.266666l-20.266666,20.266666l-20.266666,-20.266666" id="path356"/>
    <path fill="#d3d3d3" fill-rule="nonzero" d="m545.133328,833.333305l21.533333,-21.533333l21.533333,21.533333l-21.533333,21.533333l-21.533333,-21.533333" id="path358"/>
    <path fill="#c2c2c2" fill-rule="nonzero" d="m543.866661,899.999971l22.8,-22.8l22.8,22.8l-22.8,22.8l-22.8,-22.8" id="path360"/>
    <path fill="#ffffff" fill-rule="nonzero" d="m614.333327,699.999973l19,-19l19,19l-19,19l-19,-19" id="path394"/>
    <path fill="#ffffff" fill-rule="nonzero" d="m613.06666,766.666639l20.266666,-20.266666l20.266666,20.266666l-20.266666,20.266666l-20.266666,-20.266666" id="path396"/>
    <path fill="#e4e4e4" fill-rule="nonzero" d="m611.799994,833.333305l21.533333,-21.533333l21.533333,21.533333l-21.533333,21.533333l-21.533333,-21.533333" id="path398"/>
    <path fill="#ffffff" fill-rule="nonzero" d="m610.533327,899.999971l22.8,-22.8l22.8,22.8l-22.8,22.8l-22.8,-22.8" id="path400"/>
    <path fill="#f6f6f6" fill-rule="nonzero" d="m609.266661,966.666637l24.066666,-24.066666l24.066666,24.066666l-24.066666,24.066666l-24.066666,-24.066666" id="path402"/>
    <path fill="#ffffff" fill-rule="nonzero" d="m607.999994,1033.333303l25.333333,-25.333333l25.333333,25.333333l-25.333333,25.333333l-25.333333,-25.333333" id="path404"/>
    <path fill="#e3e3e3" fill-rule="nonzero" d="m606.733327,1099.999969l26.6,-26.6l26.6,26.6l-26.6,26.6l-26.6,-26.6" id="path406"/>
    <path fill="#c4c4c4" fill-rule="nonzero" d="m680.999993,699.999973l19,-19l19,19l-19,19l-19,-19" id="path434"/>
    <path fill="#f6f6f6" fill-rule="nonzero" d="m679.733326,766.666639l20.266666,-20.266666l20.266666,20.266666l-20.266666,20.266666l-20.266666,-20.266666" id="path436"/>
    <path fill="#ffffff" fill-rule="nonzero" d="m678.46666,833.333305l21.533333,-21.533333l21.533333,21.533333l-21.533333,21.533333l-21.533333,-21.533333" id="path438"/>
    <path fill="#f4f4f4" fill-rule="nonzero" d="m677.199993,899.999971l22.8,-22.8l22.8,22.8l-22.8,22.8l-22.8,-22.8" id="path440"/>
    <path fill="#dcdcdc" fill-rule="nonzero" d="m675.933327,966.666637l24.066666,-24.066666l24.066666,24.066666l-24.066666,24.066666l-24.066666,-24.066666" id="path442"/>
    <path fill="#ffffff" fill-rule="nonzero" d="m674.66666,1033.333303l25.333333,-25.333333l25.333333,25.333333l-25.333333,25.333333l-25.333333,-25.333333" id="path444"/>
    <path fill="#cfcfcf" fill-rule="nonzero" d="m673.399993,1099.999969l26.6,-26.6l26.6,26.6l-26.6,26.6l-26.6,-26.6" id="path446"/>
    <path fill="#d3d3d3" fill-rule="nonzero" d="m672.133327,1166.666635l27.866666,-27.866666l27.866666,27.866666l-27.866666,27.866666l-27.866666,-27.866666" id="path448"/>
    <path fill="#afafaf" fill-rule="nonzero" d="m670.86666,1233.333301l29.133333,-29.133333l29.133333,29.133333l-29.133333,29.133333l-29.133333,-29.133333" id="path450"/>
    <path fill="#bfbfbf" fill-rule="nonzero" d="m669.599993,1299.999967l30.4,-30.4l30.4,30.4l-30.4,30.4l-30.4,-30.4" id="path452"/>
    <path fill="#eaeaea" fill-rule="nonzero" d="m747.666659,699.999973l19,-19l19,19l-19,19l-19,-19" id="path474"/>
    <path fill="#dedede" fill-rule="nonzero" d="m746.399992,766.666639l20.266666,-20.266666l20.266666,20.266666l-20.266666,20.266666l-20.266666,-20.266666" id="path476"/>
    <path fill="#f3f3f3" fill-rule="nonzero" d="m745.133326,833.333305l21.533333,-21.533333l21.533333,21.533333l-21.533333,21.533333l-21.533333,-21.533333" id="path478"/>
    <path fill="#bbbbbb" fill-rule="nonzero" d="m743.866659,899.999971l22.8,-22.8l22.8,22.8l-22.8,22.8l-22.8,-22.8" id="path480"/>
    <path fill="#e5e5e5" fill-rule="nonzero" d="m742.599993,966.666637l24.066666,-24.066666l24.066666,24.066666l-24.066666,24.066666l-24.066666,-24.066666" id="path482"/>
    <path fill="#c9c9c9" fill-rule="nonzero" d="m741.333326,1033.333303l25.333333,-25.333333l25.333333,25.333333l-25.333333,25.333333l-25.333333,-25.333333" id="path484"/>
    <path fill="#f1f1f1" fill-rule="nonzero" d="m740.066659,1099.999969l26.6,-26.6l26.6,26.6l-26.6,26.6l-26.6,-26.6" id="path486"/>
    <path fill="#cccccc" fill-rule="nonzero" d="m738.799993,1166.666635l27.866666,-27.866666l27.866666,27.866666l-27.866666,27.866666l-27.866666,-27.866666" id="path488"/>
    <path fill="#c3c3c3" fill-rule="nonzero" d="m737.533326,1233.333301l29.133333,-29.133333l29.133333,29.133333l-29.133333,29.133333l-29.133333,-29.133333" id="path490"/>
    <path fill="#c1c1c1" fill-rule="nonzero" d="m736.266659,1299.999967l30.4,-30.4l30.4,30.4l-30.4,30.4l-30.4,-30.4" id="path492"/>
    <path fill="#b1b1b1" fill-rule="nonzero" d="m814.333325,699.999973l19,-19l19,19l-19,19l-19,-19" id="path514"/>
    <path fill="#b2b2b2" fill-rule="nonzero" d="m813.066658,766.666639l20.266666,-20.266666l20.266666,20.266666l-20.266666,20.266666l-20.266666,-20.266666" id="path516"/>
    <path fill="#ffffff" fill-rule="nonzero" d="m811.799992,833.333305l21.533333,-21.533333l21.533333,21.533333l-21.533333,21.533333l-21.533333,-21.533333" id="path518"/>
    <path fill="#ffffff" fill-rule="nonzero" d="m810.533325,899.999971l22.8,-22.8l22.8,22.8l-22.8,22.8l-22.8,-22.8" id="path520"/>
    <path fill="#e2e2e2" fill-rule="nonzero" d="m809.266658,966.666637l24.066666,-24.066666l24.066666,24.066666l-24.066666,24.066666l-24.066666,-24.066666" id="path522"/>
    <path fill="#d5d5d5" fill-rule="nonzero" d="m807.999992,1033.333303l25.333333,-25.333333l25.333333,25.333333l-25.333333,25.333333l-25.333333,-25.333333" id="path524"/>
    <path fill="#ffffff" fill-rule="nonzero" d="m806.733325,1099.999969l26.6,-26.6l26.6,26.6l-26.6,26.6l-26.6,-26.6" id="path526"/>
    <path fill="#bcbcbc" fill-rule="nonzero" d="m805.466659,1166.666635l27.866666,-27.866666l27.866666,27.866666l-27.866666,27.866666l-27.866666,-27.866666" id="path528"/>
    <path fill="#e4e4e4" fill-rule="nonzero" d="m804.199992,1233.333301l29.133333,-29.133333l29.133333,29.133333l-29.133333,29.133333l-29.133333,-29.133333" id="path530"/>
    <path fill="#c6c6c6" fill-rule="nonzero" d="m802.933325,1299.999967l30.4,-30.4l30.4,30.4l-30.4,30.4l-30.4,-30.4" id="path532"/>
    <path fill="#d1d1d1" fill-rule="nonzero" d="m880.999991,699.999973l19,-19l19,19l-19,19l-19,-19" id="path554"/>
    <path fill="#ffffff" fill-rule="nonzero" d="m879.733324,766.666639l20.266666,-20.266666l20.266666,20.266666l-20.266666,20.266666l-20.266666,-20.266666" id="path556"/>
    <path fill="#f5f5f5" fill-rule="nonzero" d="m878.466658,833.333305l21.533333,-21.533333l21.533333,21.533333l-21.533333,21.533333l-21.533333,-21.533333" id="path558"/>
    <path fill="#b8b8b8" fill-rule="nonzero" d="m877.199991,899.999971l22.8,-22.8l22.8,22.8l-22.8,22.8l-22.8,-22.8" id="path560"/>
    <path fill="#dddddd" fill-rule="nonzero" d="m875.933324,966.666637l24.066666,-24.066666l24.066666,24.066666l-24.066666,24.066666l-24.066666,-24.066666" id="path562"/>
    <path fill="#ffffff" fill-rule="nonzero" d="m874.666658,1033.333303l25.333333,-25.333333l25.333333,25.333333l-25.333333,25.333333l-25.333333,-25.333333" id="path564"/>
    <path fill="#e5e5e5" fill-rule="nonzero" d="m873.399991,1099.999969l26.6,-26.6l26.6,26.6l-26.6,26.6l-26.6,-26.6" id="path566"/>
    <path fill="#d9d9d9" fill-rule="nonzero" d="m872.133325,1166.666635l27.866666,-27.866666l27.866666,27.866666l-27.866666,27.866666l-27.866666,-27.866666" id="path568"/>
    <path fill="#e3e3e3" fill-rule="nonzero" d="m870.866658,1233.333301l29.133333,-29.133333l29.133333,29.133333l-29.133333,29.133333l-29.133333,-29.133333" id="path570"/>
    <path fill="#e9e9e9" fill-rule="nonzero" d="m869.599991,1299.999967l30.4,-30.4l30.4,30.4l-30.4,30.4l-30.4,-30.4" id="path572"/>
    <path fill="#e2e2e2" fill-rule="nonzero" d="m947.666657,699.999973l19,-19l19,19l-19,19l-19,-19" id="path594"/>
    <path fill="#c5c5c5" fill-rule="nonzero" d="m946.39999,766.666639l20.266666,-20.266666l20.266666,20.266666l-20.266666,20.266666l-20.266666,-20.266666" id="path596"/>
    <path fill="#afafaf" fill-rule="nonzero" d="m945.133324,833.333305l21.533333,-21.533333l21.533333,21.533333l-21.533333,21.533333l-21.533333,-21.533333" id="path598"/>
    <path fill="#acacac" fill-rule="nonzero" d="m943.866657,899.999971l22.8,-22.8l22.8,22.8l-22.8,22.8l-22.8,-22.8" id="path600"/>
    <path fill="#ffffff" fill-rule="nonzero" d="m942.59999,966.666637l24.066666,-24.066666l24.066666,24.066666l-24.066666,24.066666l-24.066666,-24.066666" id="path602"/>
    <path fill="#ffffff" fill-rule="nonzero" d="m941.333324,1033.333303l25.333333,-25.333333l25.333333,25.333333l-25.333333,25.333333l-25.333333,-25.333333" id="path604"/>
    <path fill="#cccccc" fill-rule="nonzero" d="m940.066657,1099.999969l26.6,-26.6l26.6,26.6l-26.6,26.6l-26.6,-26.6" id="path606"/>
    <path fill="#ffffff" fill-rule="nonzero" d="m938.799991,1166.666635l27.866666,-27.866666l27.866666,27.866666l-27.866666,27.866666l-27.866666,-27.866666" id="path608"/>
    <path fill="#cbcbcb" fill-rule="nonzero" d="m937.533324,1233.333301l29.133333,-29.133333l29.133333,29.133333l-29.133333,29.133333l-29.133333,-29.133333" id="path610"/>
    <path fill="#ffffff" fill-rule="nonzero" d="m936.266657,1299.999967l30.4,-30.4l30.4,30.4l-30.4,30.4l-30.4,-30.4" id="path612"/>
    <path fill="#b3b3b3" fill-rule="nonzero" d="m1014.333323,699.999973l19,-19l19,19l-19,19l-19,-19" id="path634"/>
    <path fill="#fcfcfc" fill-rule="nonzero" d="m1013.066656,766.666639l20.266666,-20.266666l20.266666,20.266666l-20.266666,20.266666l-20.266666,-20.266666" id="path636"/>
    <path fill="#cfcfcf" fill-rule="nonzero" d="m1011.79999,833.333305l21.533333,-21.533333l21.533333,21.533333l-21.533333,21.533333l-21.533333,-21.533333" id="path638"/>
    <path fill="#f6f6f6" fill-rule="nonzero" d="m1010.533323,899.999971l22.8,-22.8l22.8,22.8l-22.8,22.8l-22.8,-22.8" id="path640"/>
    <path fill="#c3c3c3" fill-rule="nonzero" d="m1009.266656,966.666637l24.066666,-24.066666l24.066666,24.066666l-24.066666,24.066666l-24.066666,-24.066666" id="path642"/>
    <path fill="#e2e2e2" fill-rule="nonzero" d="m1007.99999,1033.333303l25.333333,-25.333333l25.333333,25.333333l-25.333333,25.333333l-25.333333,-25.333333" id="path644"/>
    <path fill="#ffffff" fill-rule="nonzero" d="m1006.733323,1099.999969l26.6,-26.6l26.6,26.6l-26.6,26.6l-26.6,-26.6" id="path646"/>
    <path fill="#dedede" fill-rule="nonzero" d="m1005.466657,1166.666635l27.866666,-27.866666l27.866666,27.866666l-27.866666,27.866666l-27.866666,-27.866666" id="path648"/>
    <path fill="#e1e1e1" fill-rule="nonzero" d="m1004.19999,1233.333301l29.133333,-29.133333l29.133333,29.133333l-29.133333,29.133333l-29.133333,-29.133333" id="path650"/>
    <path fill="#c7c7c7" fill-rule="nonzero" d="m1002.933323,1299.999967l30.4,-30.4l30.4,30.4l-30.4,30.4l-30.4,-30.4" id="path652"/>
    <path fill="#c5c5c5" fill-rule="nonzero" d="m1080.999989,699.999973l19,-19l19,19l-19,19l-19,-19" id="path674"/>
    <path fill="#ffffff" fill-rule="nonzero" d="m1079.733322,766.666639l20.266666,-20.266666l20.266666,20.266666l-20.266666,20.266666l-20.266666,-20.266666" id="path676"/>
    <path fill="#cfcfcf" fill-rule="nonzero" d="m1078.466656,833.333305l21.533333,-21.533333l21.533333,21.533333l-21.533333,21.533333l-21.533333,-21.533333" id="path678"/>
    <path fill="#e2e2e2" fill-rule="nonzero" d="m1077.199989,899.999971l22.8,-22.8l22.8,22.8l-22.8,22.8l-22.8,-22.8" id="path680"/>
    <path fill="#fdfdfd" fill-rule="nonzero" d="m1075.933322,966.666637l24.066666,-24.066666l24.066666,24.066666l-24.066666,24.066666l-24.066666,-24.066666" id="path682"/>
    <path fill="#e6e6e6" fill-rule="nonzero" d="m1074.666656,1033.333303l25.333333,-25.333333l25.333333,25.333333l-25.333333,25.333333l-25.333333,-25.333333" id="path684"/>
    <path fill="#ffffff" fill-rule="nonzero" d="m1073.399989,1099.999969l26.6,-26.6l26.6,26.6l-26.6,26.6l-26.6,-26.6" id="path686"/>
    <path fill="#f9f9f9" fill-rule="nonzero" d="m1072.133323,1166.666635l27.866666,-27.866666l27.866666,27.866666l-27.866666,27.866666l-27.866666,-27.866666" id="path688"/>
    <path fill="#bcbcbc" fill-rule="nonzero" d="m1070.866656,1233.333301l29.133333,-29.133333l29.133333,29.133333l-29.133333,29.133333l-29.133333,-29.133333" id="path690"/>
    <path fill="#f0f0f0" fill-rule="nonzero" d="m1069.599989,1299.999967l30.4,-30.4l30.4,30.4l-30.4,30.4l-30.4,-30.4" id="path692"/>
    <path fill="#e9e9e9" fill-rule="nonzero" d="m1147.666655,699.999973l19,-19l19,19l-19,19l-19,-19" id="path714"/>
    <path fill="#ffffff" fill-rule="nonzero" d="m1146.399988,766.666639l20.266666,-20.266666l20.266666,20.266666l-20.266666,20.266666l-20.266666,-20.266666" id="path716"/>
    <path fill="#d7d7d7" fill-rule="nonzero" d="m1145.133322,833.333305l21.533333,-21.533333l21.533333,21.533333l-21.533333,21.533333l-21.533333,-21.533333" id="path718"/>
    <path fill="#e3e3e3" fill-rule="nonzero" d="m1143.866655,899.999971l22.8,-22.8l22.8,22.8l-22.8,22.8l-22.8,-22.8" id="path720"/>
    <path fill="#ececec" fill-rule="nonzero" d="m1142.599988,966.666637l24.066666,-24.066666l24.066666,24.066666l-24.066666,24.066666l-24.066666,-24.066666" id="path722"/>
    <path fill="#ffffff" fill-rule="nonzero" d="m1141.333322,1033.333303l25.333333,-25.333333l25.333333,25.333333l-25.333333,25.333333l-25.333333,-25.333333" id="path724"/>
    <path fill="#f2f2f2" fill-rule="nonzero" d="m1140.066655,1099.999969l26.6,-26.6l26.6,26.6l-26.6,26.6l-26.6,-26.6" id="path726"/>
    <path fill="#bdbdbd" fill-rule="nonzero" d="m1138.799988,1166.666635l27.866666,-27.866666l27.866666,27.866666l-27.866666,27.866666l-27.866666,-27.866666" id="path728"/>
    <path fill="#ffffff" fill-rule="nonzero" d="m1137.533322,1233.333301l29.133333,-29.133333l29.133333,29.133333l-29.133333,29.133333l-29.133333,-29.133333" id="path730"/>
    <path fill="#b3b3b3" fill-rule="nonzero" d="m1136.266655,1299.999967l30.4,-30.4l30.4,30.4l-30.4,30.4l-30.4,-30.4" id="path732"/>
    <path fill="#b3b3b3" fill-rule="nonzero" d="m1214.333321,699.999973l19,-19l19,19l-19,19l-19,-19" id="path754"/>
    <path fill="#ffffff" fill-rule="nonzero" d="m1213.066654,766.666639l20.266666,-20.266666l20.266666,20.266666l-20.266666,20.266666l-20.266666,-20.266666" id="path756"/>
    <path fill="#d5d5d5" fill-rule="nonzero" d="m1211.799988,833.333305l21.533333,-21.533333l21.533333,21.533333l-21.533333,21.533333l-21.533333,-21.533333" id="path758"/>
    <path fill="#b8b8b8" fill-rule="nonzero" d="m1210.533321,899.999971l22.8,-22.8l22.8,22.8l-22.8,22.8l-22.8,-22.8" id="path760"/>
    <path fill="#d8d8d8" fill-rule="nonzero" d="m1209.266654,966.666637l24.066666,-24.066666l24.066666,24.066666l-24.066666,24.066666l-24.066666,-24.066666" id="path762"/>
    <path fill="#f5f5f5" fill-rule="nonzero" d="m1207.999988,1033.333303l25.333333,-25.333333l25.333333,25.333333l-25.333333,25.333333l-25.333333,-25.333333" id="path764"/>
    <path fill="#ffffff" fill-rule="nonzero" d="m1206.733321,1099.999969l26.6,-26.6l26.6,26.6l-26.6,26.6l-26.6,-26.6" id="path766"/>
    <path fill="#ffffff" fill-rule="nonzero" d="m1205.466654,1166.666635l27.866666,-27.866666l27.866666,27.866666l-27.866666,27.866666l-27.866666,-27.866666" id="path768"/>
    <path fill="#ffffff" fill-rule="nonzero" d="m1204.199988,1233.333301l29.133333,-29.133333l29.133333,29.133333l-29.133333,29.133333l-29.133333,-29.133333" id="path770"/>
    <path fill="#d8d8d8" fill-rule="nonzero" d="m1202.933321,1299.999967l30.4,-30.4l30.4,30.4l-30.4,30.4l-30.4,-30.4" id="path772"/>
    <path fill="#dfdfdf" fill-rule="nonzero" d="m1280.999987,699.999973l19,-19l19,19l-19,19l-19,-19" id="path794"/>
    <path fill="#dcdcdc" fill-rule="nonzero" d="m1279.73332,766.666639l20.266666,-20.266666l20.266666,20.266666l-20.266666,20.266666l-20.266666,-20.266666" id="path796"/>
    <path fill="#f1f1f1" fill-rule="nonzero" d="m1278.466654,833.333305l21.533333,-21.533333l21.533333,21.533333l-21.533333,21.533333l-21.533333,-21.533333" id="path798"/>
    <path fill="#d5d5d5" fill-rule="nonzero" d="m1277.199987,899.999971l22.8,-22.8l22.8,22.8l-22.8,22.8l-22.8,-22.8" id="path800"/>
    <path fill="#c9c9c9" fill-rule="nonzero" d="m1275.93332,966.666637l24.066666,-24.066666l24.066666,24.066666l-24.066666,24.066666l-24.066666,-24.066666" id="path802"/>
    <path fill="#f8f8f8" fill-rule="nonzero" d="m1274.666654,1033.333303l25.333333,-25.333333l25.333333,25.333333l-25.333333,25.333333l-25.333333,-25.333333" id="path804"/>
    <path fill="#d1d1d1" fill-rule="nonzero" d="m1273.399987,1099.999969l26.6,-26.6l26.6,26.6l-26.6,26.6l-26.6,-26.6" id="path806"/>
    <path fill="#cfcfcf" fill-rule="nonzero" d="m1272.13332,1166.666635l27.866666,-27.866666l27.866666,27.866666l-27.866666,27.866666l-27.866666,-27.866666" id="path808"/>
    <path fill="#eeeeee" fill-rule="nonzero" d="m1270.866654,1233.333301l29.133333,-29.133333l29.133333,29.133333l-29.133333,29.133333l-29.133333,-29.133333" id="path810"/>
    <path fill="#ffffff" fill-rule="nonzero" d="m1269.599987,1299.999967l30.4,-30.4l30.4,30.4l-30.4,30.4l-30.4,-30.4" id="path812"/>
    <path fill="#e3e3e3" fill-rule="nonzero" d="m513.699995,733.333306l19.633333,-19.633333l19.633333,19.633333l-19.633333,19.633333l-19.633333,-19.633333" id="path1172"/>
    <path fill="#ffffff" fill-rule="nonzero" d="m512.433328,799.999972l20.9,-20.9l20.9,20.9l-20.9,20.9l-20.9,-20.9" id="path1174"/>
    <path fill="#eeeeee" fill-rule="nonzero" d="m580.366661,733.333306l19.633333,-19.633333l19.633333,19.633333l-19.633333,19.633333l-19.633333,-19.633333" id="path1214"/>
    <path fill="#ffffff" fill-rule="nonzero" d="m579.099994,799.999972l20.9,-20.9l20.9,20.9l-20.9,20.9l-20.9,-20.9" id="path1216"/>
    <path fill="#ffffff" fill-rule="nonzero" d="m577.833327,866.666638l22.166666,-22.166666l22.166666,22.166666l-22.166666,22.166666l-22.166666,-22.166666" id="path1218"/>
    <path fill="#f6f6f6" fill-rule="nonzero" d="m576.566661,933.333304l23.433333,-23.433333l23.433333,23.433333l-23.433333,23.433333l-23.433333,-23.433333" id="path1220"/>
    <path fill="#b7b7b7" fill-rule="nonzero" d="m575.299994,999.99997l24.7,-24.7l24.7,24.7l-24.7,24.7l-24.7,-24.7" id="path1222"/>
    <path fill="#cdcdcd" fill-rule="nonzero" d="m647.033327,733.333306l19.633333,-19.633333l19.633333,19.633333l-19.633333,19.633333l-19.633333,-19.633333" id="path1256"/>
    <path fill="#dedede" fill-rule="nonzero" d="m645.76666,799.999972l20.9,-20.9l20.9,20.9l-20.9,20.9l-20.9,-20.9" id="path1258"/>
    <path fill="#ffffff" fill-rule="nonzero" d="m644.499993,866.666638l22.166666,-22.166666l22.166666,22.166666l-22.166666,22.166666l-22.166666,-22.166666" id="path1260"/>
    <path fill="#ffffff" fill-rule="nonzero" d="m643.233327,933.333304l23.433333,-23.433333l23.433333,23.433333l-23.433333,23.433333l-23.433333,-23.433333" id="path1262"/>
    <path fill="#e1e1e1" fill-rule="nonzero" d="m641.96666,999.99997l24.7,-24.7l24.7,24.7l-24.7,24.7l-24.7,-24.7" id="path1264"/>
    <path fill="#ffffff" fill-rule="nonzero" d="m640.699994,1066.666636l25.966666,-25.966666l25.966666,25.966666l-25.966666,25.966666l-25.966666,-25.966666" id="path1266"/>
    <path fill="#f9f9f9" fill-rule="nonzero" d="m639.433327,1133.333302l27.233333,-27.233333l27.233333,27.233333l-27.233333,27.233333l-27.233333,-27.233333" id="path1268"/>
    <path fill="#bebebe" fill-rule="nonzero" d="m638.16666,1199.999968l28.5,-28.5l28.5,28.5l-28.5,28.5l-28.5,-28.5" id="path1270"/>
    <path fill="#afafaf" fill-rule="nonzero" d="m713.699993,733.333306l19.633333,-19.633333l19.633333,19.633333l-19.633333,19.633333l-19.633333,-19.633333" id="path1298"/>
    <path fill="#ffffff" fill-rule="nonzero" d="m712.433326,799.999972l20.9,-20.9l20.9,20.9l-20.9,20.9l-20.9,-20.9" id="path1300"/>
    <path fill="#cacaca" fill-rule="nonzero" d="m711.166659,866.666638l22.166666,-22.166666l22.166666,22.166666l-22.166666,22.166666l-22.166666,-22.166666" id="path1302"/>
    <path fill="#bababa" fill-rule="nonzero" d="m709.899993,933.333304l23.433333,-23.433333l23.433333,23.433333l-23.433333,23.433333l-23.433333,-23.433333" id="path1304"/>
    <path fill="#c1c1c1" fill-rule="nonzero" d="m708.633326,999.99997l24.7,-24.7l24.7,24.7l-24.7,24.7l-24.7,-24.7" id="path1306"/>
    <path fill="#fcfcfc" fill-rule="nonzero" d="m707.36666,1066.666636l25.966666,-25.966666l25.966666,25.966666l-25.966666,25.966666l-25.966666,-25.966666" id="path1308"/>
    <path fill="#cccccc" fill-rule="nonzero" d="m706.099993,1133.333302l27.233333,-27.233333l27.233333,27.233333l-27.233333,27.233333l-27.233333,-27.233333" id="path1310"/>
    <path fill="#ffffff" fill-rule="nonzero" d="m704.833326,1199.999968l28.5,-28.5l28.5,28.5l-28.5,28.5l-28.5,-28.5" id="path1312"/>
    <path fill="#d6d6d6" fill-rule="nonzero" d="m703.56666,1266.666634l29.766666,-29.766666l29.766666,29.766666l-29.766666,29.766666l-29.766666,-29.766666" id="path1314"/>
    <path fill="#ffffff" fill-rule="nonzero" d="m702.299993,1333.3333l31.033333,-31.033333l31.033333,31.033333l-31.033333,31.040133l-31.033333,-31.040133" id="path1316"/>
    <path fill="#c1c1c1" fill-rule="nonzero" d="m780.366659,733.333306l19.633333,-19.633333l19.633333,19.633333l-19.633333,19.633333l-19.633333,-19.633333" id="path1340"/>
    <path fill="#ffffff" fill-rule="nonzero" d="m779.099992,799.999972l20.9,-20.9l20.9,20.9l-20.9,20.9l-20.9,-20.9" id="path1342"/>
    <path fill="#ffffff" fill-rule="nonzero" d="m777.833325,866.666638l22.166666,-22.166666l22.166666,22.166666l-22.166666,22.166666l-22.166666,-22.166666" id="path1344"/>
    <path fill="#d5d5d5" fill-rule="nonzero" d="m776.566659,933.333304l23.433333,-23.433333l23.433333,23.433333l-23.433333,23.433333l-23.433333,-23.433333" id="path1346"/>
    <path fill="#cecece" fill-rule="nonzero" d="m775.299992,999.99997l24.7,-24.7l24.7,24.7l-24.7,24.7l-24.7,-24.7" id="path1348"/>
    <path fill="#e4e4e4" fill-rule="nonzero" d="m774.033326,1066.666636l25.966666,-25.966666l25.966666,25.966666l-25.966666,25.966666l-25.966666,-25.966666" id="path1350"/>
    <path fill="#e8e8e8" fill-rule="nonzero" d="m772.766659,1133.333302l27.233333,-27.233333l27.233333,27.233333l-27.233333,27.233333l-27.233333,-27.233333" id="path1352"/>
    <path fill="#ffffff" fill-rule="nonzero" d="m771.499992,1199.999968l28.5,-28.5l28.5,28.5l-28.5,28.5l-28.5,-28.5" id="path1354"/>
    <path fill="#f7f7f7" fill-rule="nonzero" d="m770.233326,1266.666634l29.766666,-29.766666l29.766666,29.766666l-29.766666,29.766666l-29.766666,-29.766666" id="path1356"/>
    <path fill="#cdcdcd" fill-rule="nonzero" d="m768.966659,1333.3333l31.033333,-31.033333l31.033333,31.033333l-31.033333,31.040133l-31.033333,-31.040133" id="path1358"/>
    <path fill="#dfdfdf" fill-rule="nonzero" d="m847.033325,733.333306l19.633333,-19.633333l19.633333,19.633333l-19.633333,19.633333l-19.633333,-19.633333" id="path1382"/>
    <path fill="#ffffff" fill-rule="nonzero" d="m845.766658,799.999972l20.9,-20.9l20.9,20.9l-20.9,20.9l-20.9,-20.9" id="path1384"/>
    <path fill="#b2b2b2" fill-rule="nonzero" d="m844.499991,866.666638l22.166666,-22.166666l22.166666,22.166666l-22.166666,22.166666l-22.166666,-22.166666" id="path1386"/>
    <path fill="#ffffff" fill-rule="nonzero" d="m843.233325,933.333304l23.433333,-23.433333l23.433333,23.433333l-23.433333,23.433333l-23.433333,-23.433333" id="path1388"/>
    <path fill="#bcbcbc" fill-rule="nonzero" d="m841.966658,999.99997l24.7,-24.7l24.7,24.7l-24.7,24.7l-24.7,-24.7" id="path1390"/>
    <path fill="#cacaca" fill-rule="nonzero" d="m840.699992,1066.666636l25.966666,-25.966666l25.966666,25.966666l-25.966666,25.966666l-25.966666,-25.966666" id="path1392"/>
    <path fill="#ffffff" fill-rule="nonzero" d="m839.433325,1133.333302l27.233333,-27.233333l27.233333,27.233333l-27.233333,27.233333l-27.233333,-27.233333" id="path1394"/>
    <path fill="#f6f6f6" fill-rule="nonzero" d="m838.166658,1199.999968l28.5,-28.5l28.5,28.5l-28.5,28.5l-28.5,-28.5" id="path1396"/>
    <path fill="#f3f3f3" fill-rule="nonzero" d="m836.899992,1266.666634l29.766666,-29.766666l29.766666,29.766666l-29.766666,29.766666l-29.766666,-29.766666" id="path1398"/>
    <path fill="#ffffff" fill-rule="nonzero" d="m835.633325,1333.3333l31.033333,-31.033333l31.033333,31.033333l-31.033333,31.040133l-31.033333,-31.040133" id="path1400"/>
    <path fill="#d9d9d9" fill-rule="nonzero" d="m913.699991,733.333306l19.633333,-19.633333l19.633333,19.633333l-19.633333,19.633333l-19.633333,-19.633333" id="path1424"/>
    <path fill="#d7d7d7" fill-rule="nonzero" d="m912.433324,799.999972l20.9,-20.9l20.9,20.9l-20.9,20.9l-20.9,-20.9" id="path1426"/>
    <path fill="#fbfbfb" fill-rule="nonzero" d="m911.166657,866.666638l22.166666,-22.166666l22.166666,22.166666l-22.166666,22.166666l-22.166666,-22.166666" id="path1428"/>
    <path fill="#b6b6b6" fill-rule="nonzero" d="m909.899991,933.333304l23.433333,-23.433333l23.433333,23.433333l-23.433333,23.433333l-23.433333,-23.433333" id="path1430"/>
    <path fill="#e8e8e8" fill-rule="nonzero" d="m908.633324,999.99997l24.7,-24.7l24.7,24.7l-24.7,24.7l-24.7,-24.7" id="path1432"/>
    <path fill="#d6d6d6" fill-rule="nonzero" d="m907.366658,1066.666636l25.966666,-25.966666l25.966666,25.966666l-25.966666,25.966666l-25.966666,-25.966666" id="path1434"/>
    <path fill="#acacac" fill-rule="nonzero" d="m906.099991,1133.333302l27.233333,-27.233333l27.233333,27.233333l-27.233333,27.233333l-27.233333,-27.233333" id="path1436"/>
    <path fill="#fdfdfd" fill-rule="nonzero" d="m904.833324,1199.999968l28.5,-28.5l28.5,28.5l-28.5,28.5l-28.5,-28.5" id="path1438"/>
    <path fill="#dedede" fill-rule="nonzero" d="m903.566658,1266.666634l29.766666,-29.766666l29.766666,29.766666l-29.766666,29.766666l-29.766666,-29.766666" id="path1440"/>
    <path fill="#ffffff" fill-rule="nonzero" d="m902.299991,1333.3333l31.033333,-31.033333l31.033333,31.033333l-31.033333,31.040133l-31.033333,-31.040133" id="path1442"/>
    <path fill="#ffffff" fill-rule="nonzero" d="m980.366657,733.333306l19.633333,-19.633333l19.633333,19.633333l-19.633333,19.633333l-19.633333,-19.633333" id="path1466"/>
    <path fill="#d8d8d8" fill-rule="nonzero" d="m979.09999,799.999972l20.9,-20.9l20.9,20.9l-20.9,20.9l-20.9,-20.9" id="path1468"/>
    <path fill="#f9f9f9" fill-rule="nonzero" d="m977.833323,866.666638l22.166666,-22.166666l22.166666,22.166666l-22.166666,22.166666l-22.166666,-22.166666" id="path1470"/>
    <path fill="#cacaca" fill-rule="nonzero" d="m976.566657,933.333304l23.433333,-23.433333l23.433333,23.433333l-23.433333,23.433333l-23.433333,-23.433333" id="path1472"/>
    <path fill="#cacaca" fill-rule="nonzero" d="m975.29999,999.99997l24.7,-24.7l24.7,24.7l-24.7,24.7l-24.7,-24.7" id="path1474"/>
    <path fill="#e1e1e1" fill-rule="nonzero" d="m974.033323,1066.666636l25.966666,-25.966666l25.966666,25.966666l-25.966666,25.966666l-25.966666,-25.966666" id="path1476"/>
    <path fill="#d7d7d7" fill-rule="nonzero" d="m972.766657,1133.333302l27.233333,-27.233333l27.233333,27.233333l-27.233333,27.233333l-27.233333,-27.233333" id="path1478"/>
    <path fill="#ffffff" fill-rule="nonzero" d="m971.49999,1199.999968l28.5,-28.5l28.5,28.5l-28.5,28.5l-28.5,-28.5" id="path1480"/>
    <path fill="#e7e7e7" fill-rule="nonzero" d="m970.233324,1266.666634l29.766666,-29.766666l29.766666,29.766666l-29.766666,29.766666l-29.766666,-29.766666" id="path1482"/>
    <path fill="#cccccc" fill-rule="nonzero" d="m968.966657,1333.3333l31.033333,-31.033333l31.033333,31.033333l-31.033333,31.040133l-31.033333,-31.040133" id="path1484"/>
    <path fill="#ececec" fill-rule="nonzero" d="m1047.033323,733.333306l19.633333,-19.633333l19.633333,19.633333l-19.633333,19.633333l-19.633333,-19.633333" id="path1508"/>
    <path fill="#fefefe" fill-rule="nonzero" d="m1045.766656,799.999972l20.9,-20.9l20.9,20.9l-20.9,20.9l-20.9,-20.9" id="path1510"/>
    <path fill="#ffffff" fill-rule="nonzero" d="m1044.499989,866.666638l22.166666,-22.166666l22.166666,22.166666l-22.166666,22.166666l-22.166666,-22.166666" id="path1512"/>
    <path fill="#c1c1c1" fill-rule="nonzero" d="m1043.233323,933.333304l23.433333,-23.433333l23.433333,23.433333l-23.433333,23.433333l-23.433333,-23.433333" id="path1514"/>
    <path fill="#c6c6c6" fill-rule="nonzero" d="m1041.966656,999.99997l24.7,-24.7l24.7,24.7l-24.7,24.7l-24.7,-24.7" id="path1516"/>
    <path fill="#acacac" fill-rule="nonzero" d="m1040.699989,1066.666636l25.966666,-25.966666l25.966666,25.966666l-25.966666,25.966666l-25.966666,-25.966666" id="path1518"/>
    <path fill="#eeeeee" fill-rule="nonzero" d="m1039.433323,1133.333302l27.233333,-27.233333l27.233333,27.233333l-27.233333,27.233333l-27.233333,-27.233333" id="path1520"/>
    <path fill="#d6d6d6" fill-rule="nonzero" d="m1038.166656,1199.999968l28.5,-28.5l28.5,28.5l-28.5,28.5l-28.5,-28.5" id="path1522"/>
    <path fill="#b9b9b9" fill-rule="nonzero" d="m1036.89999,1266.666634l29.766666,-29.766666l29.766666,29.766666l-29.766666,29.766666l-29.766666,-29.766666" id="path1524"/>
    <path fill="#eeeeee" fill-rule="nonzero" d="m1035.633323,1333.3333l31.033333,-31.033333l31.033333,31.033333l-31.033333,31.040133l-31.033333,-31.040133" id="path1526"/>
    <path fill="#efefef" fill-rule="nonzero" d="m1113.699989,733.333306l19.633333,-19.633333l19.633333,19.633333l-19.633333,19.633333l-19.633333,-19.633333" id="path1550"/>
    <path fill="#ededed" fill-rule="nonzero" d="m1112.433322,799.999972l20.9,-20.9l20.9,20.9l-20.9,20.9l-20.9,-20.9" id="path1552"/>
    <path fill="#c5c5c5" fill-rule="nonzero" d="m1111.166655,866.666638l22.166666,-22.166666l22.166666,22.166666l-22.166666,22.166666l-22.166666,-22.166666" id="path1554"/>
    <path fill="#afafaf" fill-rule="nonzero" d="m1109.899989,933.333304l23.433333,-23.433333l23.433333,23.433333l-23.433333,23.433333l-23.433333,-23.433333" id="path1556"/>
    <path fill="#dcdcdc" fill-rule="nonzero" d="m1108.633322,999.99997l24.7,-24.7l24.7,24.7l-24.7,24.7l-24.7,-24.7" id="path1558"/>
    <path fill="#dcdcdc" fill-rule="nonzero" d="m1107.366655,1066.666636l25.966666,-25.966666l25.966666,25.966666l-25.966666,25.966666l-25.966666,-25.966666" id="path1560"/>
    <path fill="#b2b2b2" fill-rule="nonzero" d="m1106.099989,1133.333302l27.233333,-27.233333l27.233333,27.233333l-27.233333,27.233333l-27.233333,-27.233333" id="path1562"/>
    <path fill="#ffffff" fill-rule="nonzero" d="m1104.833322,1199.999968l28.5,-28.5l28.5,28.5l-28.5,28.5l-28.5,-28.5" id="path1564"/>
    <path fill="#f3f3f3" fill-rule="nonzero" d="m1103.566656,1266.666634l29.766666,-29.766666l29.766666,29.766666l-29.766666,29.766666l-29.766666,-29.766666" id="path1566"/>
    <path fill="#ececec" fill-rule="nonzero" d="m1102.299989,1333.3333l31.033333,-31.033333l31.033333,31.033333l-31.033333,31.040133l-31.033333,-31.040133" id="path1568"/>
    <path fill="#ededed" fill-rule="nonzero" d="m1180.366655,733.333306l19.633333,-19.633333l19.633333,19.633333l-19.633333,19.633333l-19.633333,-19.633333" id="path1592"/>
    <path fill="#ffffff" fill-rule="nonzero" d="m1179.099988,799.999972l20.9,-20.9l20.9,20.9l-20.9,20.9l-20.9,-20.9" id="path1594"/>
    <path fill="#b4b4b4" fill-rule="nonzero" d="m1177.833321,866.666638l22.166666,-22.166666l22.166666,22.166666l-22.166666,22.166666l-22.166666,-22.166666" id="path1596"/>
    <path fill="#ffffff" fill-rule="nonzero" d="m1176.566655,933.333304l23.433333,-23.433333l23.433333,23.433333l-23.433333,23.433333l-23.433333,-23.433333" id="path1598"/>
    <path fill="#c9c9c9" fill-rule="nonzero" d="m1175.299988,999.99997l24.7,-24.7l24.7,24.7l-24.7,24.7l-24.7,-24.7" id="path1600"/>
    <path fill="#fafafa" fill-rule="nonzero" d="m1174.033321,1066.666636l25.966666,-25.966666l25.966666,25.966666l-25.966666,25.966666l-25.966666,-25.966666" id="path1602"/>
    <path fill="#bababa" fill-rule="nonzero" d="m1172.766655,1133.333302l27.233333,-27.233333l27.233333,27.233333l-27.233333,27.233333l-27.233333,-27.233333" id="path1604"/>
    <path fill="#ffffff" fill-rule="nonzero" d="m1171.499988,1199.999968l28.5,-28.5l28.5,28.5l-28.5,28.5l-28.5,-28.5" id="path1606"/>
    <path fill="#dfdfdf" fill-rule="nonzero" d="m1170.233322,1266.666634l29.766666,-29.766666l29.766666,29.766666l-29.766666,29.766666l-29.766666,-29.766666" id="path1608"/>
    <path fill="#ffffff" fill-rule="nonzero" d="m1168.966655,1333.3333l31.033333,-31.033333l31.033333,31.033333l-31.033333,31.040133l-31.033333,-31.040133" id="path1610"/>
    <path fill="#e6e6e6" fill-rule="nonzero" d="m1247.033321,733.333306l19.633333,-19.633333l19.633333,19.633333l-19.633333,19.633333l-19.633333,-19.633333" id="path1634"/>
    <path fill="#b6b6b6" fill-rule="nonzero" d="m1245.766654,799.999972l20.9,-20.9l20.9,20.9l-20.9,20.9l-20.9,-20.9" id="path1636"/>
    <path fill="#e3e3e3" fill-rule="nonzero" d="m1244.499987,866.666638l22.166666,-22.166666l22.166666,22.166666l-22.166666,22.166666l-22.166666,-22.166666" id="path1638"/>
    <path fill="#eaeaea" fill-rule="nonzero" d="m1243.233321,933.333304l23.433333,-23.433333l23.433333,23.433333l-23.433333,23.433333l-23.433333,-23.433333" id="path1640"/>
    <path fill="#ffffff" fill-rule="nonzero" d="m1241.966654,999.99997l24.7,-24.7l24.7,24.7l-24.7,24.7l-24.7,-24.7" id="path1642"/>
    <path fill="#c7c7c7" fill-rule="nonzero" d="m1240.699987,1066.666636l25.966666,-25.966666l25.966666,25.966666l-25.966666,25.966666l-25.966666,-25.966666" id="path1644"/>
    <path fill="#d5d5d5" fill-rule="nonzero" d="m1239.433321,1133.333302l27.233333,-27.233333l27.233333,27.233333l-27.233333,27.233333l-27.233333,-27.233333" id="path1646"/>
    <path fill="#d7d7d7" fill-rule="nonzero" d="m1238.166654,1199.999968l28.5,-28.5l28.5,28.5l-28.5,28.5l-28.5,-28.5" id="path1648"/>
    <path fill="#d2d2d2" fill-rule="nonzero" d="m1236.899988,1266.666634l29.766666,-29.766666l29.766666,29.766666l-29.766666,29.766666l-29.766666,-29.766666" id="path1650"/>
    <path fill="#b6b6b6" fill-rule="nonzero" d="m1235.633321,1333.3333l31.033333,-31.033333l31.033333,31.033333l-31.033333,31.040133l-31.033333,-31.040133" id="path1652"/>
    <path fill="#cdcdcd" fill-rule="nonzero" d="m1313.699987,733.333306l19.633333,-19.633333l19.626666,19.633333l-19.626666,19.633333l-19.633333,-19.633333" id="path1676"/>
    <path fill="#cfcfcf" fill-rule="nonzero" d="m1312.43332,799.999972l20.9,-20.9l20.893333,20.9l-20.893333,20.9l-20.9,-20.9" id="path1678"/>
    <path fill="#c8c8c8" fill-rule="nonzero" d="m1311.166653,866.666638l22.166666,-22.166666l22.173333,22.166666l-22.173333,22.166666l-22.166666,-22.166666" id="path1680"/>
    <path fill="#ededed" fill-rule="nonzero" d="m1309.899987,933.333304l23.433333,-23.433333l23.44,23.433333l-23.44,23.433333l-23.433333,-23.433333" id="path1682"/>
    <path fill="#ffffff" fill-rule="nonzero" d="m1308.63332,999.99997l24.7,-24.7l24.706666,24.7l-24.706666,24.7l-24.7,-24.7" id="path1684"/>
    <path fill="#c7c7c7" fill-rule="nonzero" d="m1307.366653,1066.666636l25.966666,-25.966666l25.96,25.966666l-25.96,25.966666l-25.966666,-25.966666" id="path1686"/>
    <path fill="#ffffff" fill-rule="nonzero" d="m1306.099987,1133.333302l27.233333,-27.233333l27.226666,27.233333l-27.226666,27.233333l-27.233333,-27.233333" id="path1688"/>
    <path fill="#c7c7c7" fill-rule="nonzero" d="m1304.83332,1199.999968l28.5,-28.5l28.506666,28.5l-28.506666,28.5l-28.5,-28.5" id="path1690"/>
    <path fill="#bcbcbc" fill-rule="nonzero" d="m1303.566654,1266.666634l29.766666,-29.766666l29.773333,29.766666l-29.773333,29.766666l-29.766666,-29.766666" id="path1692"/>
    <path fill="#b0b0b0" fill-rule="nonzero" d="m1302.299987,1333.3333l31.033333,-31.033333l31.04,31.033333l-31.04,31.040133l-31.033333,-31.040133" id="path1694"/>
   </g>
   <g id="svg_18">
    <path fill="#c2c2c2" fill-rule="nonzero" d="m514.966661,666.66664l18.366666,-18.366666l18.366666,18.366666l-18.366666,18.366666l-18.366666,-18.366666" id="path1170"/>
    <path fill="#e5e5e5" fill-rule="nonzero" d="m581.633327,666.66664l18.366666,-18.366666l18.366666,18.366666l-18.366666,18.366666l-18.366666,-18.366666" id="path1212"/>
    <path fill="#fbfbfb" fill-rule="nonzero" d="m648.299993,666.66664l18.366666,-18.366666l18.366666,18.366666l-18.366666,18.366666l-18.366666,-18.366666" id="path1254"/>
    <path fill="#fefefe" fill-rule="nonzero" d="m714.966659,666.66664l18.366666,-18.366666l18.366666,18.366666l-18.366666,18.366666l-18.366666,-18.366666" id="path1296"/>
    <path fill="#d3d3d3" fill-rule="nonzero" d="m781.633325,666.66664l18.366666,-18.366666l18.366666,18.366666l-18.366666,18.366666l-18.366666,-18.366666" id="path1338"/>
    <path fill="#e7e7e7" fill-rule="nonzero" d="m848.299991,666.66664l18.366666,-18.366666l18.366666,18.366666l-18.366666,18.366666l-18.366666,-18.366666" id="path1380"/>
    <path fill="#d3d3d3" fill-rule="nonzero" d="m914.966657,666.66664l18.366666,-18.366666l18.366666,18.366666l-18.366666,18.366666l-18.366666,-18.366666" id="path1422"/>
    <path fill="#ffffff" fill-rule="nonzero" d="m981.633323,666.66664l18.366666,-18.366666l18.366666,18.366666l-18.366666,18.366666l-18.366666,-18.366666" id="path1464"/>
    <path fill="#ffffff" fill-rule="nonzero" d="m1048.299989,666.66664l18.366666,-18.366666l18.366666,18.366666l-18.366666,18.366666l-18.366666,-18.366666" id="path1506"/>
    <path fill="#dbdbdb" fill-rule="nonzero" d="m1114.966655,666.66664l18.366666,-18.366666l18.366666,18.366666l-18.366666,18.366666l-18.366666,-18.366666" id="path1548"/>
    <path fill="#b8b8b8" fill-rule="nonzero" d="m1181.633321,666.66664l18.366666,-18.366666l18.366666,18.366666l-18.366666,18.366666l-18.366666,-18.366666" id="path1590"/>
    <path fill="#ffffff" fill-rule="nonzero" d="m1248.299987,666.66664l18.366666,-18.366666l18.366666,18.366666l-18.366666,18.366666l-18.366666,-18.366666" id="path1632"/>
    <path fill="#dfdfdf" fill-rule="nonzero" d="m1314.966653,666.66664l18.366666,-18.366666l18.373333,18.366666l-18.373333,18.366666l-18.366666,-18.366666" id="path1674"/>
    <path fill="#d0d0d0" fill-rule="nonzero" d="m293.666664,33.333313l6.333333,-6.333333l6.333333,6.333333l-6.333333,6.333333l-6.333333,-6.333333" id="path174"/>
    <path fill="#cfcfcf" fill-rule="nonzero" d="m360.33333,33.333313l6.333333,-6.333333l6.333333,6.333333l-6.333333,6.333333l-6.333333,-6.333333" id="path214"/>
    <path fill="#eeeeee" fill-rule="nonzero" d="m359.066663,99.999979l7.6,-7.6l7.6,7.6l-7.6,7.6l-7.6,-7.6" id="path216"/>
    <path fill="#bfbfbf" fill-rule="nonzero" d="m357.799996,166.666645l8.866667,-8.866667l8.866667,8.866667l-8.866667,8.866667l-8.866667,-8.866667" id="path218"/>
    <path fill="#ffffff" fill-rule="nonzero" d="m356.53333,233.333311l10.133333,-10.133333l10.133333,10.133333l-10.133333,10.133333l-10.133333,-10.133333" id="path220"/>
    <path fill="#fafafa" fill-rule="nonzero" d="m426.999996,33.333313l6.333333,-6.333333l6.333333,6.333333l-6.333333,6.333333l-6.333333,-6.333333" id="path254"/>
    <path fill="#ffffff" fill-rule="nonzero" d="m425.733329,99.999979l7.6,-7.6l7.6,7.6l-7.6,7.6l-7.6,-7.6" id="path256"/>
    <path fill="#c7c7c7" fill-rule="nonzero" d="m424.466662,166.666645l8.866667,-8.866667l8.866667,8.866667l-8.866667,8.866667l-8.866667,-8.866667" id="path258"/>
    <path fill="#ffffff" fill-rule="nonzero" d="m423.199996,233.333311l10.133333,-10.133333l10.133333,10.133333l-10.133333,10.133333l-10.133333,-10.133333" id="path260"/>
    <path fill="#ffffff" fill-rule="nonzero" d="m421.933329,299.999977l11.4,-11.4l11.4,11.4l-11.4,11.4l-11.4,-11.4" id="path262"/>
    <path fill="#ececec" fill-rule="nonzero" d="m420.666662,366.666643l12.666667,-12.666667l12.666667,12.666667l-12.666667,12.666667l-12.666667,-12.666667" id="path264"/>
    <path fill="#ffffff" fill-rule="nonzero" d="m419.399996,433.333309l13.933333,-13.933333l13.933333,13.933333l-13.933333,13.933333l-13.933333,-13.933333" id="path266"/>
    <path fill="#b7b7b7" fill-rule="nonzero" d="m418.133329,499.999975l15.2,-15.2l15.2,15.2l-15.2,15.2l-15.2,-15.2" id="path268"/>
    <path fill="#cacaca" fill-rule="nonzero" d="m493.666662,33.333313l6.333333,-6.333333l6.333333,6.333333l-6.333333,6.333333l-6.333333,-6.333333" id="path294"/>
    <path fill="#ffffff" fill-rule="nonzero" d="m492.399995,99.999979l7.6,-7.6l7.6,7.6l-7.6,7.6l-7.6,-7.6" id="path296"/>
    <path fill="#b4b4b4" fill-rule="nonzero" d="m491.133328,166.666645l8.866667,-8.866667l8.866667,8.866667l-8.866667,8.866667l-8.866667,-8.866667" id="path298"/>
    <path fill="#ffffff" fill-rule="nonzero" d="m489.866662,233.333311l10.133333,-10.133333l10.133333,10.133333l-10.133333,10.133333l-10.133333,-10.133333" id="path300"/>
    <path fill="#ffffff" fill-rule="nonzero" d="m488.599995,299.999977l11.4,-11.4l11.4,11.4l-11.4,11.4l-11.4,-11.4" id="path302"/>
    <path fill="#e6e6e6" fill-rule="nonzero" d="m487.333328,366.666643l12.666667,-12.666667l12.666667,12.666667l-12.666667,12.666667l-12.666667,-12.666667" id="path304"/>
    <path fill="#e5e5e5" fill-rule="nonzero" d="m486.066662,433.333309l13.933333,-13.933333l13.933333,13.933333l-13.933333,13.933333l-13.933333,-13.933333" id="path306"/>
    <path fill="#ffffff" fill-rule="nonzero" d="m484.799995,499.999975l15.2,-15.2l15.2,15.2l-15.2,15.2l-15.2,-15.2" id="path308"/>
    <path fill="#f1f1f1" fill-rule="nonzero" d="m483.533328,566.666641l16.466667,-16.466667l16.466667,16.466667l-16.466667,16.466667l-16.466667,-16.466667" id="path310"/>
    <path fill="#d4d4d4" fill-rule="nonzero" d="m482.266662,633.333307l17.733333,-17.733333l17.733333,17.733333l-17.733333,17.733333l-17.733333,-17.733333" id="path312"/>
    <path fill="#dedede" fill-rule="nonzero" d="m560.333328,33.333313l6.333333,-6.333333l6.333333,6.333333l-6.333333,6.333333l-6.333333,-6.333333" id="path334"/>
    <path fill="#fcfcfc" fill-rule="nonzero" d="m559.066661,99.999979l7.6,-7.6l7.6,7.6l-7.6,7.6l-7.6,-7.6" id="path336"/>
    <path fill="#ffffff" fill-rule="nonzero" d="m557.799994,166.666645l8.866667,-8.866667l8.866667,8.866667l-8.866667,8.866667l-8.866667,-8.866667" id="path338"/>
    <path fill="#e8e8e8" fill-rule="nonzero" d="m556.533328,233.333311l10.133333,-10.133333l10.133333,10.133333l-10.133333,10.133333l-10.133333,-10.133333" id="path340"/>
    <path fill="#d7d7d7" fill-rule="nonzero" d="m555.266661,299.999977l11.4,-11.4l11.4,11.4l-11.4,11.4l-11.4,-11.4" id="path342"/>
    <path fill="#c4c4c4" fill-rule="nonzero" d="m553.999994,366.666643l12.666667,-12.666667l12.666667,12.666667l-12.666667,12.666667l-12.666667,-12.666667" id="path344"/>
    <path fill="#f2f2f2" fill-rule="nonzero" d="m552.733328,433.333309l13.933333,-13.933333l13.933333,13.933333l-13.933333,13.933333l-13.933333,-13.933333" id="path346"/>
    <path fill="#d6d6d6" fill-rule="nonzero" d="m551.466661,499.999975l15.2,-15.2l15.2,15.2l-15.2,15.2l-15.2,-15.2" id="path348"/>
    <path fill="#dfdfdf" fill-rule="nonzero" d="m550.199994,566.666641l16.466667,-16.466667l16.466667,16.466667l-16.466667,16.466667l-16.466667,-16.466667" id="path350"/>
    <path fill="#ffffff" fill-rule="nonzero" d="m548.933328,633.333307l17.733333,-17.733333l17.733333,17.733333l-17.733333,17.733333l-17.733333,-17.733333" id="path352"/>
    <path fill="#acacac" fill-rule="nonzero" d="m626.999994,33.333313l6.333333,-6.333333l6.333333,6.333333l-6.333333,6.333333l-6.333333,-6.333333" id="path374"/>
    <path fill="#ebebeb" fill-rule="nonzero" d="m625.733327,99.999979l7.6,-7.6l7.6,7.6l-7.6,7.6l-7.6,-7.6" id="path376"/>
    <path fill="#ffffff" fill-rule="nonzero" d="m624.46666,166.666645l8.866667,-8.866667l8.866667,8.866667l-8.866667,8.866667l-8.866667,-8.866667" id="path378"/>
    <path fill="#cecece" fill-rule="nonzero" d="m623.199994,233.333311l10.133333,-10.133333l10.133333,10.133333l-10.133333,10.133333l-10.133333,-10.133333" id="path380"/>
    <path fill="#ffffff" fill-rule="nonzero" d="m621.933327,299.999977l11.4,-11.4l11.4,11.4l-11.4,11.4l-11.4,-11.4" id="path382"/>
    <path fill="#f8f8f8" fill-rule="nonzero" d="m620.66666,366.666643l12.666667,-12.666667l12.666667,12.666667l-12.666667,12.666667l-12.666667,-12.666667" id="path384"/>
    <path fill="#d9d9d9" fill-rule="nonzero" d="m619.399994,433.333309l13.933333,-13.933333l13.933333,13.933333l-13.933333,13.933333l-13.933333,-13.933333" id="path386"/>
    <path fill="#bdbdbd" fill-rule="nonzero" d="m618.133327,499.999975l15.2,-15.2l15.2,15.2l-15.2,15.2l-15.2,-15.2" id="path388"/>
    <path fill="#bbbbbb" fill-rule="nonzero" d="m616.86666,566.666641l16.466667,-16.466667l16.466667,16.466667l-16.466667,16.466667l-16.466667,-16.466667" id="path390"/>
    <path fill="#adadad" fill-rule="nonzero" d="m615.599994,633.333307l17.733333,-17.733333l17.733333,17.733333l-17.733333,17.733333l-17.733333,-17.733333" id="path392"/>
    <path fill="#d3d3d3" fill-rule="nonzero" d="m693.66666,33.333313l6.333333,-6.333333l6.333333,6.333333l-6.333333,6.333333l-6.333333,-6.333333" id="path414"/>
    <path fill="#e8e8e8" fill-rule="nonzero" d="m692.399993,99.999979l7.6,-7.6l7.6,7.6l-7.6,7.6l-7.6,-7.6" id="path416"/>
    <path fill="#f9f9f9" fill-rule="nonzero" d="m691.133326,166.666645l8.866667,-8.866667l8.866667,8.866667l-8.866667,8.866667l-8.866667,-8.866667" id="path418"/>
    <path fill="#ffffff" fill-rule="nonzero" d="m689.86666,233.333311l10.133333,-10.133333l10.133333,10.133333l-10.133333,10.133333l-10.133333,-10.133333" id="path420"/>
    <path fill="#ffffff" fill-rule="nonzero" d="m688.599993,299.999977l11.4,-11.4l11.4,11.4l-11.4,11.4l-11.4,-11.4" id="path422"/>
    <path fill="#cfcfcf" fill-rule="nonzero" d="m687.333326,366.666643l12.666667,-12.666667l12.666667,12.666667l-12.666667,12.666667l-12.666667,-12.666667" id="path424"/>
    <path fill="#e0e0e0" fill-rule="nonzero" d="m686.06666,433.333309l13.933333,-13.933333l13.933333,13.933333l-13.933333,13.933333l-13.933333,-13.933333" id="path426"/>
    <path fill="#e5e5e5" fill-rule="nonzero" d="m684.799993,499.999975l15.2,-15.2l15.2,15.2l-15.2,15.2l-15.2,-15.2" id="path428"/>
    <path fill="#aeaeae" fill-rule="nonzero" d="m683.533326,566.666641l16.466667,-16.466667l16.466667,16.466667l-16.466667,16.466667l-16.466667,-16.466667" id="path430"/>
    <path fill="#b2b2b2" fill-rule="nonzero" d="m682.26666,633.333307l17.733333,-17.733333l17.733333,17.733333l-17.733333,17.733333l-17.733333,-17.733333" id="path432"/>
    <path fill="#cbcbcb" fill-rule="nonzero" d="m760.333326,33.333313l6.333333,-6.333333l6.333333,6.333333l-6.333333,6.333333l-6.333333,-6.333333" id="path454"/>
    <path fill="#b2b2b2" fill-rule="nonzero" d="m759.066659,99.999979l7.6,-7.6l7.6,7.6l-7.6,7.6l-7.6,-7.6" id="path456"/>
    <path fill="#e9e9e9" fill-rule="nonzero" d="m757.799992,166.666645l8.866667,-8.866667l8.866667,8.866667l-8.866667,8.866667l-8.866667,-8.866667" id="path458"/>
    <path fill="#c6c6c6" fill-rule="nonzero" d="m756.533326,233.333311l10.133333,-10.133333l10.133333,10.133333l-10.133333,10.133333l-10.133333,-10.133333" id="path460"/>
    <path fill="#ffffff" fill-rule="nonzero" d="m755.266659,299.999977l11.4,-11.4l11.4,11.4l-11.4,11.4l-11.4,-11.4" id="path462"/>
    <path fill="#b9b9b9" fill-rule="nonzero" d="m753.999992,366.666643l12.666667,-12.666667l12.666667,12.666667l-12.666667,12.666667l-12.666667,-12.666667" id="path464"/>
    <path fill="#ffffff" fill-rule="nonzero" d="m752.733326,433.333309l13.933333,-13.933333l13.933333,13.933333l-13.933333,13.933333l-13.933333,-13.933333" id="path466"/>
    <path fill="#b9b9b9" fill-rule="nonzero" d="m751.466659,499.999975l15.2,-15.2l15.2,15.2l-15.2,15.2l-15.2,-15.2" id="path468"/>
    <path fill="#ffffff" fill-rule="nonzero" d="m750.199992,566.666641l16.466667,-16.466667l16.466667,16.466667l-16.466667,16.466667l-16.466667,-16.466667" id="path470"/>
    <path fill="#d6d6d6" fill-rule="nonzero" d="m748.933326,633.333307l17.733333,-17.733333l17.733333,17.733333l-17.733333,17.733333l-17.733333,-17.733333" id="path472"/>
    <path fill="#bcbcbc" fill-rule="nonzero" d="m826.999992,33.333313l6.333333,-6.333333l6.333333,6.333333l-6.333333,6.333333l-6.333333,-6.333333" id="path494"/>
    <path fill="#bcbcbc" fill-rule="nonzero" d="m825.733325,99.999979l7.6,-7.6l7.6,7.6l-7.6,7.6l-7.6,-7.6" id="path496"/>
    <path fill="#f5f5f5" fill-rule="nonzero" d="m824.466658,166.666645l8.866667,-8.866667l8.866667,8.866667l-8.866667,8.866667l-8.866667,-8.866667" id="path498"/>
    <path fill="#d0d0d0" fill-rule="nonzero" d="m823.199992,233.333311l10.133333,-10.133333l10.133333,10.133333l-10.133333,10.133333l-10.133333,-10.133333" id="path500"/>
    <path fill="#ffffff" fill-rule="nonzero" d="m821.933325,299.999977l11.4,-11.4l11.4,11.4l-11.4,11.4l-11.4,-11.4" id="path502"/>
    <path fill="#eeeeee" fill-rule="nonzero" d="m820.666658,366.666643l12.666667,-12.666667l12.666667,12.666667l-12.666667,12.666667l-12.666667,-12.666667" id="path504"/>
    <path fill="#c9c9c9" fill-rule="nonzero" d="m819.399992,433.333309l13.933333,-13.933333l13.933333,13.933333l-13.933333,13.933333l-13.933333,-13.933333" id="path506"/>
    <path fill="#c8c8c8" fill-rule="nonzero" d="m818.133325,499.999975l15.2,-15.2l15.2,15.2l-15.2,15.2l-15.2,-15.2" id="path508"/>
    <path fill="#cacaca" fill-rule="nonzero" d="m816.866658,566.666641l16.466667,-16.466667l16.466667,16.466667l-16.466667,16.466667l-16.466667,-16.466667" id="path510"/>
    <path fill="#ffffff" fill-rule="nonzero" d="m815.599992,633.333307l17.733333,-17.733333l17.733333,17.733333l-17.733333,17.733333l-17.733333,-17.733333" id="path512"/>
    <path fill="#ffffff" fill-rule="nonzero" d="m893.666658,33.333313l6.333333,-6.333333l6.333333,6.333333l-6.333333,6.333333l-6.333333,-6.333333" id="path534"/>
    <path fill="#c8c8c8" fill-rule="nonzero" d="m892.399991,99.999979l7.6,-7.6l7.6,7.6l-7.6,7.6l-7.6,-7.6" id="path536"/>
    <path fill="#eeeeee" fill-rule="nonzero" d="m891.133324,166.666645l8.866667,-8.866667l8.866667,8.866667l-8.866667,8.866667l-8.866667,-8.866667" id="path538"/>
    <path fill="#cccccc" fill-rule="nonzero" d="m889.866658,233.333311l10.133333,-10.133333l10.133333,10.133333l-10.133333,10.133333l-10.133333,-10.133333" id="path540"/>
    <path fill="#c9c9c9" fill-rule="nonzero" d="m888.599991,299.999977l11.4,-11.4l11.4,11.4l-11.4,11.4l-11.4,-11.4" id="path542"/>
    <path fill="#f5f5f5" fill-rule="nonzero" d="m887.333324,366.666643l12.666667,-12.666667l12.666667,12.666667l-12.666667,12.666667l-12.666667,-12.666667" id="path544"/>
    <path fill="#fcfcfc" fill-rule="nonzero" d="m886.066658,433.333309l13.933333,-13.933333l13.933333,13.933333l-13.933333,13.933333l-13.933333,-13.933333" id="path546"/>
    <path fill="#f0f0f0" fill-rule="nonzero" d="m884.799991,499.999975l15.2,-15.2l15.2,15.2l-15.2,15.2l-15.2,-15.2" id="path548"/>
    <path fill="#ffffff" fill-rule="nonzero" d="m883.533324,566.666641l16.466667,-16.466667l16.466667,16.466667l-16.466667,16.466667l-16.466667,-16.466667" id="path550"/>
    <path fill="#bbbbbb" fill-rule="nonzero" d="m882.266658,633.333307l17.733333,-17.733333l17.733333,17.733333l-17.733333,17.733333l-17.733333,-17.733333" id="path552"/>
    <path fill="#f1f1f1" fill-rule="nonzero" d="m960.333324,33.333313l6.333333,-6.333333l6.333333,6.333333l-6.333333,6.333333l-6.333333,-6.333333" id="path574"/>
    <path fill="#d2d2d2" fill-rule="nonzero" d="m959.066657,99.999979l7.6,-7.6l7.6,7.6l-7.6,7.6l-7.6,-7.6" id="path576"/>
    <path fill="#dedede" fill-rule="nonzero" d="m957.79999,166.666645l8.866667,-8.866667l8.866667,8.866667l-8.866667,8.866667l-8.866667,-8.866667" id="path578"/>
    <path fill="#ffffff" fill-rule="nonzero" d="m956.533324,233.333311l10.133333,-10.133333l10.133333,10.133333l-10.133333,10.133333l-10.133333,-10.133333" id="path580"/>
    <path fill="#f8f8f8" fill-rule="nonzero" d="m955.266657,299.999977l11.4,-11.4l11.4,11.4l-11.4,11.4l-11.4,-11.4" id="path582"/>
    <path fill="#ffffff" fill-rule="nonzero" d="m953.99999,366.666643l12.666667,-12.666667l12.666667,12.666667l-12.666667,12.666667l-12.666667,-12.666667" id="path584"/>
    <path fill="#ffffff" fill-rule="nonzero" d="m952.733324,433.333309l13.933333,-13.933333l13.933333,13.933333l-13.933333,13.933333l-13.933333,-13.933333" id="path586"/>
    <path fill="#d6d6d6" fill-rule="nonzero" d="m951.466657,499.999975l15.2,-15.2l15.2,15.2l-15.2,15.2l-15.2,-15.2" id="path588"/>
    <path fill="#ffffff" fill-rule="nonzero" d="m950.19999,566.666641l16.466667,-16.466667l16.466667,16.466667l-16.466667,16.466667l-16.466667,-16.466667" id="path590"/>
    <path fill="#b0b0b0" fill-rule="nonzero" d="m948.933324,633.333307l17.733333,-17.733333l17.733333,17.733333l-17.733333,17.733333l-17.733333,-17.733333" id="path592"/>
    <path fill="#d6d6d6" fill-rule="nonzero" d="m1026.99999,33.333313l6.333333,-6.333333l6.333333,6.333333l-6.333333,6.333333l-6.333333,-6.333333" id="path614"/>
    <path fill="#ffffff" fill-rule="nonzero" d="m1025.733323,99.999979l7.6,-7.6l7.6,7.6l-7.6,7.6l-7.6,-7.6" id="path616"/>
    <path fill="#ffffff" fill-rule="nonzero" d="m1024.466656,166.666645l8.866667,-8.866667l8.866667,8.866667l-8.866667,8.866667l-8.866667,-8.866667" id="path618"/>
    <path fill="#c2c2c2" fill-rule="nonzero" d="m1023.19999,233.333311l10.133333,-10.133333l10.133333,10.133333l-10.133333,10.133333l-10.133333,-10.133333" id="path620"/>
    <path fill="#e6e6e6" fill-rule="nonzero" d="m1021.933323,299.999977l11.4,-11.4l11.4,11.4l-11.4,11.4l-11.4,-11.4" id="path622"/>
    <path fill="#ffffff" fill-rule="nonzero" d="m1020.666656,366.666643l12.666667,-12.666667l12.666667,12.666667l-12.666667,12.666667l-12.666667,-12.666667" id="path624"/>
    <path fill="#f1f1f1" fill-rule="nonzero" d="m1019.39999,433.333309l13.933333,-13.933333l13.933333,13.933333l-13.933333,13.933333l-13.933333,-13.933333" id="path626"/>
    <path fill="#cdcdcd" fill-rule="nonzero" d="m1018.133323,499.999975l15.2,-15.2l15.2,15.2l-15.2,15.2l-15.2,-15.2" id="path628"/>
    <path fill="#dbdbdb" fill-rule="nonzero" d="m1016.866656,566.666641l16.466667,-16.466667l16.466667,16.466667l-16.466667,16.466667l-16.466667,-16.466667" id="path630"/>
    <path fill="#b6b6b6" fill-rule="nonzero" d="m1015.59999,633.333307l17.733333,-17.733333l17.733333,17.733333l-17.733333,17.733333l-17.733333,-17.733333" id="path632"/>
    <path fill="#e0e0e0" fill-rule="nonzero" d="m1093.666656,33.333313l6.333333,-6.333333l6.333333,6.333333l-6.333333,6.333333l-6.333333,-6.333333" id="path654"/>
    <path fill="#ffffff" fill-rule="nonzero" d="m1092.399989,99.999979l7.6,-7.6l7.6,7.6l-7.6,7.6l-7.6,-7.6" id="path656"/>
    <path fill="#ffffff" fill-rule="nonzero" d="m1091.133322,166.666645l8.866667,-8.866667l8.866667,8.866667l-8.866667,8.866667l-8.866667,-8.866667" id="path658"/>
    <path fill="#b5b5b5" fill-rule="nonzero" d="m1089.866656,233.333311l10.133333,-10.133333l10.133333,10.133333l-10.133333,10.133333l-10.133333,-10.133333" id="path660"/>
    <path fill="#f5f5f5" fill-rule="nonzero" d="m1088.599989,299.999977l11.4,-11.4l11.4,11.4l-11.4,11.4l-11.4,-11.4" id="path662"/>
    <path fill="#f7f7f7" fill-rule="nonzero" d="m1087.333322,366.666643l12.666667,-12.666667l12.666667,12.666667l-12.666667,12.666667l-12.666667,-12.666667" id="path664"/>
    <path fill="#ffffff" fill-rule="nonzero" d="m1086.066656,433.333309l13.933333,-13.933333l13.933333,13.933333l-13.933333,13.933333l-13.933333,-13.933333" id="path666"/>
    <path fill="#f1f1f1" fill-rule="nonzero" d="m1084.799989,499.999975l15.2,-15.2l15.2,15.2l-15.2,15.2l-15.2,-15.2" id="path668"/>
    <path fill="#fbfbfb" fill-rule="nonzero" d="m1083.533322,566.666641l16.466667,-16.466667l16.466667,16.466667l-16.466667,16.466667l-16.466667,-16.466667" id="path670"/>
    <path fill="#c8c8c8" fill-rule="nonzero" d="m1082.266656,633.333307l17.733333,-17.733333l17.733333,17.733333l-17.733333,17.733333l-17.733333,-17.733333" id="path672"/>
    <path fill="#fdfdfd" fill-rule="nonzero" d="m1160.333322,33.333313l6.333333,-6.333333l6.333333,6.333333l-6.333333,6.333333l-6.333333,-6.333333" id="path694"/>
    <path fill="#f9f9f9" fill-rule="nonzero" d="m1159.066655,99.999979l7.6,-7.6l7.6,7.6l-7.6,7.6l-7.6,-7.6" id="path696"/>
    <path fill="#afafaf" fill-rule="nonzero" d="m1157.799988,166.666645l8.866667,-8.866667l8.866667,8.866667l-8.866667,8.866667l-8.866667,-8.866667" id="path698"/>
    <path fill="#ffffff" fill-rule="nonzero" d="m1156.533322,233.333311l10.133333,-10.133333l10.133333,10.133333l-10.133333,10.133333l-10.133333,-10.133333" id="path700"/>
    <path fill="#d9d9d9" fill-rule="nonzero" d="m1155.266655,299.999977l11.4,-11.4l11.4,11.4l-11.4,11.4l-11.4,-11.4" id="path702"/>
    <path fill="#ffffff" fill-rule="nonzero" d="m1153.999988,366.666643l12.666667,-12.666667l12.666667,12.666667l-12.666667,12.666667l-12.666667,-12.666667" id="path704"/>
    <path fill="#d3d3d3" fill-rule="nonzero" d="m1152.733322,433.333309l13.933333,-13.933333l13.933333,13.933333l-13.933333,13.933333l-13.933333,-13.933333" id="path706"/>
    <path fill="#ffffff" fill-rule="nonzero" d="m1151.466655,499.999975l15.2,-15.2l15.2,15.2l-15.2,15.2l-15.2,-15.2" id="path708"/>
    <path fill="#ebebeb" fill-rule="nonzero" d="m1150.199988,566.666641l16.466667,-16.466667l16.466667,16.466667l-16.466667,16.466667l-16.466667,-16.466667" id="path710"/>
    <path fill="#ffffff" fill-rule="nonzero" d="m1148.933322,633.333307l17.733333,-17.733333l17.733333,17.733333l-17.733333,17.733333l-17.733333,-17.733333" id="path712"/>
    <path fill="#e0e0e0" fill-rule="nonzero" d="m1226.999988,33.333313l6.333333,-6.333333l6.333333,6.333333l-6.333333,6.333333l-6.333333,-6.333333" id="path734"/>
    <path fill="#d6d6d6" fill-rule="nonzero" d="m1225.733321,99.999979l7.6,-7.6l7.6,7.6l-7.6,7.6l-7.6,-7.6" id="path736"/>
    <path fill="#ececec" fill-rule="nonzero" d="m1224.466654,166.666645l8.866667,-8.866667l8.866667,8.866667l-8.866667,8.866667l-8.866667,-8.866667" id="path738"/>
    <path fill="#ffffff" fill-rule="nonzero" d="m1223.199988,233.333311l10.133333,-10.133333l10.133333,10.133333l-10.133333,10.133333l-10.133333,-10.133333" id="path740"/>
    <path fill="#f5f5f5" fill-rule="nonzero" d="m1221.933321,299.999977l11.4,-11.4l11.4,11.4l-11.4,11.4l-11.4,-11.4" id="path742"/>
    <path fill="#ffffff" fill-rule="nonzero" d="m1220.666654,366.666643l12.666667,-12.666667l12.666667,12.666667l-12.666667,12.666667l-12.666667,-12.666667" id="path744"/>
    <path fill="#ffffff" fill-rule="nonzero" d="m1219.399988,433.333309l13.933333,-13.933333l13.933333,13.933333l-13.933333,13.933333l-13.933333,-13.933333" id="path746"/>
    <path fill="#fdfdfd" fill-rule="nonzero" d="m1218.133321,499.999975l15.2,-15.2l15.2,15.2l-15.2,15.2l-15.2,-15.2" id="path748"/>
    <path fill="#d5d5d5" fill-rule="nonzero" d="m1216.866654,566.666641l16.466667,-16.466667l16.466667,16.466667l-16.466667,16.466667l-16.466667,-16.466667" id="path750"/>
    <path fill="#c9c9c9" fill-rule="nonzero" d="m1215.599988,633.333307l17.733333,-17.733333l17.733333,17.733333l-17.733333,17.733333l-17.733333,-17.733333" id="path752"/>
    <path fill="#ececec" fill-rule="nonzero" d="m1293.666654,33.333313l6.333333,-6.333333l6.333333,6.333333l-6.333333,6.333333l-6.333333,-6.333333" id="path774"/>
    <path fill="#d9d9d9" fill-rule="nonzero" d="m1292.399987,99.999979l7.6,-7.6l7.6,7.6l-7.6,7.6l-7.6,-7.6" id="path776"/>
    <path fill="#ffffff" fill-rule="nonzero" d="m1291.13332,166.666645l8.866667,-8.866667l8.866667,8.866667l-8.866667,8.866667l-8.866667,-8.866667" id="path778"/>
    <path fill="#f4f4f4" fill-rule="nonzero" d="m1289.866654,233.333311l10.133333,-10.133333l10.133333,10.133333l-10.133333,10.133333l-10.133333,-10.133333" id="path780"/>
    <path fill="#fbfbfb" fill-rule="nonzero" d="m1288.599987,299.999977l11.4,-11.4l11.4,11.4l-11.4,11.4l-11.4,-11.4" id="path782"/>
    <path fill="#ffffff" fill-rule="nonzero" d="m1287.33332,366.666643l12.666667,-12.666667l12.666667,12.666667l-12.666667,12.666667l-12.666667,-12.666667" id="path784"/>
    <path fill="#f9f9f9" fill-rule="nonzero" d="m1286.066654,433.333309l13.933333,-13.933333l13.933333,13.933333l-13.933333,13.933333l-13.933333,-13.933333" id="path786"/>
    <path fill="#dedede" fill-rule="nonzero" d="m1284.799987,499.999975l15.2,-15.2l15.2,15.2l-15.2,15.2l-15.2,-15.2" id="path788"/>
    <path fill="#ffffff" fill-rule="nonzero" d="m1283.53332,566.666641l16.466667,-16.466667l16.466667,16.466667l-16.466667,16.466667l-16.466667,-16.466667" id="path790"/>
    <path fill="#eaeaea" fill-rule="nonzero" d="m1282.266654,633.333307l17.733333,-17.733333l17.733333,17.733333l-17.733333,17.733333l-17.733333,-17.733333" id="path792"/>
    <path fill="#ffffff" fill-rule="nonzero" d="m327.63333,-0.00002l5.7,-5.706667l5.7,5.706667l-5.7,5.7l-5.7,-5.7" id="path1024"/>
    <path fill="#f9f9f9" fill-rule="nonzero" d="m326.366663,66.666646l6.966667,-6.966667l6.966667,6.966667l-6.966667,6.966667l-6.966667,-6.966667" id="path1026"/>
    <path fill="#fefefe" fill-rule="nonzero" d="m325.099997,133.333312l8.233333,-8.233333l8.233333,8.233333l-8.233333,8.233333l-8.233333,-8.233333" id="path1028"/>
    <path fill="#ffffff" fill-rule="nonzero" d="m394.299996,-0.00002l5.7,-5.706667l5.7,5.706667l-5.7,5.7l-5.7,-5.7" id="path1066"/>
    <path fill="#ffffff" fill-rule="nonzero" d="m393.033329,66.666646l6.966667,-6.966667l6.966667,6.966667l-6.966667,6.966667l-6.966667,-6.966667" id="path1068"/>
    <path fill="#b3b3b3" fill-rule="nonzero" d="m391.766663,133.333312l8.233333,-8.233333l8.233333,8.233333l-8.233333,8.233333l-8.233333,-8.233333" id="path1070"/>
    <path fill="#d1d1d1" fill-rule="nonzero" d="m390.499996,199.999978l9.5,-9.5l9.5,9.5l-9.5,9.5l-9.5,-9.5" id="path1072"/>
    <path fill="#cecece" fill-rule="nonzero" d="m389.233329,266.666644l10.766667,-10.766667l10.766667,10.766667l-10.766667,10.766667l-10.766667,-10.766667" id="path1074"/>
    <path fill="#ffffff" fill-rule="nonzero" d="m387.966663,333.33331l12.033333,-12.033333l12.033333,12.033333l-12.033333,12.033333l-12.033333,-12.033333" id="path1076"/>
    <path fill="#f4f4f4" fill-rule="nonzero" d="m460.966662,-0.00002l5.7,-5.706667l5.7,5.706667l-5.7,5.7l-5.7,-5.7" id="path1108"/>
    <path fill="#d2d2d2" fill-rule="nonzero" d="m459.699995,66.666646l6.966667,-6.966667l6.966667,6.966667l-6.966667,6.966667l-6.966667,-6.966667" id="path1110"/>
    <path fill="#f1f1f1" fill-rule="nonzero" d="m458.433329,133.333312l8.233333,-8.233333l8.233333,8.233333l-8.233333,8.233333l-8.233333,-8.233333" id="path1112"/>
    <path fill="#ffffff" fill-rule="nonzero" d="m457.166662,199.999978l9.5,-9.5l9.5,9.5l-9.5,9.5l-9.5,-9.5" id="path1114"/>
    <path fill="#cbcbcb" fill-rule="nonzero" d="m455.899995,266.666644l10.766667,-10.766667l10.766667,10.766667l-10.766667,10.766667l-10.766667,-10.766667" id="path1116"/>
    <path fill="#ffffff" fill-rule="nonzero" d="m454.633329,333.33331l12.033333,-12.033333l12.033333,12.033333l-12.033333,12.033333l-12.033333,-12.033333" id="path1118"/>
    <path fill="#e1e1e1" fill-rule="nonzero" d="m453.366662,399.999976l13.3,-13.3l13.3,13.3l-13.3,13.3l-13.3,-13.3" id="path1120"/>
    <path fill="#d9d9d9" fill-rule="nonzero" d="m452.099995,466.666642l14.566667,-14.566667l14.566667,14.566667l-14.566667,14.566667l-14.566667,-14.566667" id="path1122"/>
    <path fill="#ffffff" fill-rule="nonzero" d="m450.833329,533.333308l15.833333,-15.833333l15.833333,15.833333l-15.833333,15.833333l-15.833333,-15.833333" id="path1124"/>
    <path fill="#dcdcdc" fill-rule="nonzero" d="m449.566662,599.999974l17.1,-17.1l17.1,17.1l-17.1,17.1l-17.1,-17.1" id="path1126"/>
    <path fill="#e4e4e4" fill-rule="nonzero" d="m527.633328,-0.00002l5.7,-5.706667l5.7,5.706667l-5.7,5.7l-5.7,-5.7" id="path1150"/>
    <path fill="#f1f1f1" fill-rule="nonzero" d="m526.366661,66.666646l6.966667,-6.966667l6.966667,6.966667l-6.966667,6.966667l-6.966667,-6.966667" id="path1152"/>
    <path fill="#ffffff" fill-rule="nonzero" d="m525.099995,133.333312l8.233333,-8.233333l8.233333,8.233333l-8.233333,8.233333l-8.233333,-8.233333" id="path1154"/>
    <path fill="#b9b9b9" fill-rule="nonzero" d="m523.833328,199.999978l9.5,-9.5l9.5,9.5l-9.5,9.5l-9.5,-9.5" id="path1156"/>
    <path fill="#e2e2e2" fill-rule="nonzero" d="m522.566661,266.666644l10.766667,-10.766667l10.766667,10.766667l-10.766667,10.766667l-10.766667,-10.766667" id="path1158"/>
    <path fill="#cbcbcb" fill-rule="nonzero" d="m521.299995,333.33331l12.033333,-12.033333l12.033333,12.033333l-12.033333,12.033333l-12.033333,-12.033333" id="path1160"/>
    <path fill="#e0e0e0" fill-rule="nonzero" d="m520.033328,399.999976l13.3,-13.3l13.3,13.3l-13.3,13.3l-13.3,-13.3" id="path1162"/>
    <path fill="#ffffff" fill-rule="nonzero" d="m518.766661,466.666642l14.566667,-14.566667l14.566667,14.566667l-14.566667,14.566667l-14.566667,-14.566667" id="path1164"/>
    <path fill="#d8d8d8" fill-rule="nonzero" d="m517.499995,533.333308l15.833333,-15.833333l15.833333,15.833333l-15.833333,15.833333l-15.833333,-15.833333" id="path1166"/>
    <path fill="#e9e9e9" fill-rule="nonzero" d="m516.233328,599.999974l17.1,-17.1l17.1,17.1l-17.1,17.1l-17.1,-17.1" id="path1168"/>
    <path fill="#ffffff" fill-rule="nonzero" d="m594.299994,-0.00002l5.7,-5.706667l5.7,5.706667l-5.7,5.7l-5.7,-5.7" id="path1192"/>
    <path fill="#c1c1c1" fill-rule="nonzero" d="m593.033327,66.666646l6.966667,-6.966667l6.966667,6.966667l-6.966667,6.966667l-6.966667,-6.966667" id="path1194"/>
    <path fill="#e9e9e9" fill-rule="nonzero" d="m591.766661,133.333312l8.233333,-8.233333l8.233333,8.233333l-8.233333,8.233333l-8.233333,-8.233333" id="path1196"/>
    <path fill="#bfbfbf" fill-rule="nonzero" d="m590.499994,199.999978l9.5,-9.5l9.5,9.5l-9.5,9.5l-9.5,-9.5" id="path1198"/>
    <path fill="#ffffff" fill-rule="nonzero" d="m589.233327,266.666644l10.766667,-10.766667l10.766667,10.766667l-10.766667,10.766667l-10.766667,-10.766667" id="path1200"/>
    <path fill="#adadad" fill-rule="nonzero" d="m587.966661,333.33331l12.033333,-12.033333l12.033333,12.033333l-12.033333,12.033333l-12.033333,-12.033333" id="path1202"/>
    <path fill="#e5e5e5" fill-rule="nonzero" d="m586.699994,399.999976l13.3,-13.3l13.3,13.3l-13.3,13.3l-13.3,-13.3" id="path1204"/>
    <path fill="#e6e6e6" fill-rule="nonzero" d="m585.433327,466.666642l14.566667,-14.566667l14.566667,14.566667l-14.566667,14.566667l-14.566667,-14.566667" id="path1206"/>
    <path fill="#ffffff" fill-rule="nonzero" d="m584.166661,533.333308l15.833333,-15.833333l15.833333,15.833333l-15.833333,15.833333l-15.833333,-15.833333" id="path1208"/>
    <path fill="#cccccc" fill-rule="nonzero" d="m582.899994,599.999974l17.1,-17.1l17.1,17.1l-17.1,17.1l-17.1,-17.1" id="path1210"/>
    <path fill="#ffffff" fill-rule="nonzero" d="m660.96666,-0.00002l5.7,-5.706667l5.7,5.706667l-5.7,5.7l-5.7,-5.7" id="path1234"/>
    <path fill="#c5c5c5" fill-rule="nonzero" d="m659.699993,66.666646l6.966667,-6.966667l6.966667,6.966667l-6.966667,6.966667l-6.966667,-6.966667" id="path1236"/>
    <path fill="#ffffff" fill-rule="nonzero" d="m658.433327,133.333312l8.233333,-8.233333l8.233333,8.233333l-8.233333,8.233333l-8.233333,-8.233333" id="path1238"/>
    <path fill="#ffffff" fill-rule="nonzero" d="m657.16666,199.999978l9.5,-9.5l9.5,9.5l-9.5,9.5l-9.5,-9.5" id="path1240"/>
    <path fill="#f8f8f8" fill-rule="nonzero" d="m655.899993,266.666644l10.766667,-10.766667l10.766667,10.766667l-10.766667,10.766667l-10.766667,-10.766667" id="path1242"/>
    <path fill="#d3d3d3" fill-rule="nonzero" d="m654.633327,333.33331l12.033333,-12.033333l12.033333,12.033333l-12.033333,12.033333l-12.033333,-12.033333" id="path1244"/>
    <path fill="#bababa" fill-rule="nonzero" d="m653.36666,399.999976l13.3,-13.3l13.3,13.3l-13.3,13.3l-13.3,-13.3" id="path1246"/>
    <path fill="#ffffff" fill-rule="nonzero" d="m652.099993,466.666642l14.566667,-14.566667l14.566667,14.566667l-14.566667,14.566667l-14.566667,-14.566667" id="path1248"/>
    <path fill="#f9f9f9" fill-rule="nonzero" d="m650.833327,533.333308l15.833333,-15.833333l15.833333,15.833333l-15.833333,15.833333l-15.833333,-15.833333" id="path1250"/>
    <path fill="#ffffff" fill-rule="nonzero" d="m649.56666,599.999974l17.1,-17.1l17.1,17.1l-17.1,17.1l-17.1,-17.1" id="path1252"/>
    <path fill="#dbdbdb" fill-rule="nonzero" d="m727.633326,-0.00002l5.7,-5.706667l5.7,5.706667l-5.7,5.7l-5.7,-5.7" id="path1276"/>
    <path fill="#afafaf" fill-rule="nonzero" d="m726.366659,66.666646l6.966667,-6.966667l6.966667,6.966667l-6.966667,6.966667l-6.966667,-6.966667" id="path1278"/>
    <path fill="#ffffff" fill-rule="nonzero" d="m725.099993,133.333312l8.233333,-8.233333l8.233333,8.233333l-8.233333,8.233333l-8.233333,-8.233333" id="path1280"/>
    <path fill="#e2e2e2" fill-rule="nonzero" d="m723.833326,199.999978l9.5,-9.5l9.5,9.5l-9.5,9.5l-9.5,-9.5" id="path1282"/>
    <path fill="#afafaf" fill-rule="nonzero" d="m722.566659,266.666644l10.766667,-10.766667l10.766667,10.766667l-10.766667,10.766667l-10.766667,-10.766667" id="path1284"/>
    <path fill="#b8b8b8" fill-rule="nonzero" d="m721.299993,333.33331l12.033333,-12.033333l12.033333,12.033333l-12.033333,12.033333l-12.033333,-12.033333" id="path1286"/>
    <path fill="#c6c6c6" fill-rule="nonzero" d="m720.033326,399.999976l13.3,-13.3l13.3,13.3l-13.3,13.3l-13.3,-13.3" id="path1288"/>
    <path fill="#ffffff" fill-rule="nonzero" d="m718.766659,466.666642l14.566667,-14.566667l14.566667,14.566667l-14.566667,14.566667l-14.566667,-14.566667" id="path1290"/>
    <path fill="#bcbcbc" fill-rule="nonzero" d="m717.499993,533.333308l15.833333,-15.833333l15.833333,15.833333l-15.833333,15.833333l-15.833333,-15.833333" id="path1292"/>
    <path fill="#f3f3f3" fill-rule="nonzero" d="m716.233326,599.999974l17.1,-17.1l17.1,17.1l-17.1,17.1l-17.1,-17.1" id="path1294"/>
    <path fill="#d7d7d7" fill-rule="nonzero" d="m794.299992,-0.00002l5.7,-5.706667l5.7,5.706667l-5.7,5.7l-5.7,-5.7" id="path1318"/>
    <path fill="#f6f6f6" fill-rule="nonzero" d="m793.033325,66.666646l6.966667,-6.966667l6.966667,6.966667l-6.966667,6.966667l-6.966667,-6.966667" id="path1320"/>
    <path fill="#b2b2b2" fill-rule="nonzero" d="m791.766659,133.333312l8.233333,-8.233333l8.233333,8.233333l-8.233333,8.233333l-8.233333,-8.233333" id="path1322"/>
    <path fill="#ffffff" fill-rule="nonzero" d="m790.499992,199.999978l9.5,-9.5l9.5,9.5l-9.5,9.5l-9.5,-9.5" id="path1324"/>
    <path fill="#ffffff" fill-rule="nonzero" d="m789.233325,266.666644l10.766667,-10.766667l10.766667,10.766667l-10.766667,10.766667l-10.766667,-10.766667" id="path1326"/>
    <path fill="#ffffff" fill-rule="nonzero" d="m787.966659,333.33331l12.033333,-12.033333l12.033333,12.033333l-12.033333,12.033333l-12.033333,-12.033333" id="path1328"/>
    <path fill="#c6c6c6" fill-rule="nonzero" d="m786.699992,399.999976l13.3,-13.3l13.3,13.3l-13.3,13.3l-13.3,-13.3" id="path1330"/>
    <path fill="#ffffff" fill-rule="nonzero" d="m785.433325,466.666642l14.566667,-14.566667l14.566667,14.566667l-14.566667,14.566667l-14.566667,-14.566667" id="path1332"/>
    <path fill="#c3c3c3" fill-rule="nonzero" d="m784.166659,533.333308l15.833333,-15.833333l15.833333,15.833333l-15.833333,15.833333l-15.833333,-15.833333" id="path1334"/>
    <path fill="#e8e8e8" fill-rule="nonzero" d="m782.899992,599.999974l17.1,-17.1l17.1,17.1l-17.1,17.1l-17.1,-17.1" id="path1336"/>
    <path fill="#b8b8b8" fill-rule="nonzero" d="m860.966658,-0.00002l5.7,-5.706667l5.7,5.706667l-5.7,5.7l-5.7,-5.7" id="path1360"/>
    <path fill="#e8e8e8" fill-rule="nonzero" d="m859.699991,66.666646l6.966667,-6.966667l6.966667,6.966667l-6.966667,6.966667l-6.966667,-6.966667" id="path1362"/>
    <path fill="#d0d0d0" fill-rule="nonzero" d="m858.433325,133.333312l8.233333,-8.233333l8.233333,8.233333l-8.233333,8.233333l-8.233333,-8.233333" id="path1364"/>
    <path fill="#ffffff" fill-rule="nonzero" d="m857.166658,199.999978l9.5,-9.5l9.5,9.5l-9.5,9.5l-9.5,-9.5" id="path1366"/>
    <path fill="#d9d9d9" fill-rule="nonzero" d="m855.899991,266.666644l10.766667,-10.766667l10.766667,10.766667l-10.766667,10.766667l-10.766667,-10.766667" id="path1368"/>
    <path fill="#b6b6b6" fill-rule="nonzero" d="m854.633325,333.33331l12.033333,-12.033333l12.033333,12.033333l-12.033333,12.033333l-12.033333,-12.033333" id="path1370"/>
    <path fill="#ffffff" fill-rule="nonzero" d="m853.366658,399.999976l13.3,-13.3l13.3,13.3l-13.3,13.3l-13.3,-13.3" id="path1372"/>
    <path fill="#ffffff" fill-rule="nonzero" d="m852.099991,466.666642l14.566667,-14.566667l14.566667,14.566667l-14.566667,14.566667l-14.566667,-14.566667" id="path1374"/>
    <path fill="#fcfcfc" fill-rule="nonzero" d="m850.833325,533.333308l15.833333,-15.833333l15.833333,15.833333l-15.833333,15.833333l-15.833333,-15.833333" id="path1376"/>
    <path fill="#dfdfdf" fill-rule="nonzero" d="m849.566658,599.999974l17.1,-17.1l17.1,17.1l-17.1,17.1l-17.1,-17.1" id="path1378"/>
    <path fill="#dedede" fill-rule="nonzero" d="m927.633324,-0.00002l5.7,-5.706667l5.7,5.706667l-5.7,5.7l-5.7,-5.7" id="path1402"/>
    <path fill="#ffffff" fill-rule="nonzero" d="m926.366657,66.666646l6.966667,-6.966667l6.966667,6.966667l-6.966667,6.966667l-6.966667,-6.966667" id="path1404"/>
    <path fill="#b4b4b4" fill-rule="nonzero" d="m925.099991,133.333312l8.233333,-8.233333l8.233333,8.233333l-8.233333,8.233333l-8.233333,-8.233333" id="path1406"/>
    <path fill="#efefef" fill-rule="nonzero" d="m923.833324,199.999978l9.5,-9.5l9.5,9.5l-9.5,9.5l-9.5,-9.5" id="path1408"/>
    <path fill="#f4f4f4" fill-rule="nonzero" d="m922.566657,266.666644l10.766667,-10.766667l10.766667,10.766667l-10.766667,10.766667l-10.766667,-10.766667" id="path1410"/>
    <path fill="#dfdfdf" fill-rule="nonzero" d="m921.299991,333.33331l12.033333,-12.033333l12.033333,12.033333l-12.033333,12.033333l-12.033333,-12.033333" id="path1412"/>
    <path fill="#c8c8c8" fill-rule="nonzero" d="m920.033324,399.999976l13.3,-13.3l13.3,13.3l-13.3,13.3l-13.3,-13.3" id="path1414"/>
    <path fill="#fcfcfc" fill-rule="nonzero" d="m918.766657,466.666642l14.566667,-14.566667l14.566667,14.566667l-14.566667,14.566667l-14.566667,-14.566667" id="path1416"/>
    <path fill="#ffffff" fill-rule="nonzero" d="m917.499991,533.333308l15.833333,-15.833333l15.833333,15.833333l-15.833333,15.833333l-15.833333,-15.833333" id="path1418"/>
    <path fill="#aeaeae" fill-rule="nonzero" d="m916.233324,599.999974l17.1,-17.1l17.1,17.1l-17.1,17.1l-17.1,-17.1" id="path1420"/>
    <path fill="#b6b6b6" fill-rule="nonzero" d="m994.29999,-0.00002l5.7,-5.706667l5.7,5.706667l-5.7,5.7l-5.7,-5.7" id="path1444"/>
    <path fill="#ffffff" fill-rule="nonzero" d="m993.033323,66.666646l6.966667,-6.966667l6.966667,6.966667l-6.966667,6.966667l-6.966667,-6.966667" id="path1446"/>
    <path fill="#ffffff" fill-rule="nonzero" d="m991.766657,133.333312l8.233333,-8.233333l8.233333,8.233333l-8.233333,8.233333l-8.233333,-8.233333" id="path1448"/>
    <path fill="#dedede" fill-rule="nonzero" d="m990.49999,199.999978l9.5,-9.5l9.5,9.5l-9.5,9.5l-9.5,-9.5" id="path1450"/>
    <path fill="#ebebeb" fill-rule="nonzero" d="m989.233323,266.666644l10.766667,-10.766667l10.766667,10.766667l-10.766667,10.766667l-10.766667,-10.766667" id="path1452"/>
    <path fill="#ffffff" fill-rule="nonzero" d="m987.966657,333.33331l12.033333,-12.033333l12.033333,12.033333l-12.033333,12.033333l-12.033333,-12.033333" id="path1454"/>
    <path fill="#e3e3e3" fill-rule="nonzero" d="m986.69999,399.999976l13.3,-13.3l13.3,13.3l-13.3,13.3l-13.3,-13.3" id="path1456"/>
    <path fill="#ffffff" fill-rule="nonzero" d="m985.433323,466.666642l14.566667,-14.566667l14.566667,14.566667l-14.566667,14.566667l-14.566667,-14.566667" id="path1458"/>
    <path fill="#dfdfdf" fill-rule="nonzero" d="m984.166657,533.333308l15.833333,-15.833333l15.833333,15.833333l-15.833333,15.833333l-15.833333,-15.833333" id="path1460"/>
    <path fill="#dadada" fill-rule="nonzero" d="m982.89999,599.999974l17.1,-17.1l17.1,17.1l-17.1,17.1l-17.1,-17.1" id="path1462"/>
    <path fill="#ffffff" fill-rule="nonzero" d="m1060.966656,-0.00002l5.7,-5.706667l5.7,5.706667l-5.7,5.7l-5.7,-5.7" id="path1486"/>
    <path fill="#eaeaea" fill-rule="nonzero" d="m1059.699989,66.666646l6.966667,-6.966667l6.966667,6.966667l-6.966667,6.966667l-6.966667,-6.966667" id="path1488"/>
    <path fill="#f2f2f2" fill-rule="nonzero" d="m1058.433323,133.333312l8.233333,-8.233333l8.233333,8.233333l-8.233333,8.233333l-8.233333,-8.233333" id="path1490"/>
    <path fill="#ffffff" fill-rule="nonzero" d="m1057.166656,199.999978l9.5,-9.5l9.5,9.5l-9.5,9.5l-9.5,-9.5" id="path1492"/>
    <path fill="#ededed" fill-rule="nonzero" d="m1055.899989,266.666644l10.766667,-10.766667l10.766667,10.766667l-10.766667,10.766667l-10.766667,-10.766667" id="path1494"/>
    <path fill="#eaeaea" fill-rule="nonzero" d="m1054.633323,333.33331l12.033333,-12.033333l12.033333,12.033333l-12.033333,12.033333l-12.033333,-12.033333" id="path1496"/>
    <path fill="#aeaeae" fill-rule="nonzero" d="m1053.366656,399.999976l13.3,-13.3l13.3,13.3l-13.3,13.3l-13.3,-13.3" id="path1498"/>
    <path fill="#ffffff" fill-rule="nonzero" d="m1052.099989,466.666642l14.566667,-14.566667l14.566667,14.566667l-14.566667,14.566667l-14.566667,-14.566667" id="path1500"/>
    <path fill="#ffffff" fill-rule="nonzero" d="m1050.833323,533.333308l15.833333,-15.833333l15.833333,15.833333l-15.833333,15.833333l-15.833333,-15.833333" id="path1502"/>
    <path fill="#b2b2b2" fill-rule="nonzero" d="m1049.566656,599.999974l17.1,-17.1l17.1,17.1l-17.1,17.1l-17.1,-17.1" id="path1504"/>
    <path fill="#ffffff" fill-rule="nonzero" d="m1127.633322,-0.00002l5.7,-5.706667l5.7,5.706667l-5.7,5.7l-5.7,-5.7" id="path1528"/>
    <path fill="#ffffff" fill-rule="nonzero" d="m1126.366655,66.666646l6.966667,-6.966667l6.966667,6.966667l-6.966667,6.966667l-6.966667,-6.966667" id="path1530"/>
    <path fill="#ffffff" fill-rule="nonzero" d="m1125.099989,133.333312l8.233333,-8.233333l8.233333,8.233333l-8.233333,8.233333l-8.233333,-8.233333" id="path1532"/>
    <path fill="#f4f4f4" fill-rule="nonzero" d="m1123.833322,199.999978l9.5,-9.5l9.5,9.5l-9.5,9.5l-9.5,-9.5" id="path1534"/>
    <path fill="#ffffff" fill-rule="nonzero" d="m1122.566655,266.666644l10.766667,-10.766667l10.766667,10.766667l-10.766667,10.766667l-10.766667,-10.766667" id="path1536"/>
    <path fill="#cccccc" fill-rule="nonzero" d="m1121.299989,333.33331l12.033333,-12.033333l12.033333,12.033333l-12.033333,12.033333l-12.033333,-12.033333" id="path1538"/>
    <path fill="#d5d5d5" fill-rule="nonzero" d="m1120.033322,399.999976l13.3,-13.3l13.3,13.3l-13.3,13.3l-13.3,-13.3" id="path1540"/>
    <path fill="#ffffff" fill-rule="nonzero" d="m1118.766655,466.666642l14.566667,-14.566667l14.566667,14.566667l-14.566667,14.566667l-14.566667,-14.566667" id="path1542"/>
    <path fill="#f7f7f7" fill-rule="nonzero" d="m1117.499989,533.333308l15.833333,-15.833333l15.833333,15.833333l-15.833333,15.833333l-15.833333,-15.833333" id="path1544"/>
    <path fill="#e0e0e0" fill-rule="nonzero" d="m1116.233322,599.999974l17.1,-17.1l17.1,17.1l-17.1,17.1l-17.1,-17.1" id="path1546"/>
    <path fill="#ffffff" fill-rule="nonzero" d="m1194.299988,-0.00002l5.7,-5.706667l5.7,5.706667l-5.7,5.7l-5.7,-5.7" id="path1570"/>
    <path fill="#ffffff" fill-rule="nonzero" d="m1193.033321,66.666646l6.966667,-6.966667l6.966667,6.966667l-6.966667,6.966667l-6.966667,-6.966667" id="path1572"/>
    <path fill="#ffffff" fill-rule="nonzero" d="m1191.766655,133.333312l8.233333,-8.233333l8.233333,8.233333l-8.233333,8.233333l-8.233333,-8.233333" id="path1574"/>
    <path fill="#ffffff" fill-rule="nonzero" d="m1190.499988,199.999978l9.5,-9.5l9.5,9.5l-9.5,9.5l-9.5,-9.5" id="path1576"/>
    <path fill="#cfcfcf" fill-rule="nonzero" d="m1189.233321,266.666644l10.766667,-10.766667l10.766667,10.766667l-10.766667,10.766667l-10.766667,-10.766667" id="path1578"/>
    <path fill="#ffffff" fill-rule="nonzero" d="m1187.966655,333.33331l12.033333,-12.033333l12.033333,12.033333l-12.033333,12.033333l-12.033333,-12.033333" id="path1580"/>
    <path fill="#e5e5e5" fill-rule="nonzero" d="m1186.699988,399.999976l13.3,-13.3l13.3,13.3l-13.3,13.3l-13.3,-13.3" id="path1582"/>
    <path fill="#e9e9e9" fill-rule="nonzero" d="m1185.433321,466.666642l14.566667,-14.566667l14.566667,14.566667l-14.566667,14.566667l-14.566667,-14.566667" id="path1584"/>
    <path fill="#bebebe" fill-rule="nonzero" d="m1184.166655,533.333308l15.833333,-15.833333l15.833333,15.833333l-15.833333,15.833333l-15.833333,-15.833333" id="path1586"/>
    <path fill="#f9f9f9" fill-rule="nonzero" d="m1182.899988,599.999974l17.1,-17.1l17.1,17.1l-17.1,17.1l-17.1,-17.1" id="path1588"/>
    <path fill="#dbdbdb" fill-rule="nonzero" d="m1260.966654,-0.00002l5.7,-5.706667l5.7,5.706667l-5.7,5.7l-5.7,-5.7" id="path1612"/>
    <path fill="#ffffff" fill-rule="nonzero" d="m1259.699987,66.666646l6.966667,-6.966667l6.966667,6.966667l-6.966667,6.966667l-6.966667,-6.966667" id="path1614"/>
    <path fill="#e2e2e2" fill-rule="nonzero" d="m1258.433321,133.333312l8.233333,-8.233333l8.233333,8.233333l-8.233333,8.233333l-8.233333,-8.233333" id="path1616"/>
    <path fill="#c3c3c3" fill-rule="nonzero" d="m1257.166654,199.999978l9.5,-9.5l9.5,9.5l-9.5,9.5l-9.5,-9.5" id="path1618"/>
    <path fill="#adadad" fill-rule="nonzero" d="m1255.899987,266.666644l10.766667,-10.766667l10.766667,10.766667l-10.766667,10.766667l-10.766667,-10.766667" id="path1620"/>
    <path fill="#f6f6f6" fill-rule="nonzero" d="m1254.633321,333.33331l12.033333,-12.033333l12.033333,12.033333l-12.033333,12.033333l-12.033333,-12.033333" id="path1622"/>
    <path fill="#c0c0c0" fill-rule="nonzero" d="m1253.366654,399.999976l13.3,-13.3l13.3,13.3l-13.3,13.3l-13.3,-13.3" id="path1624"/>
    <path fill="#e1e1e1" fill-rule="nonzero" d="m1252.099987,466.666642l14.566667,-14.566667l14.566667,14.566667l-14.566667,14.566667l-14.566667,-14.566667" id="path1626"/>
    <path fill="#ebebeb" fill-rule="nonzero" d="m1250.833321,533.333308l15.833333,-15.833333l15.833333,15.833333l-15.833333,15.833333l-15.833333,-15.833333" id="path1628"/>
    <path fill="#f6f6f6" fill-rule="nonzero" d="m1249.566654,599.999974l17.1,-17.1l17.1,17.1l-17.1,17.1l-17.1,-17.1" id="path1630"/>
    <path fill="#adadad" fill-rule="nonzero" d="m1327.63332,-0.00002l5.7,-5.706667l5.706667,5.706667l-5.706667,5.7l-5.7,-5.7" id="path1654"/>
    <path fill="#cacaca" fill-rule="nonzero" d="m1326.366653,66.666646l6.966667,-6.966667l6.96,6.966667l-6.96,6.966667l-6.966667,-6.966667" id="path1656"/>
    <path fill="#ececec" fill-rule="nonzero" d="m1325.099987,133.333312l8.233333,-8.233333l8.226667,8.233333l-8.226667,8.233333l-8.233333,-8.233333" id="path1658"/>
    <path fill="#c7c7c7" fill-rule="nonzero" d="m1323.83332,199.999978l9.5,-9.5l9.506667,9.5l-9.506667,9.5l-9.5,-9.5" id="path1660"/>
    <path fill="#f9f9f9" fill-rule="nonzero" d="m1322.566653,266.666644l10.766667,-10.766667l10.773333,10.766667l-10.773333,10.766667l-10.766667,-10.766667" id="path1662"/>
    <path fill="#ededed" fill-rule="nonzero" d="m1321.299987,333.33331l12.033333,-12.033333l12.04,12.033333l-12.04,12.033333l-12.033333,-12.033333" id="path1664"/>
    <path fill="#dedede" fill-rule="nonzero" d="m1320.03332,399.999976l13.3,-13.3l13.293333,13.3l-13.293333,13.3l-13.3,-13.3" id="path1666"/>
    <path fill="#ffffff" fill-rule="nonzero" d="m1318.766653,466.666642l14.566667,-14.566667l14.56,14.566667l-14.56,14.566667l-14.566667,-14.566667" id="path1668"/>
    <path fill="#aeaeae" fill-rule="nonzero" d="m1317.499987,533.333308l15.833333,-15.833333l15.84,15.833333l-15.84,15.833333l-15.833333,-15.833333" id="path1670"/>
    <path fill="#b8b8b8" fill-rule="nonzero" d="m1316.23332,599.999974l17.1,-17.1l17.106666,17.1l-17.106666,17.1l-17.1,-17.1" id="path1672"/>
   </g>
  </g>
 </g>
</svg>